<svg viewBox="0 0 435 135" fill="none" xmlns="http://www.w3.org/2000/svg">
<path d="M40.958 25.3384C42.3122 26.2694 43.4124 27.4437 44.2588 28.8613C45.1051 30.2578 45.5283 31.9082 45.5283 33.8125C45.5283 36.0977 45.0417 38.0337 44.0684 39.6206C43.1162 41.1864 41.7409 42.4242 39.9424 43.334C38.0381 44.3073 35.8376 44.995 33.3408 45.397C30.8652 45.799 27.9453 46 24.5811 46H1.18994V43.5244C1.84587 43.4609 2.67106 43.3657 3.66553 43.2388C4.65999 43.1118 5.35824 42.9637 5.76025 42.7944C6.54313 42.4771 7.0721 42.0645 7.34717 41.5566C7.64339 41.0277 7.7915 40.3506 7.7915 39.5254V7.78711C7.7915 7.02539 7.67513 6.39062 7.44238 5.88281C7.20964 5.375 6.64893 4.93066 5.76025 4.5498C5.10433 4.27474 4.34261 4.05257 3.4751 3.8833C2.60758 3.69287 1.84587 3.54476 1.18994 3.43896V0.963379H25.6602C31.8174 0.963379 36.2607 1.80973 38.9902 3.50244C41.7197 5.19515 43.0845 7.69189 43.0845 10.9927C43.0845 12.5161 42.7777 13.8597 42.1641 15.0234C41.5505 16.166 40.6724 17.1605 39.5298 18.0068C38.493 18.7897 37.2552 19.4668 35.8164 20.0381C34.3776 20.6094 32.833 21.0854 31.1826 21.4663V22.0693C32.833 22.2386 34.5469 22.6089 36.3242 23.1802C38.1016 23.7303 39.6462 24.4497 40.958 25.3384ZM30.7383 11.7861C30.7383 9.28939 30.0295 7.34277 28.6118 5.94629C27.2153 4.5498 25.11 3.85156 22.2959 3.85156C21.8939 3.85156 21.3649 3.87272 20.709 3.91504C20.0742 3.9362 19.5241 3.95736 19.0586 3.97852V20.6729H20.709C24.1367 20.6729 26.6652 19.8794 28.2944 18.2925C29.9237 16.6844 30.7383 14.5156 30.7383 11.7861ZM32.96 33.3999C32.96 30.2684 32.029 27.8669 30.167 26.1953C28.305 24.5238 25.6284 23.688 22.1372 23.688C21.7352 23.688 21.1956 23.7091 20.5186 23.7515C19.8626 23.7726 19.376 23.7938 19.0586 23.8149V40.2871C19.249 41.07 19.8415 41.7365 20.8359 42.2866C21.8304 42.8156 23.0365 43.0801 24.4541 43.0801C26.972 43.0801 29.0138 42.2337 30.5796 40.541C32.1665 38.8483 32.96 36.4679 32.96 33.3999ZM84.2173 38.4146C83.4767 39.6206 82.5775 40.7632 81.5195 41.8423C80.4827 42.9002 79.2979 43.8101 77.9648 44.5718C76.5472 45.3758 75.1084 45.9788 73.6484 46.3809C72.2096 46.804 70.5487 47.0156 68.6655 47.0156C65.534 47.0156 62.8257 46.5713 60.5405 45.6826C58.2765 44.7939 56.404 43.5985 54.9229 42.0962C53.4417 40.5939 52.3309 38.8271 51.5903 36.7959C50.8709 34.7435 50.5112 32.5218 50.5112 30.1309C50.5112 27.9727 50.9027 25.9097 51.6855 23.9419C52.4896 21.953 53.6216 20.1862 55.0815 18.6416C56.5203 17.1393 58.3294 15.9227 60.5088 14.9917C62.7093 14.0607 65.1637 13.5952 67.8721 13.5952C70.8343 13.5952 73.2676 13.9549 75.1719 14.6743C77.0762 15.3937 78.6525 16.3882 79.9009 17.6577C81.1069 18.8638 81.985 20.292 82.5352 21.9424C83.0853 23.5716 83.3604 25.2855 83.3604 27.084V29.147H61.9053C61.9053 33.4845 62.741 36.7853 64.4126 39.0493C66.0841 41.3133 68.7396 42.4453 72.3789 42.4453C74.3678 42.4453 76.1558 41.9058 77.7427 40.8267C79.3296 39.7264 80.6838 38.3405 81.8052 36.6689L84.2173 38.4146ZM72.0933 26.354C72.0933 25.0845 72.0298 23.7832 71.9028 22.4502C71.7759 21.1172 71.5537 20.0275 71.2363 19.1812C70.8766 18.1867 70.3794 17.4355 69.7446 16.9277C69.131 16.4199 68.3481 16.166 67.396 16.166C65.7668 16.166 64.4655 16.9912 63.4922 18.6416C62.5189 20.292 61.9899 22.9051 61.9053 26.481L72.0933 26.354ZM140.077 45.3335C139.146 45.7355 138.045 46.1058 136.776 46.4443C135.506 46.7829 134.163 46.9521 132.745 46.9521C130.143 46.9521 128.228 46.5713 127 45.8096C125.773 45.0267 124.938 43.9159 124.493 42.4771H124.303C123.583 43.1965 122.885 43.8101 122.208 44.3179C121.552 44.8257 120.843 45.2594 120.082 45.6191C119.087 46.0846 118.124 46.4232 117.193 46.6348C116.284 46.8675 115.003 46.9839 113.353 46.9839C110.899 46.9839 108.804 46.2645 107.069 44.8257C105.334 43.3657 104.466 41.4403 104.466 39.0493C104.466 37.674 104.657 36.5103 105.038 35.5581C105.418 34.5848 105.958 33.7279 106.656 32.9873C107.291 32.3102 108.021 31.7495 108.846 31.3052C109.693 30.8608 110.613 30.4482 111.607 30.0674C113.512 29.3691 115.797 28.6497 118.463 27.9092C121.129 27.1475 123.076 26.4704 124.303 25.8779V22.8311C124.303 22.3021 124.26 21.6038 124.176 20.7363C124.091 19.8688 123.911 19.1388 123.636 18.5464C123.34 17.8693 122.875 17.298 122.24 16.8325C121.605 16.367 120.769 16.1343 119.732 16.1343C118.801 16.1343 118.019 16.2718 117.384 16.5469C116.77 16.8008 116.273 17.0653 115.892 17.3403C115.956 17.7635 116.135 18.4089 116.432 19.2764C116.728 20.1439 116.876 20.9797 116.876 21.7837C116.876 22.1434 116.781 22.5983 116.59 23.1484C116.4 23.6774 116.125 24.1006 115.765 24.418C115.278 24.8411 114.728 25.1691 114.115 25.4019C113.522 25.6346 112.602 25.751 111.354 25.751C109.576 25.751 108.233 25.3278 107.323 24.4814C106.413 23.6139 105.958 22.4925 105.958 21.1172C105.958 19.9323 106.424 18.8743 107.354 17.9434C108.307 16.9912 109.46 16.2083 110.814 15.5947C112.147 14.96 113.681 14.4733 115.416 14.1348C117.151 13.7751 118.759 13.5952 120.24 13.5952C122.293 13.5952 124.176 13.7222 125.89 13.9761C127.604 14.2088 129.148 14.7061 130.523 15.4678C131.835 16.2083 132.872 17.2874 133.634 18.7051C134.417 20.1016 134.808 21.9318 134.808 24.1958C134.808 26.5868 134.755 29.422 134.649 32.7017C134.565 35.9813 134.522 38.1395 134.522 39.1763C134.522 40.1284 134.66 40.8796 134.935 41.4297C135.231 41.9798 135.676 42.3924 136.268 42.6675C136.628 42.8368 137.188 42.9425 137.95 42.9849C138.733 43.006 139.442 43.0166 140.077 43.0166V45.3335ZM124.303 28.7979C123.118 29.1999 121.944 29.6654 120.78 30.1943C119.616 30.7021 118.664 31.2417 117.923 31.813C117.14 32.4054 116.527 33.1672 116.083 34.0981C115.638 35.008 115.416 36.0871 115.416 37.3354C115.416 38.9858 115.786 40.1813 116.527 40.9219C117.289 41.6624 118.22 42.0327 119.32 42.0327C120.484 42.0327 121.436 41.8 122.176 41.3345C122.938 40.8478 123.604 40.2554 124.176 39.5571L124.303 28.7979ZM197.237 16.8325C196.264 16.9806 195.365 17.3086 194.54 17.8164C193.714 18.3031 193.016 19.2235 192.445 20.5776C190.964 24.1958 189.779 27.1157 188.89 29.3374C188.001 31.5591 186.753 34.7646 185.145 38.9541C184.806 39.8216 184.394 41.0171 183.907 42.5405C183.442 44.064 183.071 45.3123 182.796 46.2856H176.607L168.609 24.7036L161.119 46.2856H154.994C152.857 40.5093 151.174 36.0342 149.947 32.8604C148.72 29.6654 147.08 25.4548 145.028 20.2285C144.647 19.234 143.991 18.4512 143.06 17.8799C142.15 17.3086 141.209 16.9595 140.235 16.8325V14.5156H159.723V16.8325C159.003 16.896 158.146 17.0653 157.152 17.3403C156.157 17.6154 155.66 17.9857 155.66 18.4512C155.66 18.6628 155.681 18.8532 155.724 19.0225C155.787 19.1706 155.882 19.4562 156.009 19.8794C156.581 21.5298 157.363 23.6668 158.358 26.2905C159.352 28.8931 160.516 31.9294 161.849 35.3994L168.895 14.5156H175.179L183.209 36.0977C184.436 32.8392 185.378 30.279 186.034 28.417C186.711 26.5339 187.557 24.1112 188.573 21.1489C188.721 20.7046 188.806 20.3132 188.827 19.9746C188.869 19.6149 188.88 19.3822 188.858 19.2764C188.858 18.8955 188.668 18.557 188.287 18.2607C187.906 17.9434 187.451 17.6895 186.922 17.499C186.393 17.3086 185.875 17.1605 185.367 17.0547C184.881 16.9489 184.468 16.8748 184.129 16.8325V14.5156H197.237V16.8325ZM234.911 45.3335C233.98 45.7355 232.879 46.1058 231.61 46.4443C230.34 46.7829 228.997 46.9521 227.579 46.9521C224.977 46.9521 223.062 46.5713 221.834 45.8096C220.607 45.0267 219.771 43.9159 219.327 42.4771H219.137C218.417 43.1965 217.719 43.8101 217.042 44.3179C216.386 44.8257 215.677 45.2594 214.916 45.6191C213.921 46.0846 212.958 46.4232 212.027 46.6348C211.118 46.8675 209.837 46.9839 208.187 46.9839C205.733 46.9839 203.638 46.2645 201.903 44.8257C200.168 43.3657 199.3 41.4403 199.3 39.0493C199.3 37.674 199.491 36.5103 199.872 35.5581C200.252 34.5848 200.792 33.7279 201.49 32.9873C202.125 32.3102 202.855 31.7495 203.68 31.3052C204.527 30.8608 205.447 30.4482 206.441 30.0674C208.346 29.3691 210.631 28.6497 213.297 27.9092C215.963 27.1475 217.91 26.4704 219.137 25.8779V22.8311C219.137 22.3021 219.094 21.6038 219.01 20.7363C218.925 19.8688 218.745 19.1388 218.47 18.5464C218.174 17.8693 217.708 17.298 217.074 16.8325C216.439 16.367 215.603 16.1343 214.566 16.1343C213.635 16.1343 212.853 16.2718 212.218 16.5469C211.604 16.8008 211.107 17.0653 210.726 17.3403C210.79 17.7635 210.969 18.4089 211.266 19.2764C211.562 20.1439 211.71 20.9797 211.71 21.7837C211.71 22.1434 211.615 22.5983 211.424 23.1484C211.234 23.6774 210.959 24.1006 210.599 24.418C210.112 24.8411 209.562 25.1691 208.949 25.4019C208.356 25.6346 207.436 25.751 206.188 25.751C204.41 25.751 203.067 25.3278 202.157 24.4814C201.247 23.6139 200.792 22.4925 200.792 21.1172C200.792 19.9323 201.257 18.8743 202.188 17.9434C203.141 16.9912 204.294 16.2083 205.648 15.5947C206.981 14.96 208.515 14.4733 210.25 14.1348C211.985 13.7751 213.593 13.5952 215.074 13.5952C217.127 13.5952 219.01 13.7222 220.724 13.9761C222.438 14.2088 223.982 14.7061 225.357 15.4678C226.669 16.2083 227.706 17.2874 228.468 18.7051C229.251 20.1016 229.642 21.9318 229.642 24.1958C229.642 26.5868 229.589 29.422 229.483 32.7017C229.399 35.9813 229.356 38.1395 229.356 39.1763C229.356 40.1284 229.494 40.8796 229.769 41.4297C230.065 41.9798 230.51 42.3924 231.102 42.6675C231.462 42.8368 232.022 42.9425 232.784 42.9849C233.567 43.006 234.276 43.0166 234.911 43.0166V45.3335ZM219.137 28.7979C217.952 29.1999 216.778 29.6654 215.614 30.1943C214.45 30.7021 213.498 31.2417 212.757 31.813C211.974 32.4054 211.361 33.1672 210.917 34.0981C210.472 35.008 210.25 36.0871 210.25 37.3354C210.25 38.9858 210.62 40.1813 211.361 40.9219C212.123 41.6624 213.054 42.0327 214.154 42.0327C215.318 42.0327 216.27 41.8 217.01 41.3345C217.772 40.8478 218.438 40.2554 219.01 39.5571L219.137 28.7979ZM268.966 20.3237C268.966 21.9318 268.469 23.3494 267.474 24.5767C266.48 25.7827 265.168 26.3857 263.539 26.3857C261.994 26.3857 260.682 25.9943 259.603 25.2114C258.545 24.4285 258.016 23.2754 258.016 21.752C258.016 21.0114 258.069 20.4401 258.175 20.0381C258.281 19.6149 258.376 19.2235 258.46 18.8638C257.487 18.9061 256.461 19.2446 255.382 19.8794C254.303 20.5142 253.351 21.3605 252.525 22.4185V39.8428C252.525 40.5833 252.642 41.1969 252.875 41.6836C253.107 42.1702 253.499 42.5511 254.049 42.8262C254.514 43.0589 255.265 43.2599 256.302 43.4292C257.36 43.5773 258.122 43.6619 258.587 43.6831V46H237.354V43.6831C237.883 43.6408 238.412 43.5879 238.941 43.5244C239.492 43.4398 239.957 43.334 240.338 43.207C241.015 42.9743 241.48 42.6146 241.734 42.1279C241.988 41.6413 242.115 41.0065 242.115 40.2236V21.752C242.115 20.9902 241.935 20.3132 241.576 19.7207C241.216 19.1071 240.782 18.6204 240.274 18.2607C239.894 18.0068 239.407 17.7952 238.814 17.626C238.243 17.4567 237.608 17.3403 236.91 17.2769V14.96L252.049 14.1348L252.525 14.6108V19.2129H252.652C254.112 17.5202 255.657 16.1978 257.286 15.2456C258.937 14.2723 260.65 13.7856 262.428 13.7856C264.396 13.7856 265.972 14.3993 267.157 15.6265C268.363 16.8325 268.966 18.3983 268.966 20.3237ZM305.306 38.4146C304.566 39.6206 303.666 40.7632 302.608 41.8423C301.572 42.9002 300.387 43.8101 299.054 44.5718C297.636 45.3758 296.197 45.9788 294.737 46.3809C293.299 46.804 291.638 47.0156 289.754 47.0156C286.623 47.0156 283.915 46.5713 281.629 45.6826C279.365 44.7939 277.493 43.5985 276.012 42.0962C274.531 40.5939 273.42 38.8271 272.679 36.7959C271.96 34.7435 271.6 32.5218 271.6 30.1309C271.6 27.9727 271.992 25.9097 272.774 23.9419C273.578 21.953 274.71 20.1862 276.17 18.6416C277.609 17.1393 279.418 15.9227 281.598 14.9917C283.798 14.0607 286.253 13.5952 288.961 13.5952C291.923 13.5952 294.356 13.9549 296.261 14.6743C298.165 15.3937 299.741 16.3882 300.99 17.6577C302.196 18.8638 303.074 20.292 303.624 21.9424C304.174 23.5716 304.449 25.2855 304.449 27.084V29.147H282.994C282.994 33.4845 283.83 36.7853 285.501 39.0493C287.173 41.3133 289.828 42.4453 293.468 42.4453C295.457 42.4453 297.245 41.9058 298.832 40.8267C300.418 39.7264 301.773 38.3405 302.894 36.6689L305.306 38.4146ZM293.182 26.354C293.182 25.0845 293.119 23.7832 292.992 22.4502C292.865 21.1172 292.643 20.0275 292.325 19.1812C291.965 18.1867 291.468 17.4355 290.833 16.9277C290.22 16.4199 289.437 16.166 288.485 16.166C286.856 16.166 285.554 16.9912 284.581 18.6416C283.608 20.292 283.079 22.9051 282.994 26.481L293.182 26.354ZM323.651 44.3179C323.651 46.8993 322.572 49.5335 320.414 52.2207C318.255 54.929 315.663 56.9709 312.638 58.3462L311.241 56.0928C312.278 55.5426 313.251 54.9502 314.161 54.3154C315.092 53.6807 315.917 52.9401 316.637 52.0938C317.377 51.2051 317.959 50.2952 318.382 49.3643C318.827 48.4544 319.102 47.333 319.208 46H317.43C315.272 46 313.643 45.5133 312.542 44.54C311.442 43.5667 310.892 42.2231 310.892 40.5093C310.892 39.1551 311.421 37.9385 312.479 36.8594C313.537 35.7591 314.838 35.209 316.383 35.209C318.753 35.209 320.551 36.0236 321.778 37.6528C323.027 39.2609 323.651 41.4826 323.651 44.3179ZM63.0796 120H38.6729V117.524C39.3923 117.461 40.2703 117.355 41.3071 117.207C42.3651 117.059 43.0845 116.9 43.4653 116.731C44.2482 116.414 44.8089 115.98 45.1475 115.43C45.486 114.88 45.6553 114.181 45.6553 113.335V79.6924L30.167 119.27H26.168C25.9775 118.572 25.5015 117.186 24.7397 115.112C23.9992 113.039 23.3962 111.378 22.9307 110.129L11.5366 79.1846V106.575C11.5366 109.198 11.7059 111.198 12.0444 112.573C12.4041 113.927 12.9754 114.922 13.7583 115.557C14.2873 116.001 15.2288 116.424 16.583 116.826C17.9583 117.228 18.9211 117.461 19.4712 117.524V120H0.11084V117.524C0.639811 117.461 1.49674 117.323 2.68164 117.112C3.8877 116.879 4.87158 116.488 5.6333 115.938C6.47965 115.345 7.05094 114.351 7.34717 112.954C7.64339 111.536 7.7915 109.526 7.7915 106.924V84.6118C7.7915 83.2576 7.62223 82.1362 7.28369 81.2476C6.94515 80.3377 6.43734 79.6183 5.76025 79.0894C4.9139 78.4334 4.04639 78.0103 3.15771 77.8198C2.26904 77.6294 1.36979 77.5024 0.459961 77.439V74.9634H21.1851L32.2935 104.702L41.6562 80.5493C41.9736 79.6606 42.2804 78.6027 42.5767 77.3755C42.8729 76.1483 43.0316 75.3442 43.0527 74.9634H63.0161V77.439C62.339 77.4813 61.6302 77.5659 60.8896 77.6929C60.1491 77.8198 59.4403 77.9891 58.7632 78.2007C57.938 78.4757 57.3879 78.9095 57.1128 79.502C56.8589 80.0944 56.7319 80.7503 56.7319 81.4697V113.367C56.7319 114.128 56.8589 114.774 57.1128 115.303C57.3879 115.811 57.938 116.255 58.7632 116.636C59.1864 116.826 59.874 117.006 60.8262 117.175C61.7995 117.345 62.5506 117.461 63.0796 117.524V120ZM103.641 119.333C102.71 119.736 101.61 120.106 100.34 120.444C99.0708 120.783 97.7272 120.952 96.3096 120.952C93.707 120.952 91.7922 120.571 90.5649 119.81C89.3377 119.027 88.502 117.916 88.0576 116.477H87.8672C87.1478 117.196 86.4495 117.81 85.7725 118.318C85.1165 118.826 84.4077 119.259 83.646 119.619C82.6515 120.085 81.6888 120.423 80.7578 120.635C79.848 120.868 78.5679 120.984 76.9175 120.984C74.4631 120.984 72.3683 120.264 70.6333 118.826C68.8983 117.366 68.0308 115.44 68.0308 113.049C68.0308 111.674 68.2212 110.51 68.6021 109.558C68.9829 108.585 69.5225 107.728 70.2207 106.987C70.8555 106.31 71.5854 105.75 72.4106 105.305C73.257 104.861 74.1774 104.448 75.1719 104.067C77.0762 103.369 79.3613 102.65 82.0273 101.909C84.6934 101.147 86.64 100.47 87.8672 99.8779V96.8311C87.8672 96.3021 87.8249 95.6038 87.7402 94.7363C87.6556 93.8688 87.4757 93.1388 87.2007 92.5464C86.9045 91.8693 86.439 91.298 85.8042 90.8325C85.1694 90.367 84.3337 90.1343 83.2969 90.1343C82.3659 90.1343 81.583 90.2718 80.9482 90.5469C80.3346 90.8008 79.8374 91.0653 79.4565 91.3403C79.52 91.7635 79.6999 92.4089 79.9961 93.2764C80.2923 94.1439 80.4404 94.9797 80.4404 95.7837C80.4404 96.1434 80.3452 96.5983 80.1548 97.1484C79.9644 97.6774 79.6893 98.1006 79.3296 98.418C78.8429 98.8411 78.2928 99.1691 77.6792 99.4019C77.0868 99.6346 76.1663 99.751 74.918 99.751C73.1406 99.751 71.797 99.3278 70.8872 98.4814C69.9774 97.6139 69.5225 96.4925 69.5225 95.1172C69.5225 93.9323 69.988 92.8743 70.9189 91.9434C71.8711 90.9912 73.0243 90.2083 74.3784 89.5947C75.7114 88.96 77.2454 88.4733 78.9805 88.1348C80.7155 87.7751 82.3236 87.5952 83.8047 87.5952C85.8571 87.5952 87.7402 87.7222 89.4541 87.9761C91.168 88.2088 92.7126 88.7061 94.0879 89.4678C95.3997 90.2083 96.4365 91.2874 97.1982 92.7051C97.9811 94.1016 98.3726 95.9318 98.3726 98.1958C98.3726 100.587 98.3197 103.422 98.2139 106.702C98.1292 109.981 98.0869 112.139 98.0869 113.176C98.0869 114.128 98.2244 114.88 98.4995 115.43C98.7957 115.98 99.2401 116.392 99.8325 116.667C100.192 116.837 100.753 116.943 101.515 116.985C102.298 117.006 103.006 117.017 103.641 117.017V119.333ZM87.8672 102.798C86.6823 103.2 85.508 103.665 84.3442 104.194C83.1805 104.702 82.2284 105.242 81.4878 105.813C80.7049 106.405 80.0913 107.167 79.647 108.098C79.2026 109.008 78.9805 110.087 78.9805 111.335C78.9805 112.986 79.3507 114.181 80.0913 114.922C80.853 115.662 81.784 116.033 82.8843 116.033C84.048 116.033 85.0002 115.8 85.7407 115.334C86.5024 114.848 87.1689 114.255 87.7402 113.557L87.8672 102.798ZM147.979 120H128.873V117.683C129.275 117.641 129.762 117.588 130.333 117.524C130.904 117.461 131.338 117.355 131.634 117.207C132.079 116.974 132.396 116.636 132.586 116.191C132.777 115.747 132.872 115.091 132.872 114.224V99.3701C132.872 97.2119 132.47 95.5933 131.666 94.5142C130.883 93.4139 129.719 92.8638 128.175 92.8638C127.328 92.8638 126.535 92.9907 125.794 93.2446C125.075 93.4985 124.366 93.8688 123.668 94.3555C123.054 94.7786 122.557 95.2124 122.176 95.6567C121.817 96.1011 121.51 96.4925 121.256 96.8311V113.875C121.256 114.615 121.362 115.239 121.573 115.747C121.785 116.234 122.134 116.604 122.621 116.858C122.959 117.048 123.382 117.218 123.89 117.366C124.398 117.514 124.895 117.62 125.382 117.683V120H106.085V117.683C106.614 117.641 107.143 117.588 107.672 117.524C108.222 117.44 108.688 117.334 109.068 117.207C109.745 116.974 110.211 116.615 110.465 116.128C110.719 115.641 110.846 115.007 110.846 114.224V95.752C110.846 95.096 110.676 94.4507 110.338 93.8159C109.999 93.1812 109.555 92.6628 109.005 92.2607C108.624 92.0068 108.137 91.7952 107.545 91.626C106.974 91.4567 106.339 91.3403 105.641 91.2769V88.96L120.78 88.1348L121.256 88.6108V93.2129H121.383C121.975 92.6839 122.695 92.0492 123.541 91.3086C124.387 90.568 125.17 89.965 125.89 89.4995C126.673 88.9917 127.699 88.5579 128.968 88.1982C130.238 87.8385 131.592 87.6587 133.031 87.6587C136.48 87.6587 139.061 88.6426 140.775 90.6104C142.51 92.557 143.377 95.1489 143.377 98.3862V113.938C143.377 114.721 143.494 115.345 143.727 115.811C143.959 116.276 144.393 116.646 145.028 116.921C145.366 117.069 145.779 117.218 146.266 117.366C146.773 117.514 147.345 117.62 147.979 117.683V120ZM187.24 119.333C186.309 119.736 185.208 120.106 183.939 120.444C182.669 120.783 181.326 120.952 179.908 120.952C177.306 120.952 175.391 120.571 174.164 119.81C172.936 119.027 172.101 117.916 171.656 116.477H171.466C170.746 117.196 170.048 117.81 169.371 118.318C168.715 118.826 168.006 119.259 167.245 119.619C166.25 120.085 165.287 120.423 164.356 120.635C163.447 120.868 162.167 120.984 160.516 120.984C158.062 120.984 155.967 120.264 154.232 118.826C152.497 117.366 151.629 115.44 151.629 113.049C151.629 111.674 151.82 110.51 152.201 109.558C152.582 108.585 153.121 107.728 153.819 106.987C154.454 106.31 155.184 105.75 156.009 105.305C156.856 104.861 157.776 104.448 158.771 104.067C160.675 103.369 162.96 102.65 165.626 101.909C168.292 101.147 170.239 100.47 171.466 99.8779V96.8311C171.466 96.3021 171.424 95.6038 171.339 94.7363C171.254 93.8688 171.074 93.1388 170.799 92.5464C170.503 91.8693 170.038 91.298 169.403 90.8325C168.768 90.367 167.932 90.1343 166.896 90.1343C165.965 90.1343 165.182 90.2718 164.547 90.5469C163.933 90.8008 163.436 91.0653 163.055 91.3403C163.119 91.7635 163.299 92.4089 163.595 93.2764C163.891 94.1439 164.039 94.9797 164.039 95.7837C164.039 96.1434 163.944 96.5983 163.753 97.1484C163.563 97.6774 163.288 98.1006 162.928 98.418C162.442 98.8411 161.891 99.1691 161.278 99.4019C160.685 99.6346 159.765 99.751 158.517 99.751C156.739 99.751 155.396 99.3278 154.486 98.4814C153.576 97.6139 153.121 96.4925 153.121 95.1172C153.121 93.9323 153.587 92.8743 154.518 91.9434C155.47 90.9912 156.623 90.2083 157.977 89.5947C159.31 88.96 160.844 88.4733 162.579 88.1348C164.314 87.7751 165.922 87.5952 167.403 87.5952C169.456 87.5952 171.339 87.7222 173.053 87.9761C174.767 88.2088 176.311 88.7061 177.687 89.4678C178.998 90.2083 180.035 91.2874 180.797 92.7051C181.58 94.1016 181.971 95.9318 181.971 98.1958C181.971 100.587 181.918 103.422 181.812 106.702C181.728 109.981 181.686 112.139 181.686 113.176C181.686 114.128 181.823 114.88 182.098 115.43C182.394 115.98 182.839 116.392 183.431 116.667C183.791 116.837 184.352 116.943 185.113 116.985C185.896 117.006 186.605 117.017 187.24 117.017V119.333ZM171.466 102.798C170.281 103.2 169.107 103.665 167.943 104.194C166.779 104.702 165.827 105.242 165.086 105.813C164.304 106.405 163.69 107.167 163.246 108.098C162.801 109.008 162.579 110.087 162.579 111.335C162.579 112.986 162.949 114.181 163.69 114.922C164.452 115.662 165.383 116.033 166.483 116.033C167.647 116.033 168.599 115.8 169.339 115.334C170.101 114.848 170.768 114.255 171.339 113.557L171.466 102.798ZM225.23 92.0703H218.248C219.073 93.0013 219.687 93.9852 220.089 95.022C220.512 96.0588 220.724 97.1379 220.724 98.2593C220.724 99.7192 220.332 101.095 219.549 102.385C218.766 103.655 217.74 104.692 216.471 105.496C215.18 106.321 213.667 106.966 211.932 107.432C210.197 107.897 208.314 108.13 206.283 108.13H201.109C200.855 108.32 200.57 108.627 200.252 109.05C199.956 109.452 199.808 109.844 199.808 110.225C199.808 111.156 200.178 111.801 200.919 112.161C201.66 112.52 203.003 112.721 204.95 112.764C206.875 112.806 208.822 112.891 210.79 113.018C212.757 113.123 214.164 113.187 215.011 113.208C216.238 113.271 217.455 113.525 218.661 113.97C219.867 114.393 220.914 114.954 221.803 115.652C222.776 116.392 223.58 117.345 224.215 118.508C224.85 119.651 225.167 120.973 225.167 122.476C225.167 124.084 224.776 125.597 223.993 127.014C223.231 128.432 222.057 129.659 220.47 130.696C218.798 131.775 216.788 132.611 214.439 133.203C212.112 133.796 209.224 134.092 205.775 134.092C200.21 134.092 195.978 133.415 193.08 132.061C190.181 130.706 188.731 128.675 188.731 125.967C188.731 124.295 189.514 122.92 191.08 121.841C192.646 120.762 195.079 120.169 198.38 120.063V119.683C196.433 119.027 194.91 118.159 193.81 117.08C192.73 115.98 192.191 114.71 192.191 113.271C192.191 112.383 192.403 111.632 192.826 111.018C193.27 110.404 193.831 109.865 194.508 109.399C195.1 108.997 195.82 108.659 196.666 108.384C197.512 108.088 198.221 107.855 198.792 107.686V107.336C195.936 106.278 193.831 104.988 192.477 103.464C191.144 101.941 190.477 100.079 190.477 97.8784C190.477 94.7681 191.905 92.2819 194.762 90.4199C197.639 88.5579 201.279 87.627 205.68 87.627C207.118 87.627 208.504 87.7539 209.837 88.0078C211.192 88.2406 212.218 88.4521 212.916 88.6426H225.23V92.0703ZM210.345 98.1323C210.345 95.6567 209.954 93.6995 209.171 92.2607C208.388 90.8219 207.182 90.1025 205.553 90.1025C204.728 90.1025 204.008 90.3035 203.395 90.7056C202.781 91.0864 202.284 91.6471 201.903 92.3877C201.543 93.1071 201.3 93.9535 201.173 94.9268C201.046 95.8789 200.982 96.8628 200.982 97.8784C200.982 100.185 201.384 102.078 202.188 103.56C202.993 105.041 204.135 105.781 205.616 105.781C207.14 105.781 208.303 105.115 209.107 103.782C209.933 102.449 210.345 100.566 210.345 98.1323ZM215.677 124.792C215.677 124.073 215.476 123.354 215.074 122.634C214.672 121.936 213.773 121.365 212.376 120.92C211.615 120.793 210.356 120.709 208.6 120.667C206.865 120.624 204.474 120.603 201.427 120.603C200.686 121.238 200.062 121.989 199.554 122.856C199.068 123.724 198.824 124.771 198.824 125.999C198.824 126.528 198.972 127.109 199.269 127.744C199.565 128.379 200.03 128.971 200.665 129.521C201.406 130.135 202.231 130.611 203.141 130.95C204.05 131.309 205.426 131.489 207.267 131.489C209.996 131.489 212.08 130.96 213.519 129.902C214.958 128.844 215.677 127.141 215.677 124.792ZM261.317 112.415C260.576 113.621 259.677 114.763 258.619 115.842C257.582 116.9 256.397 117.81 255.064 118.572C253.647 119.376 252.208 119.979 250.748 120.381C249.309 120.804 247.648 121.016 245.765 121.016C242.634 121.016 239.925 120.571 237.64 119.683C235.376 118.794 233.504 117.598 232.022 116.096C230.541 114.594 229.431 112.827 228.69 110.796C227.971 108.743 227.611 106.522 227.611 104.131C227.611 101.973 228.002 99.9097 228.785 97.9419C229.589 95.953 230.721 94.1862 232.181 92.6416C233.62 91.1393 235.429 89.9227 237.608 88.9917C239.809 88.0607 242.263 87.5952 244.972 87.5952C247.934 87.5952 250.367 87.9549 252.271 88.6743C254.176 89.3937 255.752 90.3882 257 91.6577C258.207 92.8638 259.085 94.292 259.635 95.9424C260.185 97.5716 260.46 99.2855 260.46 101.084V103.147H239.005C239.005 107.485 239.841 110.785 241.512 113.049C243.184 115.313 245.839 116.445 249.479 116.445C251.467 116.445 253.255 115.906 254.842 114.827C256.429 113.726 257.783 112.34 258.905 110.669L261.317 112.415ZM249.193 100.354C249.193 99.0845 249.129 97.7832 249.002 96.4502C248.875 95.1172 248.653 94.0275 248.336 93.1812C247.976 92.1867 247.479 91.4355 246.844 90.9277C246.231 90.4199 245.448 90.166 244.496 90.166C242.866 90.166 241.565 90.9912 240.592 92.6416C239.618 94.292 239.09 96.9051 239.005 100.481L249.193 100.354ZM335.616 90.8325C334.643 90.9806 333.744 91.3086 332.918 91.8164C332.093 92.3031 331.395 93.2235 330.824 94.5776C329.343 98.1958 328.158 101.116 327.269 103.337C326.38 105.559 325.132 108.765 323.524 112.954C323.185 113.822 322.773 115.017 322.286 116.541C321.821 118.064 321.45 119.312 321.175 120.286H314.986L306.988 98.7036L299.498 120.286H293.373C291.236 114.509 289.553 110.034 288.326 106.86C287.099 103.665 285.459 99.4548 283.407 94.2285C283.026 93.234 282.37 92.4512 281.439 91.8799C280.529 91.3086 279.588 90.9595 278.614 90.8325V88.5156H298.102V90.8325C297.382 90.896 296.525 91.0653 295.531 91.3403C294.536 91.6154 294.039 91.9857 294.039 92.4512C294.039 92.6628 294.06 92.8532 294.103 93.0225C294.166 93.1706 294.261 93.4562 294.388 93.8794C294.959 95.5298 295.742 97.6668 296.737 100.291C297.731 102.893 298.895 105.929 300.228 109.399L307.274 88.5156H313.558L321.588 110.098C322.815 106.839 323.757 104.279 324.413 102.417C325.09 100.534 325.936 98.1112 326.952 95.1489C327.1 94.7046 327.184 94.3132 327.206 93.9746C327.248 93.6149 327.258 93.3822 327.237 93.2764C327.237 92.8955 327.047 92.557 326.666 92.2607C326.285 91.9434 325.83 91.6895 325.301 91.499C324.772 91.3086 324.254 91.1605 323.746 91.0547C323.259 90.9489 322.847 90.8748 322.508 90.8325V88.5156H335.616V90.8325ZM371.131 112.415C370.391 113.621 369.492 114.763 368.434 115.842C367.397 116.9 366.212 117.81 364.879 118.572C363.461 119.376 362.022 119.979 360.562 120.381C359.124 120.804 357.463 121.016 355.58 121.016C352.448 121.016 349.74 120.571 347.455 119.683C345.191 118.794 343.318 117.598 341.837 116.096C340.356 114.594 339.245 112.827 338.504 110.796C337.785 108.743 337.425 106.522 337.425 104.131C337.425 101.973 337.817 99.9097 338.6 97.9419C339.404 95.953 340.536 94.1862 341.996 92.6416C343.434 91.1393 345.243 89.9227 347.423 88.9917C349.623 88.0607 352.078 87.5952 354.786 87.5952C357.748 87.5952 360.182 87.9549 362.086 88.6743C363.99 89.3937 365.567 90.3882 366.815 91.6577C368.021 92.8638 368.899 94.292 369.449 95.9424C369.999 97.5716 370.274 99.2855 370.274 101.084V103.147H348.819C348.819 107.485 349.655 110.785 351.327 113.049C352.998 115.313 355.654 116.445 359.293 116.445C361.282 116.445 363.07 115.906 364.657 114.827C366.244 113.726 367.598 112.34 368.719 110.669L371.131 112.415ZM359.007 100.354C359.007 99.0845 358.944 97.7832 358.817 96.4502C358.69 95.1172 358.468 94.0275 358.15 93.1812C357.791 92.1867 357.293 91.4355 356.659 90.9277C356.045 90.4199 355.262 90.166 354.31 90.166C352.681 90.166 351.38 90.9912 350.406 92.6416C349.433 94.292 348.904 96.9051 348.819 100.481L359.007 100.354ZM393.539 120H373.639V117.683C374.189 117.641 374.718 117.588 375.226 117.524C375.755 117.461 376.22 117.355 376.622 117.207C377.299 116.953 377.754 116.593 377.987 116.128C378.241 115.641 378.368 115.007 378.368 114.224V79.0576C378.368 78.2536 378.198 77.513 377.86 76.8359C377.542 76.1377 377.109 75.6087 376.559 75.249C376.135 74.974 375.49 74.7095 374.623 74.4556C373.776 74.2017 373.025 74.0535 372.369 74.0112V71.6943L388.333 70.8691L388.81 71.377V113.811C388.81 114.594 388.947 115.229 389.222 115.715C389.497 116.202 389.942 116.583 390.555 116.858C390.978 117.048 391.423 117.218 391.888 117.366C392.354 117.514 392.904 117.62 393.539 117.683V120ZM415.946 120H396.046V117.683C396.596 117.641 397.125 117.588 397.633 117.524C398.162 117.461 398.627 117.355 399.029 117.207C399.706 116.953 400.161 116.593 400.394 116.128C400.648 115.641 400.775 115.007 400.775 114.224V79.0576C400.775 78.2536 400.606 77.513 400.267 76.8359C399.95 76.1377 399.516 75.6087 398.966 75.249C398.543 74.974 397.897 74.7095 397.03 74.4556C396.183 74.2017 395.432 74.0535 394.776 74.0112V71.6943L410.741 70.8691L411.217 71.377V113.811C411.217 114.594 411.354 115.229 411.629 115.715C411.904 116.202 412.349 116.583 412.962 116.858C413.386 117.048 413.83 117.218 414.295 117.366C414.761 117.514 415.311 117.62 415.946 117.683V120ZM434.132 114.731C434.132 116.403 433.508 117.852 432.259 119.08C431.032 120.307 429.572 120.92 427.879 120.92C426.166 120.92 424.684 120.317 423.436 119.111C422.209 117.884 421.595 116.424 421.595 114.731C421.595 113.039 422.209 111.579 423.436 110.352C424.684 109.103 426.166 108.479 427.879 108.479C429.572 108.479 431.032 109.103 432.259 110.352C433.508 111.6 434.132 113.06 434.132 114.731Z" fill="#5072A7"/>
</svg>
