<svg width="535" height="128" viewBox="0 0 535 128" fill="none" xmlns="http://www.w3.org/2000/svg">
<path d="M33.2773 26.8916L32.5938 38H0.68457V36.0957C1.25423 36.0469 1.92155 35.9736 2.68652 35.876C3.4515 35.762 3.95605 35.6562 4.2002 35.5586C4.78613 35.3307 5.19303 35.0133 5.4209 34.6064C5.64876 34.1995 5.7627 33.6787 5.7627 33.0439V8.60547C5.7627 8.01953 5.67318 7.53939 5.49414 7.16504C5.3151 6.77441 4.88379 6.42448 4.2002 6.11523C3.69564 5.88737 3.08529 5.70833 2.36914 5.57812C1.66927 5.43164 1.10775 5.32585 0.68457 5.26074V3.35645H19.7031V5.26074C19.1823 5.30957 18.5638 5.38281 17.8477 5.48047C17.1478 5.56185 16.5374 5.68392 16.0166 5.84668C15.3818 6.05827 14.9587 6.39193 14.7471 6.84766C14.5355 7.28711 14.4297 7.79167 14.4297 8.36133V31.1396C14.4297 32.2139 14.5029 33.0602 14.6494 33.6787C14.7959 34.2972 15.0807 34.7529 15.5039 35.0459C15.9271 35.3551 16.513 35.5586 17.2617 35.6562C18.0267 35.7376 19.0765 35.7783 20.4111 35.7783C21.7132 35.7783 22.9746 35.7051 24.1953 35.5586C25.4323 35.3958 26.3193 35.054 26.8564 34.5332C27.6865 33.7031 28.5329 32.5394 29.3955 31.042C30.2744 29.5283 30.9743 28.1449 31.4951 26.8916H33.2773ZM60.9385 32.165C60.3688 33.0928 59.6771 33.9717 58.8633 34.8018C58.0658 35.6156 57.1543 36.3154 56.1289 36.9014C55.0384 37.5199 53.9316 37.9837 52.8086 38.293C51.7018 38.6185 50.4242 38.7812 48.9756 38.7812C46.5667 38.7812 44.4834 38.4395 42.7256 37.7559C40.984 37.0723 39.5436 36.1527 38.4043 34.9971C37.265 33.8415 36.4105 32.4824 35.8408 30.9199C35.2874 29.3411 35.0107 27.6322 35.0107 25.793C35.0107 24.1328 35.3118 22.5459 35.9141 21.0322C36.5326 19.5023 37.4033 18.1432 38.5264 16.9551C39.6331 15.7995 41.0247 14.8636 42.7012 14.1475C44.3939 13.4313 46.2819 13.0732 48.3652 13.0732C50.6439 13.0732 52.5156 13.3499 53.9805 13.9033C55.4453 14.4567 56.6579 15.2217 57.6182 16.1982C58.5459 17.126 59.2214 18.2246 59.6445 19.4941C60.0677 20.7474 60.2793 22.0658 60.2793 23.4492V25.0361H43.7754C43.7754 28.3727 44.4183 30.9118 45.7041 32.6533C46.9899 34.3949 49.0326 35.2656 51.832 35.2656C53.362 35.2656 54.7373 34.8506 55.958 34.0205C57.1787 33.1742 58.2204 32.1081 59.083 30.8223L60.9385 32.165ZM51.6123 22.8877C51.6123 21.9111 51.5635 20.9102 51.4658 19.8848C51.3682 18.8594 51.1973 18.0212 50.9531 17.3701C50.6764 16.6051 50.2939 16.0273 49.8057 15.6367C49.3337 15.2461 48.7314 15.0508 47.999 15.0508C46.7458 15.0508 45.7448 15.6855 44.9961 16.9551C44.2474 18.2246 43.8405 20.2347 43.7754 22.9854L51.6123 22.8877ZM81.4707 36.877C80.429 37.3327 79.3141 37.7396 78.126 38.0977C76.9378 38.472 75.4893 38.6592 73.7803 38.6592C71.2412 38.6592 69.3532 38.0407 68.1162 36.8037C66.8955 35.5667 66.2852 33.8008 66.2852 31.5059V16.5156H61.8906V13.8789H66.3828V6.48145H74.3174V13.8789H81.1533V16.5156H74.3662V29.8945C74.3662 31.7988 74.6266 33.1497 75.1475 33.9473C75.6846 34.7448 76.6367 35.1436 78.0039 35.1436C78.4434 35.1436 79.0537 35.111 79.835 35.0459C80.6162 34.9808 81.1615 34.9076 81.4707 34.8262V36.877ZM92.5303 4.57715C92.5303 5.47233 92.1315 7.21387 91.334 9.80176C90.5527 12.3734 89.8854 15.0752 89.332 17.9072H87.6475C87.0778 15.0752 86.4023 12.3734 85.6211 9.80176C84.8398 7.21387 84.4492 5.47233 84.4492 4.57715C84.4492 3.53548 84.7992 2.62402 85.499 1.84277C86.1989 1.06152 87.1999 0.670898 88.502 0.670898C89.7715 0.670898 90.7562 1.06152 91.4561 1.84277C92.1722 2.62402 92.5303 3.53548 92.5303 4.57715ZM107.96 38.8301C106.381 38.8301 104.835 38.5941 103.321 38.1221C101.824 37.6663 100.66 37.1781 99.8301 36.6572L99.0977 38.3174H97.1934L96.876 29.2109H98.6582C98.9023 29.9434 99.3092 30.7734 99.8789 31.7012C100.449 32.6126 101.1 33.4346 101.832 34.167C102.597 34.8994 103.468 35.5179 104.444 36.0225C105.437 36.527 106.495 36.7793 107.618 36.7793C109.099 36.7793 110.198 36.4945 110.914 35.9248C111.646 35.3389 112.013 34.4437 112.013 33.2393C112.013 32.5882 111.85 32.0511 111.524 31.6279C111.199 31.2048 110.751 30.8385 110.182 30.5293C109.547 30.2038 108.847 29.9271 108.082 29.6992C107.333 29.4714 106.406 29.1947 105.299 28.8691C104.192 28.5436 103.24 28.2181 102.442 27.8926C101.661 27.5508 100.847 27.0218 100.001 26.3057C99.2686 25.6709 98.6826 24.9059 98.2432 24.0107C97.8037 23.1156 97.584 22.0495 97.584 20.8125C97.584 18.5176 98.5443 16.6621 100.465 15.2461C102.402 13.8301 104.933 13.1221 108.058 13.1221C109.539 13.1221 110.898 13.2767 112.135 13.5859C113.388 13.8789 114.438 14.2044 115.284 14.5625L115.797 13.1221H117.652L118.043 21.4473H116.31C115.74 19.7546 114.763 18.2979 113.38 17.0771C111.996 15.8402 110.507 15.2217 108.912 15.2217C107.659 15.2217 106.674 15.4821 105.958 16.0029C105.242 16.5238 104.884 17.248 104.884 18.1758C104.884 19.4128 105.405 20.3079 106.446 20.8613C107.504 21.4147 108.977 21.9355 110.865 22.4238C113.779 23.1725 115.911 24.1979 117.262 25.5C118.613 26.7858 119.288 28.4297 119.288 30.4316C119.288 33.1009 118.238 35.168 116.139 36.6328C114.055 38.0977 111.329 38.8301 107.96 38.8301ZM166.725 38H152.027V36.2178C152.353 36.1852 152.735 36.1445 153.175 36.0957C153.614 36.0469 153.94 35.9655 154.151 35.8516C154.493 35.6725 154.729 35.4121 154.859 35.0703C155.006 34.7285 155.079 34.224 155.079 33.5566V22.1309C155.079 20.4544 154.762 19.2012 154.127 18.3711C153.508 17.541 152.621 17.126 151.466 17.126C150.815 17.126 150.204 17.2236 149.635 17.4189C149.081 17.6143 148.536 17.8991 147.999 18.2734C147.527 18.599 147.145 18.9326 146.852 19.2744C146.575 19.6162 146.339 19.9173 146.144 20.1777V33.2881C146.144 33.8903 146.217 34.3704 146.363 34.7285C146.51 35.0703 146.786 35.3551 147.193 35.583C147.438 35.7295 147.755 35.8597 148.146 35.9736C148.552 36.0876 148.943 36.1689 149.317 36.2178V38H134.474V36.2178C134.897 36.1852 135.304 36.1445 135.694 36.0957C136.101 36.0469 136.459 35.9655 136.769 35.8516C137.289 35.6562 137.639 35.3796 137.818 35.0215C138.014 34.6471 138.111 34.1589 138.111 33.5566V6.33496C138.111 5.81413 137.989 5.26074 137.745 4.6748C137.501 4.08887 137.159 3.64941 136.72 3.35645C136.394 3.14486 135.922 2.9821 135.304 2.86816C134.685 2.73796 134.132 2.65658 133.644 2.62402V0.841797L145.777 0.207031L146.144 0.597656V17.3945H146.241C146.86 16.8411 147.413 16.3447 147.901 15.9053C148.406 15.4495 149.016 14.9938 149.732 14.5381C150.335 14.1475 151.116 13.8138 152.076 13.5371C153.053 13.2604 154.103 13.1221 155.226 13.1221C157.862 13.1221 159.84 13.8789 161.158 15.3926C162.493 16.9062 163.16 18.9001 163.16 21.374V33.3369C163.16 33.9391 163.25 34.4193 163.429 34.7773C163.608 35.1354 163.941 35.4202 164.43 35.6318C164.723 35.762 165.048 35.876 165.406 35.9736C165.764 36.0713 166.204 36.1527 166.725 36.2178V38ZM195.216 32.165C194.646 33.0928 193.954 33.9717 193.141 34.8018C192.343 35.6156 191.432 36.3154 190.406 36.9014C189.316 37.5199 188.209 37.9837 187.086 38.293C185.979 38.6185 184.701 38.7812 183.253 38.7812C180.844 38.7812 178.761 38.4395 177.003 37.7559C175.261 37.0723 173.821 36.1527 172.682 34.9971C171.542 33.8415 170.688 32.4824 170.118 30.9199C169.565 29.3411 169.288 27.6322 169.288 25.793C169.288 24.1328 169.589 22.5459 170.191 21.0322C170.81 19.5023 171.681 18.1432 172.804 16.9551C173.91 15.7995 175.302 14.8636 176.979 14.1475C178.671 13.4313 180.559 13.0732 182.643 13.0732C184.921 13.0732 186.793 13.3499 188.258 13.9033C189.723 14.4567 190.935 15.2217 191.896 16.1982C192.823 17.126 193.499 18.2246 193.922 19.4941C194.345 20.7474 194.557 22.0658 194.557 23.4492V25.0361H178.053C178.053 28.3727 178.696 30.9118 179.981 32.6533C181.267 34.3949 183.31 35.2656 186.109 35.2656C187.639 35.2656 189.015 34.8506 190.235 34.0205C191.456 33.1742 192.498 32.1081 193.36 30.8223L195.216 32.165ZM185.89 22.8877C185.89 21.9111 185.841 20.9102 185.743 19.8848C185.646 18.8594 185.475 18.0212 185.23 17.3701C184.954 16.6051 184.571 16.0273 184.083 15.6367C183.611 15.2461 183.009 15.0508 182.276 15.0508C181.023 15.0508 180.022 15.6855 179.273 16.9551C178.525 18.2246 178.118 20.2347 178.053 22.9854L185.89 22.8877ZM225.489 37.4873C224.773 37.7965 223.927 38.0814 222.95 38.3418C221.974 38.6022 220.94 38.7324 219.85 38.7324C217.848 38.7324 216.375 38.4395 215.431 37.8535C214.487 37.2513 213.844 36.3968 213.502 35.29H213.355C212.802 35.8434 212.265 36.3154 211.744 36.7061C211.24 37.0967 210.694 37.4303 210.108 37.707C209.343 38.0651 208.603 38.3255 207.887 38.4883C207.187 38.6673 206.202 38.7568 204.933 38.7568C203.045 38.7568 201.433 38.2035 200.099 37.0967C198.764 35.9736 198.097 34.4925 198.097 32.6533C198.097 31.5954 198.243 30.7002 198.536 29.9678C198.829 29.2191 199.244 28.5599 199.781 27.9902C200.27 27.4694 200.831 27.0381 201.466 26.6963C202.117 26.3545 202.825 26.0371 203.59 25.7441C205.055 25.207 206.812 24.6536 208.863 24.084C210.914 23.498 212.411 22.9772 213.355 22.5215V20.1777C213.355 19.7708 213.323 19.2337 213.258 18.5664C213.193 17.8991 213.054 17.3376 212.843 16.8818C212.615 16.361 212.257 15.9215 211.769 15.5635C211.28 15.2054 210.637 15.0264 209.84 15.0264C209.124 15.0264 208.521 15.1322 208.033 15.3438C207.561 15.5391 207.179 15.7425 206.886 15.9541C206.935 16.2796 207.073 16.776 207.301 17.4434C207.529 18.1107 207.643 18.7536 207.643 19.3721C207.643 19.6488 207.569 19.9987 207.423 20.4219C207.276 20.8288 207.065 21.1543 206.788 21.3984C206.414 21.724 205.991 21.9762 205.519 22.1553C205.063 22.3343 204.355 22.4238 203.395 22.4238C202.027 22.4238 200.994 22.0983 200.294 21.4473C199.594 20.7799 199.244 19.9173 199.244 18.8594C199.244 17.9479 199.602 17.1341 200.318 16.418C201.051 15.6855 201.938 15.0833 202.979 14.6113C204.005 14.123 205.185 13.7487 206.52 13.4883C207.854 13.2116 209.091 13.0732 210.23 13.0732C211.809 13.0732 213.258 13.1709 214.576 13.3662C215.895 13.5452 217.083 13.9277 218.141 14.5137C219.15 15.0833 219.947 15.9134 220.533 17.0039C221.135 18.0781 221.437 19.486 221.437 21.2275C221.437 23.0667 221.396 25.2477 221.314 27.7705C221.249 30.2933 221.217 31.9535 221.217 32.751C221.217 33.4834 221.323 34.0612 221.534 34.4844C221.762 34.9076 222.104 35.2249 222.56 35.4365C222.836 35.5667 223.268 35.6481 223.854 35.6807C224.456 35.6969 225.001 35.7051 225.489 35.7051V37.4873ZM213.355 24.7676C212.444 25.0768 211.541 25.4349 210.646 25.8418C209.75 26.2324 209.018 26.6475 208.448 27.0869C207.846 27.5426 207.374 28.1286 207.032 28.8447C206.69 29.5446 206.52 30.3747 206.52 31.335C206.52 32.6045 206.804 33.5241 207.374 34.0938C207.96 34.6634 208.676 34.9482 209.522 34.9482C210.418 34.9482 211.15 34.7692 211.72 34.4111C212.306 34.0368 212.818 33.5811 213.258 33.0439L213.355 24.7676ZM251.686 18.249C251.686 19.486 251.303 20.5765 250.538 21.5205C249.773 22.4482 248.764 22.9121 247.511 22.9121C246.323 22.9121 245.313 22.611 244.483 22.0088C243.67 21.4066 243.263 20.5195 243.263 19.3477C243.263 18.778 243.303 18.3385 243.385 18.0293C243.466 17.7038 243.539 17.4027 243.604 17.126C242.856 17.1585 242.066 17.4189 241.236 17.9072C240.406 18.3955 239.674 19.0465 239.039 19.8604V33.2637C239.039 33.8333 239.129 34.3053 239.308 34.6797C239.487 35.054 239.788 35.347 240.211 35.5586C240.569 35.7376 241.147 35.8923 241.944 36.0225C242.758 36.1364 243.344 36.2015 243.702 36.2178V38H227.369V36.2178C227.776 36.1852 228.183 36.1445 228.59 36.0957C229.013 36.0306 229.371 35.9492 229.664 35.8516C230.185 35.6725 230.543 35.3958 230.738 35.0215C230.934 34.6471 231.031 34.1589 231.031 33.5566V19.3477C231.031 18.7617 230.893 18.2409 230.616 17.7852C230.34 17.3132 230.006 16.9388 229.615 16.6621C229.322 16.4668 228.948 16.304 228.492 16.1738C228.053 16.0436 227.564 15.9541 227.027 15.9053V14.123L238.673 13.4883L239.039 13.8545V17.3945H239.137C240.26 16.0924 241.448 15.0752 242.701 14.3428C243.971 13.5941 245.289 13.2197 246.656 13.2197C248.17 13.2197 249.382 13.6917 250.294 14.6357C251.222 15.5635 251.686 16.7679 251.686 18.249ZM293.995 37.4873C293.279 37.7965 292.433 38.0814 291.456 38.3418C290.479 38.6022 289.446 38.7324 288.355 38.7324C286.354 38.7324 284.881 38.4395 283.937 37.8535C282.993 37.2513 282.35 36.3968 282.008 35.29H281.861C281.308 35.8434 280.771 36.3154 280.25 36.7061C279.745 37.0967 279.2 37.4303 278.614 37.707C277.849 38.0651 277.109 38.3255 276.393 38.4883C275.693 38.6673 274.708 38.7568 273.438 38.7568C271.55 38.7568 269.939 38.2035 268.604 37.0967C267.27 35.9736 266.603 34.4925 266.603 32.6533C266.603 31.5954 266.749 30.7002 267.042 29.9678C267.335 29.2191 267.75 28.5599 268.287 27.9902C268.775 27.4694 269.337 27.0381 269.972 26.6963C270.623 26.3545 271.331 26.0371 272.096 25.7441C273.561 25.207 275.318 24.6536 277.369 24.084C279.42 23.498 280.917 22.9772 281.861 22.5215V20.1777C281.861 19.7708 281.829 19.2337 281.764 18.5664C281.699 17.8991 281.56 17.3376 281.349 16.8818C281.121 16.361 280.763 15.9215 280.274 15.5635C279.786 15.2054 279.143 15.0264 278.346 15.0264C277.63 15.0264 277.027 15.1322 276.539 15.3438C276.067 15.5391 275.685 15.7425 275.392 15.9541C275.44 16.2796 275.579 16.776 275.807 17.4434C276.035 18.1107 276.148 18.7536 276.148 19.3721C276.148 19.6488 276.075 19.9987 275.929 20.4219C275.782 20.8288 275.571 21.1543 275.294 21.3984C274.92 21.724 274.496 21.9762 274.024 22.1553C273.569 22.3343 272.861 22.4238 271.9 22.4238C270.533 22.4238 269.5 22.0983 268.8 21.4473C268.1 20.7799 267.75 19.9173 267.75 18.8594C267.75 17.9479 268.108 17.1341 268.824 16.418C269.557 15.6855 270.444 15.0833 271.485 14.6113C272.511 14.123 273.691 13.7487 275.025 13.4883C276.36 13.2116 277.597 13.0732 278.736 13.0732C280.315 13.0732 281.764 13.1709 283.082 13.3662C284.4 13.5452 285.589 13.9277 286.646 14.5137C287.656 15.0833 288.453 15.9134 289.039 17.0039C289.641 18.0781 289.942 19.486 289.942 21.2275C289.942 23.0667 289.902 25.2477 289.82 27.7705C289.755 30.2933 289.723 31.9535 289.723 32.751C289.723 33.4834 289.828 34.0612 290.04 34.4844C290.268 34.9076 290.61 35.2249 291.065 35.4365C291.342 35.5667 291.773 35.6481 292.359 35.6807C292.962 35.6969 293.507 35.7051 293.995 35.7051V37.4873ZM281.861 24.7676C280.95 25.0768 280.047 25.4349 279.151 25.8418C278.256 26.2324 277.524 26.6475 276.954 27.0869C276.352 27.5426 275.88 28.1286 275.538 28.8447C275.196 29.5446 275.025 30.3747 275.025 31.335C275.025 32.6045 275.31 33.5241 275.88 34.0938C276.466 34.6634 277.182 34.9482 278.028 34.9482C278.924 34.9482 279.656 34.7692 280.226 34.4111C280.812 34.0368 281.324 33.5811 281.764 33.0439L281.861 24.7676ZM325.001 26.0615C325.001 29.7236 323.788 32.7591 321.363 35.168C318.954 37.5768 315.895 38.7812 312.184 38.7812C310.751 38.7812 309.514 38.6755 308.473 38.4639C307.447 38.2686 306.576 38.0244 305.86 37.7314C305.112 37.4222 304.509 37.1211 304.054 36.8281C303.614 36.5189 303.264 36.2666 303.004 36.0713L299.513 39.2451L298.072 38.6836C298.154 37.4954 298.219 36.2096 298.268 34.8262C298.333 33.4264 298.365 31.5465 298.365 29.1865V6.33496C298.365 5.71647 298.235 5.14681 297.975 4.62598C297.73 4.08887 297.397 3.68197 296.974 3.40527C296.664 3.20996 296.209 3.03906 295.606 2.89258C295.021 2.74609 294.475 2.65658 293.971 2.62402V0.841797L306.031 0.207031L306.397 0.597656V16.4668H306.544C307.732 15.3112 308.953 14.4648 310.206 13.9277C311.459 13.3906 312.713 13.1221 313.966 13.1221C317.384 13.1221 320.077 14.2858 322.047 16.6133C324.016 18.9408 325.001 22.0902 325.001 26.0615ZM316.236 26.3545C316.236 25.1175 316.139 23.9294 315.943 22.79C315.764 21.6344 315.455 20.6172 315.016 19.7383C314.576 18.8594 313.998 18.1595 313.282 17.6387C312.566 17.1016 311.679 16.833 310.621 16.833C309.628 16.833 308.806 16.9958 308.155 17.3213C307.504 17.6468 306.918 18.127 306.397 18.7617V32.9707C306.495 33.2962 306.674 33.7275 306.935 34.2646C307.211 34.7855 307.488 35.1924 307.765 35.4854C308.155 35.9085 308.57 36.234 309.01 36.4619C309.449 36.6735 310.068 36.7793 310.865 36.7793C312.525 36.7793 313.836 35.876 314.796 34.0693C315.756 32.2464 316.236 29.6748 316.236 26.3545ZM353.077 16.6621C354.282 17.7852 355.201 19.1279 355.836 20.6904C356.471 22.2529 356.788 23.9456 356.788 25.7686C356.788 27.5752 356.471 29.2842 355.836 30.8955C355.217 32.4906 354.306 33.8577 353.102 34.9971C351.816 36.2178 350.278 37.1536 348.487 37.8047C346.713 38.4557 344.679 38.7812 342.384 38.7812C340.398 38.7812 338.567 38.4964 336.891 37.9268C335.23 37.3571 333.757 36.5026 332.472 35.3633C331.235 34.2728 330.258 32.93 329.542 31.335C328.826 29.7236 328.468 27.9251 328.468 25.9395C328.468 23.9863 328.777 22.2529 329.396 20.7393C330.03 19.2093 330.974 17.8503 332.228 16.6621C333.432 15.5228 334.913 14.6439 336.671 14.0254C338.445 13.3906 340.423 13.0732 342.604 13.0732C344.882 13.0732 346.884 13.3906 348.609 14.0254C350.351 14.6439 351.84 15.5228 353.077 16.6621ZM346.827 33.5811C347.185 32.6696 347.446 31.5628 347.608 30.2607C347.787 28.9587 347.877 27.445 347.877 25.7197C347.877 24.5804 347.796 23.2783 347.633 21.8135C347.47 20.3486 347.226 19.193 346.9 18.3467C346.51 17.3213 345.965 16.5156 345.265 15.9297C344.581 15.3438 343.71 15.0508 342.652 15.0508C341.497 15.0508 340.569 15.3682 339.869 16.0029C339.186 16.6377 338.657 17.4596 338.282 18.4688C337.94 19.3965 337.704 20.487 337.574 21.7402C337.444 22.9772 337.379 24.2712 337.379 25.6221C337.379 27.3962 337.436 28.8691 337.55 30.041C337.664 31.1966 337.94 32.3604 338.38 33.5322C338.754 34.5413 339.291 35.3389 339.991 35.9248C340.691 36.5107 341.578 36.8037 342.652 36.8037C343.629 36.8037 344.467 36.5352 345.167 35.998C345.867 35.4447 346.42 34.639 346.827 33.5811ZM391.798 37.4873L380.152 38.1953L379.786 37.8535V34.6553H379.64C379.086 35.1598 378.541 35.6562 378.004 36.1445C377.483 36.6165 376.856 37.0479 376.124 37.4385C375.294 37.8779 374.505 38.2035 373.756 38.415C373.023 38.6266 371.949 38.7324 370.533 38.7324C368.076 38.7324 366.188 37.9919 364.869 36.5107C363.567 35.0296 362.916 32.9382 362.916 30.2363V19.25C362.916 18.6152 362.794 18.1025 362.55 17.7119C362.306 17.305 361.98 16.9469 361.573 16.6377C361.248 16.3936 360.825 16.2227 360.304 16.125C359.783 16.0111 359.311 15.9378 358.888 15.9053V14.123L370.729 13.4883L370.997 13.8545V30.0898C370.997 31.7663 371.314 33.0033 371.949 33.8008C372.6 34.5983 373.487 34.9971 374.61 34.9971C375.766 34.9971 376.799 34.696 377.711 34.0938C378.639 33.4915 379.314 32.8486 379.737 32.165V19.0059C379.737 18.4525 379.632 17.9561 379.42 17.5166C379.208 17.0771 378.899 16.7191 378.492 16.4424C378.199 16.2471 377.776 16.1169 377.223 16.0518C376.686 15.9867 376.132 15.9378 375.562 15.9053V14.123L387.403 13.4883L387.77 13.8545V32.7021C387.77 33.2718 387.883 33.7601 388.111 34.167C388.339 34.5576 388.673 34.8913 389.112 35.168C389.422 35.3633 389.82 35.5016 390.309 35.583C390.813 35.6481 391.31 35.6888 391.798 35.7051V37.4873ZM411.939 36.877C410.898 37.3327 409.783 37.7396 408.595 38.0977C407.407 38.472 405.958 38.6592 404.249 38.6592C401.71 38.6592 399.822 38.0407 398.585 36.8037C397.364 35.5667 396.754 33.8008 396.754 31.5059V16.5156H392.359V13.8789H396.852V6.48145H404.786V13.8789H411.622V16.5156H404.835V29.8945C404.835 31.7988 405.095 33.1497 405.616 33.9473C406.153 34.7448 407.105 35.1436 408.473 35.1436C408.912 35.1436 409.522 35.111 410.304 35.0459C411.085 34.9808 411.63 34.9076 411.939 34.8262V36.877ZM41.3828 117H27.6621C25.5951 113.826 23.7314 111.173 22.0713 109.041C20.4111 106.909 18.2871 104.231 15.6992 101.009H14.4297V111.897C14.4297 112.483 14.5355 112.98 14.7471 113.387C14.9587 113.794 15.3818 114.135 16.0166 114.412C16.3096 114.542 16.7409 114.673 17.3105 114.803C17.8965 114.933 18.4743 115.031 19.0439 115.096V117H0.635742V115.096C1.0752 115.063 1.69368 115.014 2.49121 114.949C3.30501 114.884 3.87467 114.786 4.2002 114.656C4.78613 114.428 5.19303 114.111 5.4209 113.704C5.64876 113.297 5.7627 112.785 5.7627 112.166V87.6055C5.7627 87.0358 5.66504 86.5557 5.46973 86.165C5.27441 85.7744 4.85124 85.4245 4.2002 85.1152C3.69564 84.8874 3.08529 84.7002 2.36914 84.5537C1.65299 84.4072 1.0752 84.3096 0.635742 84.2607V82.3564H19.6543V84.2607C19.1497 84.3096 18.5394 84.3828 17.8232 84.4805C17.1234 84.5618 16.5212 84.6839 16.0166 84.8467C15.3818 85.0583 14.9587 85.3919 14.7471 85.8477C14.5355 86.3034 14.4297 86.8079 14.4297 87.3613V99.0312H15.4551C16.7246 97.8757 18.2057 96.484 19.8984 94.8564C21.5911 93.2288 22.9014 91.8942 23.8291 90.8525C25.1312 89.404 26.0833 88.2565 26.6855 87.4102C27.304 86.5638 27.6133 85.8314 27.6133 85.2129C27.6133 84.9362 27.3203 84.7246 26.7344 84.5781C26.1484 84.4316 25.2533 84.3258 24.0488 84.2607V82.3564H39.1123V84.2607C37.2894 84.4561 35.7594 84.7897 34.5225 85.2617C33.2855 85.7174 32.0566 86.4906 30.8359 87.5811C29.0944 89.1436 27.654 90.5026 26.5146 91.6582C25.3916 92.7975 23.943 94.2624 22.1689 96.0527C23.7314 97.957 25.6113 100.293 27.8086 103.06C30.0059 105.81 32.195 108.496 34.376 111.116C34.9294 111.784 35.5641 112.426 36.2803 113.045C36.9964 113.647 37.7858 114.135 38.6484 114.51C39.0553 114.689 39.5192 114.827 40.04 114.925C40.5609 115.022 41.0085 115.079 41.3828 115.096V117ZM69.1904 116.487C68.4743 116.797 67.6279 117.081 66.6514 117.342C65.6748 117.602 64.6413 117.732 63.5508 117.732C61.5488 117.732 60.0758 117.439 59.1318 116.854C58.1878 116.251 57.5449 115.397 57.2031 114.29H57.0566C56.5033 114.843 55.9661 115.315 55.4453 115.706C54.9408 116.097 54.3955 116.43 53.8096 116.707C53.0446 117.065 52.304 117.326 51.5879 117.488C50.888 117.667 49.9033 117.757 48.6338 117.757C46.7458 117.757 45.1344 117.203 43.7998 116.097C42.4652 114.974 41.7979 113.493 41.7979 111.653C41.7979 110.595 41.9443 109.7 42.2373 108.968C42.5303 108.219 42.9453 107.56 43.4824 106.99C43.9707 106.469 44.5322 106.038 45.167 105.696C45.818 105.354 46.526 105.037 47.291 104.744C48.7559 104.207 50.5137 103.654 52.5645 103.084C54.6152 102.498 56.1126 101.977 57.0566 101.521V99.1777C57.0566 98.7708 57.0241 98.2337 56.959 97.5664C56.8939 96.8991 56.7555 96.3376 56.5439 95.8818C56.3161 95.361 55.958 94.9215 55.4697 94.5635C54.9814 94.2054 54.3385 94.0264 53.541 94.0264C52.8249 94.0264 52.2227 94.1322 51.7344 94.3438C51.2624 94.5391 50.8799 94.7425 50.5869 94.9541C50.6357 95.2796 50.7741 95.776 51.002 96.4434C51.2298 97.1107 51.3438 97.7536 51.3438 98.3721C51.3438 98.6488 51.2705 98.9987 51.124 99.4219C50.9775 99.8288 50.766 100.154 50.4893 100.398C50.1149 100.724 49.6917 100.976 49.2197 101.155C48.764 101.334 48.056 101.424 47.0957 101.424C45.7285 101.424 44.695 101.098 43.9951 100.447C43.2952 99.7799 42.9453 98.9173 42.9453 97.8594C42.9453 96.9479 43.3034 96.1341 44.0195 95.418C44.752 94.6855 45.639 94.0833 46.6807 93.6113C47.7061 93.123 48.8861 92.7487 50.2207 92.4883C51.5553 92.2116 52.7923 92.0732 53.9316 92.0732C55.5104 92.0732 56.959 92.1709 58.2773 92.3662C59.5957 92.5452 60.7839 92.9277 61.8418 93.5137C62.8509 94.0833 63.6484 94.9134 64.2344 96.0039C64.8366 97.0781 65.1377 98.486 65.1377 100.228C65.1377 102.067 65.097 104.248 65.0156 106.771C64.9505 109.293 64.918 110.953 64.918 111.751C64.918 112.483 65.0238 113.061 65.2354 113.484C65.4632 113.908 65.805 114.225 66.2607 114.437C66.5374 114.567 66.9688 114.648 67.5547 114.681C68.1569 114.697 68.7021 114.705 69.1904 114.705V116.487ZM57.0566 103.768C56.1452 104.077 55.2419 104.435 54.3467 104.842C53.4515 105.232 52.7191 105.647 52.1494 106.087C51.5472 106.543 51.0752 107.129 50.7334 107.845C50.3916 108.545 50.2207 109.375 50.2207 110.335C50.2207 111.604 50.5055 112.524 51.0752 113.094C51.6611 113.663 52.3773 113.948 53.2236 113.948C54.1188 113.948 54.8512 113.769 55.4209 113.411C56.0068 113.037 56.5195 112.581 56.959 112.044L57.0566 103.768ZM98.6582 94.5635C97.9258 94.6774 97.2096 94.9541 96.5098 95.3936C95.8262 95.833 95.2565 96.5166 94.8008 97.4443C93.401 100.407 91.9606 103.564 90.4795 106.917C88.9984 110.254 87.3545 113.867 85.5479 117.757C84.5387 119.938 83.5622 121.679 82.6182 122.981C81.6742 124.284 80.7871 125.285 79.957 125.984C79.1758 126.635 78.4027 127.107 77.6377 127.4C76.8727 127.693 76.0996 127.84 75.3184 127.84C73.7721 127.84 72.5189 127.409 71.5586 126.546C70.6146 125.683 70.1426 124.715 70.1426 123.641C70.1426 123.185 70.1914 122.762 70.2891 122.371C70.403 121.98 70.6309 121.574 70.9727 121.15C71.2331 120.792 71.6318 120.483 72.1689 120.223C72.7223 119.979 73.3408 119.856 74.0244 119.856C74.9359 119.856 75.8066 120.174 76.6367 120.809C77.4668 121.443 78.3294 122.322 79.2246 123.445C79.7617 122.908 80.4209 122.103 81.2021 121.028C81.9997 119.97 82.5856 118.88 82.96 117.757C81.0231 113.688 79.306 110.164 77.8086 107.186C76.3112 104.191 74.6348 100.854 72.7793 97.1758C72.3724 96.3945 71.8271 95.7923 71.1436 95.3691C70.46 94.9297 69.7357 94.6611 68.9707 94.5635V92.7812H83.9121V94.5635C83.3587 94.5798 82.7158 94.7018 81.9834 94.9297C81.2673 95.1576 80.9092 95.4505 80.9092 95.8086C80.9092 95.9388 80.9336 96.0853 80.9824 96.248C81.0312 96.3945 81.1208 96.6143 81.251 96.9072C81.8044 98.0465 82.5856 99.6335 83.5947 101.668C84.6201 103.686 85.8083 106.054 87.1592 108.772C88.1683 106.461 89.0228 104.476 89.7227 102.815C90.4388 101.139 91.1305 99.4951 91.7979 97.8838C91.9606 97.4769 92.0501 97.1595 92.0664 96.9316C92.099 96.6875 92.1152 96.5247 92.1152 96.4434C92.1152 96.1504 91.9688 95.8981 91.6758 95.6865C91.3991 95.4587 91.0654 95.2633 90.6748 95.1006C90.2679 94.9378 89.8773 94.8158 89.5029 94.7344C89.1286 94.653 88.8193 94.596 88.5752 94.5635V92.7812H98.6582V94.5635ZM114.063 117H98.7559V115.218C99.179 115.185 99.5859 115.145 99.9766 115.096C100.383 115.047 100.742 114.965 101.051 114.852C101.572 114.656 101.922 114.38 102.101 114.021C102.296 113.647 102.394 113.159 102.394 112.557V85.5059C102.394 84.8874 102.263 84.3177 102.003 83.7969C101.759 83.2598 101.425 82.8529 101.002 82.5762C100.676 82.3646 100.18 82.1611 99.5127 81.9658C98.8617 81.7705 98.2839 81.6566 97.7793 81.624V79.8418L110.06 79.207L110.426 79.5977V112.239C110.426 112.841 110.532 113.33 110.743 113.704C110.955 114.078 111.297 114.371 111.769 114.583C112.094 114.729 112.436 114.86 112.794 114.974C113.152 115.088 113.575 115.169 114.063 115.218V117ZM144.337 116.487C143.621 116.797 142.774 117.081 141.798 117.342C140.821 117.602 139.788 117.732 138.697 117.732C136.695 117.732 135.222 117.439 134.278 116.854C133.334 116.251 132.691 115.397 132.35 114.29H132.203C131.65 114.843 131.113 115.315 130.592 115.706C130.087 116.097 129.542 116.43 128.956 116.707C128.191 117.065 127.451 117.326 126.734 117.488C126.035 117.667 125.05 117.757 123.78 117.757C121.892 117.757 120.281 117.203 118.946 116.097C117.612 114.974 116.944 113.493 116.944 111.653C116.944 110.595 117.091 109.7 117.384 108.968C117.677 108.219 118.092 107.56 118.629 106.99C119.117 106.469 119.679 106.038 120.313 105.696C120.965 105.354 121.673 105.037 122.438 104.744C123.902 104.207 125.66 103.654 127.711 103.084C129.762 102.498 131.259 101.977 132.203 101.521V99.1777C132.203 98.7708 132.171 98.2337 132.105 97.5664C132.04 96.8991 131.902 96.3376 131.69 95.8818C131.463 95.361 131.104 94.9215 130.616 94.5635C130.128 94.2054 129.485 94.0264 128.688 94.0264C127.971 94.0264 127.369 94.1322 126.881 94.3438C126.409 94.5391 126.026 94.7425 125.733 94.9541C125.782 95.2796 125.921 95.776 126.148 96.4434C126.376 97.1107 126.49 97.7536 126.49 98.3721C126.49 98.6488 126.417 98.9987 126.271 99.4219C126.124 99.8288 125.912 100.154 125.636 100.398C125.261 100.724 124.838 100.976 124.366 101.155C123.91 101.334 123.202 101.424 122.242 101.424C120.875 101.424 119.841 101.098 119.142 100.447C118.442 99.7799 118.092 98.9173 118.092 97.8594C118.092 96.9479 118.45 96.1341 119.166 95.418C119.898 94.6855 120.785 94.0833 121.827 93.6113C122.853 93.123 124.033 92.7487 125.367 92.4883C126.702 92.2116 127.939 92.0732 129.078 92.0732C130.657 92.0732 132.105 92.1709 133.424 92.3662C134.742 92.5452 135.93 92.9277 136.988 93.5137C137.997 94.0833 138.795 94.9134 139.381 96.0039C139.983 97.0781 140.284 98.486 140.284 100.228C140.284 102.067 140.243 104.248 140.162 106.771C140.097 109.293 140.064 110.953 140.064 111.751C140.064 112.483 140.17 113.061 140.382 113.484C140.61 113.908 140.951 114.225 141.407 114.437C141.684 114.567 142.115 114.648 142.701 114.681C143.303 114.697 143.849 114.705 144.337 114.705V116.487ZM132.203 103.768C131.292 104.077 130.388 104.435 129.493 104.842C128.598 105.232 127.866 105.647 127.296 106.087C126.694 106.543 126.222 107.129 125.88 107.845C125.538 108.545 125.367 109.375 125.367 110.335C125.367 111.604 125.652 112.524 126.222 113.094C126.808 113.663 127.524 113.948 128.37 113.948C129.265 113.948 129.998 113.769 130.567 113.411C131.153 113.037 131.666 112.581 132.105 112.044L132.203 103.768ZM155.567 83.5771C155.567 84.4723 155.169 86.2139 154.371 88.8018C153.59 91.3734 152.923 94.0752 152.369 96.9072H150.685C150.115 94.0752 149.439 91.3734 148.658 88.8018C147.877 86.2139 147.486 84.4723 147.486 83.5771C147.486 82.5355 147.836 81.624 148.536 80.8428C149.236 80.0615 150.237 79.6709 151.539 79.6709C152.809 79.6709 153.793 80.0615 154.493 80.8428C155.209 81.624 155.567 82.5355 155.567 83.5771ZM170.997 117.83C169.418 117.83 167.872 117.594 166.358 117.122C164.861 116.666 163.697 116.178 162.867 115.657L162.135 117.317H160.23L159.913 108.211H161.695C161.939 108.943 162.346 109.773 162.916 110.701C163.486 111.613 164.137 112.435 164.869 113.167C165.634 113.899 166.505 114.518 167.481 115.022C168.474 115.527 169.532 115.779 170.655 115.779C172.136 115.779 173.235 115.494 173.951 114.925C174.684 114.339 175.05 113.444 175.05 112.239C175.05 111.588 174.887 111.051 174.562 110.628C174.236 110.205 173.788 109.839 173.219 109.529C172.584 109.204 171.884 108.927 171.119 108.699C170.37 108.471 169.443 108.195 168.336 107.869C167.229 107.544 166.277 107.218 165.479 106.893C164.698 106.551 163.884 106.022 163.038 105.306C162.306 104.671 161.72 103.906 161.28 103.011C160.841 102.116 160.621 101.049 160.621 99.8125C160.621 97.5176 161.581 95.6621 163.502 94.2461C165.439 92.8301 167.97 92.1221 171.095 92.1221C172.576 92.1221 173.935 92.2767 175.172 92.5859C176.425 92.8789 177.475 93.2044 178.321 93.5625L178.834 92.1221H180.689L181.08 100.447H179.347C178.777 98.7546 177.8 97.2979 176.417 96.0771C175.034 94.8402 173.544 94.2217 171.949 94.2217C170.696 94.2217 169.711 94.4821 168.995 95.0029C168.279 95.5238 167.921 96.248 167.921 97.1758C167.921 98.4128 168.442 99.3079 169.483 99.8613C170.541 100.415 172.014 100.936 173.902 101.424C176.816 102.173 178.948 103.198 180.299 104.5C181.65 105.786 182.325 107.43 182.325 109.432C182.325 112.101 181.275 114.168 179.176 115.633C177.092 117.098 174.366 117.83 170.997 117.83ZM209.327 117.83C207.748 117.83 206.202 117.594 204.688 117.122C203.191 116.666 202.027 116.178 201.197 115.657L200.465 117.317H198.561L198.243 108.211H200.025C200.27 108.943 200.676 109.773 201.246 110.701C201.816 111.613 202.467 112.435 203.199 113.167C203.964 113.899 204.835 114.518 205.812 115.022C206.804 115.527 207.862 115.779 208.985 115.779C210.466 115.779 211.565 115.494 212.281 114.925C213.014 114.339 213.38 113.444 213.38 112.239C213.38 111.588 213.217 111.051 212.892 110.628C212.566 110.205 212.118 109.839 211.549 109.529C210.914 109.204 210.214 108.927 209.449 108.699C208.701 108.471 207.773 108.195 206.666 107.869C205.559 107.544 204.607 107.218 203.81 106.893C203.028 106.551 202.215 106.022 201.368 105.306C200.636 104.671 200.05 103.906 199.61 103.011C199.171 102.116 198.951 101.049 198.951 99.8125C198.951 97.5176 199.911 95.6621 201.832 94.2461C203.769 92.8301 206.3 92.1221 209.425 92.1221C210.906 92.1221 212.265 92.2767 213.502 92.5859C214.755 92.8789 215.805 93.2044 216.651 93.5625L217.164 92.1221H219.02L219.41 100.447H217.677C217.107 98.7546 216.131 97.2979 214.747 96.0771C213.364 94.8402 211.874 94.2217 210.279 94.2217C209.026 94.2217 208.041 94.4821 207.325 95.0029C206.609 95.5238 206.251 96.248 206.251 97.1758C206.251 98.4128 206.772 99.3079 207.813 99.8613C208.871 100.415 210.344 100.936 212.232 101.424C215.146 102.173 217.278 103.198 218.629 104.5C219.98 105.786 220.655 107.43 220.655 109.432C220.655 112.101 219.605 114.168 217.506 115.633C215.423 117.098 212.696 117.83 209.327 117.83ZM255.519 116.487L243.873 117.195L243.507 116.854V113.655H243.36C242.807 114.16 242.262 114.656 241.725 115.145C241.204 115.617 240.577 116.048 239.845 116.438C239.015 116.878 238.225 117.203 237.477 117.415C236.744 117.627 235.67 117.732 234.254 117.732C231.796 117.732 229.908 116.992 228.59 115.511C227.288 114.03 226.637 111.938 226.637 109.236V98.25C226.637 97.6152 226.515 97.1025 226.271 96.7119C226.026 96.305 225.701 95.9469 225.294 95.6377C224.968 95.3936 224.545 95.2227 224.024 95.125C223.504 95.0111 223.032 94.9378 222.608 94.9053V93.123L234.449 92.4883L234.718 92.8545V109.09C234.718 110.766 235.035 112.003 235.67 112.801C236.321 113.598 237.208 113.997 238.331 113.997C239.487 113.997 240.52 113.696 241.432 113.094C242.359 112.492 243.035 111.849 243.458 111.165V98.0059C243.458 97.4525 243.352 96.9561 243.141 96.5166C242.929 96.0771 242.62 95.7191 242.213 95.4424C241.92 95.2471 241.497 95.1169 240.943 95.0518C240.406 94.9867 239.853 94.9378 239.283 94.9053V93.123L251.124 92.4883L251.49 92.8545V111.702C251.49 112.272 251.604 112.76 251.832 113.167C252.06 113.558 252.394 113.891 252.833 114.168C253.142 114.363 253.541 114.502 254.029 114.583C254.534 114.648 255.03 114.689 255.519 114.705V116.487ZM271.437 117.781C269.174 117.781 267.172 117.456 265.431 116.805C263.705 116.137 262.281 115.234 261.158 114.095C260.035 112.939 259.197 111.572 258.644 109.993C258.09 108.414 257.813 106.697 257.813 104.842C257.813 103.149 258.147 101.538 258.814 100.008C259.498 98.4779 260.418 97.1351 261.573 95.9795C262.761 94.7913 264.234 93.8473 265.992 93.1475C267.766 92.4313 269.719 92.0732 271.852 92.0732C274.846 92.0732 277.215 92.6429 278.956 93.7822C280.698 94.9053 281.568 96.4271 281.568 98.3477C281.568 99.5195 281.259 100.464 280.641 101.18C280.022 101.896 278.956 102.254 277.442 102.254C276.222 102.254 275.196 101.961 274.366 101.375C273.552 100.789 273.146 100.024 273.146 99.0801C273.146 98.2826 273.276 97.4932 273.536 96.7119C273.797 95.9307 273.951 95.3366 274 94.9297C273.821 94.6367 273.593 94.417 273.316 94.2705C273.04 94.1077 272.608 94.0264 272.022 94.0264C271.29 94.0264 270.623 94.1973 270.021 94.5391C269.418 94.8809 268.857 95.4831 268.336 96.3457C267.831 97.1595 267.424 98.25 267.115 99.6172C266.822 100.984 266.676 102.628 266.676 104.549C266.676 107.446 267.351 109.782 268.702 111.556C270.069 113.33 271.697 114.217 273.585 114.217C275.392 114.217 276.824 113.818 277.882 113.021C278.956 112.207 279.908 111.059 280.738 109.578L282.569 110.848C282.065 111.84 281.463 112.752 280.763 113.582C280.063 114.396 279.225 115.12 278.248 115.755C277.223 116.422 276.181 116.927 275.123 117.269C274.065 117.61 272.836 117.781 271.437 117.781ZM297.999 117.781C295.737 117.781 293.735 117.456 291.993 116.805C290.268 116.137 288.844 115.234 287.721 114.095C286.598 112.939 285.759 111.572 285.206 109.993C284.653 108.414 284.376 106.697 284.376 104.842C284.376 103.149 284.71 101.538 285.377 100.008C286.061 98.4779 286.98 97.1351 288.136 95.9795C289.324 94.7913 290.797 93.8473 292.555 93.1475C294.329 92.4313 296.282 92.0732 298.414 92.0732C301.409 92.0732 303.777 92.6429 305.519 93.7822C307.26 94.9053 308.131 96.4271 308.131 98.3477C308.131 99.5195 307.822 100.464 307.203 101.18C306.585 101.896 305.519 102.254 304.005 102.254C302.784 102.254 301.759 101.961 300.929 101.375C300.115 100.789 299.708 100.024 299.708 99.0801C299.708 98.2826 299.838 97.4932 300.099 96.7119C300.359 95.9307 300.514 95.3366 300.562 94.9297C300.383 94.6367 300.156 94.417 299.879 94.2705C299.602 94.1077 299.171 94.0264 298.585 94.0264C297.853 94.0264 297.185 94.1973 296.583 94.5391C295.981 94.8809 295.419 95.4831 294.898 96.3457C294.394 97.1595 293.987 98.25 293.678 99.6172C293.385 100.984 293.238 102.628 293.238 104.549C293.238 107.446 293.914 109.782 295.265 111.556C296.632 113.33 298.259 114.217 300.147 114.217C301.954 114.217 303.386 113.818 304.444 113.021C305.519 112.207 306.471 111.059 307.301 109.578L309.132 110.848C308.627 111.84 308.025 112.752 307.325 113.582C306.625 114.396 305.787 115.12 304.811 115.755C303.785 116.422 302.743 116.927 301.686 117.269C300.628 117.61 299.399 117.781 297.999 117.781ZM336.866 111.165C336.297 112.093 335.605 112.972 334.791 113.802C333.993 114.616 333.082 115.315 332.057 115.901C330.966 116.52 329.859 116.984 328.736 117.293C327.63 117.618 326.352 117.781 324.903 117.781C322.494 117.781 320.411 117.439 318.653 116.756C316.912 116.072 315.471 115.153 314.332 113.997C313.193 112.841 312.338 111.482 311.769 109.92C311.215 108.341 310.938 106.632 310.938 104.793C310.938 103.133 311.24 101.546 311.842 100.032C312.46 98.5023 313.331 97.1432 314.454 95.9551C315.561 94.7995 316.952 93.8636 318.629 93.1475C320.322 92.4313 322.21 92.0732 324.293 92.0732C326.572 92.0732 328.443 92.3499 329.908 92.9033C331.373 93.4567 332.586 94.2217 333.546 95.1982C334.474 96.126 335.149 97.2246 335.572 98.4941C335.995 99.7474 336.207 101.066 336.207 102.449V104.036H319.703C319.703 107.373 320.346 109.912 321.632 111.653C322.918 113.395 324.96 114.266 327.76 114.266C329.29 114.266 330.665 113.851 331.886 113.021C333.106 112.174 334.148 111.108 335.011 109.822L336.866 111.165ZM327.54 101.888C327.54 100.911 327.491 99.9102 327.394 98.8848C327.296 97.8594 327.125 97.0212 326.881 96.3701C326.604 95.6051 326.222 95.0273 325.733 94.6367C325.261 94.2461 324.659 94.0508 323.927 94.0508C322.674 94.0508 321.673 94.6855 320.924 95.9551C320.175 97.2246 319.768 99.2347 319.703 101.985L327.54 101.888ZM350.538 117.83C348.959 117.83 347.413 117.594 345.899 117.122C344.402 116.666 343.238 116.178 342.408 115.657L341.676 117.317H339.771L339.454 108.211H341.236C341.48 108.943 341.887 109.773 342.457 110.701C343.027 111.613 343.678 112.435 344.41 113.167C345.175 113.899 346.046 114.518 347.022 115.022C348.015 115.527 349.073 115.779 350.196 115.779C351.677 115.779 352.776 115.494 353.492 114.925C354.225 114.339 354.591 113.444 354.591 112.239C354.591 111.588 354.428 111.051 354.103 110.628C353.777 110.205 353.329 109.839 352.76 109.529C352.125 109.204 351.425 108.927 350.66 108.699C349.911 108.471 348.984 108.195 347.877 107.869C346.77 107.544 345.818 107.218 345.021 106.893C344.239 106.551 343.425 106.022 342.579 105.306C341.847 104.671 341.261 103.906 340.821 103.011C340.382 102.116 340.162 101.049 340.162 99.8125C340.162 97.5176 341.122 95.6621 343.043 94.2461C344.98 92.8301 347.511 92.1221 350.636 92.1221C352.117 92.1221 353.476 92.2767 354.713 92.5859C355.966 92.8789 357.016 93.2044 357.862 93.5625L358.375 92.1221H360.23L360.621 100.447H358.888C358.318 98.7546 357.341 97.2979 355.958 96.0771C354.575 94.8402 353.085 94.2217 351.49 94.2217C350.237 94.2217 349.252 94.4821 348.536 95.0029C347.82 95.5238 347.462 96.248 347.462 97.1758C347.462 98.4128 347.983 99.3079 349.024 99.8613C350.082 100.415 351.555 100.936 353.443 101.424C356.357 102.173 358.489 103.198 359.84 104.5C361.191 105.786 361.866 107.43 361.866 109.432C361.866 112.101 360.816 114.168 358.717 115.633C356.633 117.098 353.907 117.83 350.538 117.83ZM376.173 117.83C374.594 117.83 373.048 117.594 371.534 117.122C370.037 116.666 368.873 116.178 368.043 115.657L367.311 117.317H365.406L365.089 108.211H366.871C367.115 108.943 367.522 109.773 368.092 110.701C368.661 111.613 369.312 112.435 370.045 113.167C370.81 113.899 371.681 114.518 372.657 115.022C373.65 115.527 374.708 115.779 375.831 115.779C377.312 115.779 378.411 115.494 379.127 114.925C379.859 114.339 380.226 113.444 380.226 112.239C380.226 111.588 380.063 111.051 379.737 110.628C379.412 110.205 378.964 109.839 378.395 109.529C377.76 109.204 377.06 108.927 376.295 108.699C375.546 108.471 374.618 108.195 373.512 107.869C372.405 107.544 371.453 107.218 370.655 106.893C369.874 106.551 369.06 106.022 368.214 105.306C367.481 104.671 366.896 103.906 366.456 103.011C366.017 102.116 365.797 101.049 365.797 99.8125C365.797 97.5176 366.757 95.6621 368.678 94.2461C370.615 92.8301 373.146 92.1221 376.271 92.1221C377.752 92.1221 379.111 92.2767 380.348 92.5859C381.601 92.8789 382.651 93.2044 383.497 93.5625L384.01 92.1221H385.865L386.256 100.447H384.522C383.953 98.7546 382.976 97.2979 381.593 96.0771C380.209 94.8402 378.72 94.2217 377.125 94.2217C375.872 94.2217 374.887 94.4821 374.171 95.0029C373.455 95.5238 373.097 96.248 373.097 97.1758C373.097 98.4128 373.618 99.3079 374.659 99.8613C375.717 100.415 377.19 100.936 379.078 101.424C381.992 102.173 384.124 103.198 385.475 104.5C386.826 105.786 387.501 107.43 387.501 109.432C387.501 112.101 386.451 114.168 384.352 115.633C382.268 117.098 379.542 117.83 376.173 117.83ZM414.503 117.83C412.924 117.83 411.378 117.594 409.864 117.122C408.367 116.666 407.203 116.178 406.373 115.657L405.641 117.317H403.736L403.419 108.211H405.201C405.445 108.943 405.852 109.773 406.422 110.701C406.992 111.613 407.643 112.435 408.375 113.167C409.14 113.899 410.011 114.518 410.987 115.022C411.98 115.527 413.038 115.779 414.161 115.779C415.642 115.779 416.741 115.494 417.457 114.925C418.189 114.339 418.556 113.444 418.556 112.239C418.556 111.588 418.393 111.051 418.067 110.628C417.742 110.205 417.294 109.839 416.725 109.529C416.09 109.204 415.39 108.927 414.625 108.699C413.876 108.471 412.949 108.195 411.842 107.869C410.735 107.544 409.783 107.218 408.985 106.893C408.204 106.551 407.39 106.022 406.544 105.306C405.812 104.671 405.226 103.906 404.786 103.011C404.347 102.116 404.127 101.049 404.127 99.8125C404.127 97.5176 405.087 95.6621 407.008 94.2461C408.945 92.8301 411.476 92.1221 414.601 92.1221C416.082 92.1221 417.441 92.2767 418.678 92.5859C419.931 92.8789 420.981 93.2044 421.827 93.5625L422.34 92.1221H424.195L424.586 100.447H422.853C422.283 98.7546 421.306 97.2979 419.923 96.0771C418.539 94.8402 417.05 94.2217 415.455 94.2217C414.202 94.2217 413.217 94.4821 412.501 95.0029C411.785 95.5238 411.427 96.248 411.427 97.1758C411.427 98.4128 411.948 99.3079 412.989 99.8613C414.047 100.415 415.52 100.936 417.408 101.424C420.322 102.173 422.454 103.198 423.805 104.5C425.156 105.786 425.831 107.43 425.831 109.432C425.831 112.101 424.781 114.168 422.682 115.633C420.598 117.098 417.872 117.83 414.503 117.83ZM446.998 115.877C445.956 116.333 444.841 116.74 443.653 117.098C442.465 117.472 441.017 117.659 439.308 117.659C436.769 117.659 434.881 117.041 433.644 115.804C432.423 114.567 431.812 112.801 431.812 110.506V95.5156H427.418V92.8789H431.91V85.4814H439.845V92.8789H446.681V95.5156H439.894V108.895C439.894 110.799 440.154 112.15 440.675 112.947C441.212 113.745 442.164 114.144 443.531 114.144C443.971 114.144 444.581 114.111 445.362 114.046C446.144 113.981 446.689 113.908 446.998 113.826V115.877ZM473.634 95.6621C474.838 96.7852 475.758 98.1279 476.393 99.6904C477.027 101.253 477.345 102.946 477.345 104.769C477.345 106.575 477.027 108.284 476.393 109.896C475.774 111.491 474.863 112.858 473.658 113.997C472.372 115.218 470.834 116.154 469.044 116.805C467.27 117.456 465.235 117.781 462.94 117.781C460.955 117.781 459.124 117.496 457.447 116.927C455.787 116.357 454.314 115.503 453.028 114.363C451.791 113.273 450.815 111.93 450.099 110.335C449.382 108.724 449.024 106.925 449.024 104.939C449.024 102.986 449.334 101.253 449.952 99.7393C450.587 98.2093 451.531 96.8503 452.784 95.6621C453.989 94.5228 455.47 93.6439 457.228 93.0254C459.002 92.3906 460.979 92.0732 463.16 92.0732C465.439 92.0732 467.441 92.3906 469.166 93.0254C470.908 93.6439 472.397 94.5228 473.634 95.6621ZM467.384 112.581C467.742 111.67 468.002 110.563 468.165 109.261C468.344 107.959 468.434 106.445 468.434 104.72C468.434 103.58 468.352 102.278 468.189 100.813C468.027 99.3486 467.783 98.193 467.457 97.3467C467.066 96.3213 466.521 95.5156 465.821 94.9297C465.138 94.3438 464.267 94.0508 463.209 94.0508C462.053 94.0508 461.126 94.3682 460.426 95.0029C459.742 95.6377 459.213 96.4596 458.839 97.4688C458.497 98.3965 458.261 99.487 458.131 100.74C458.001 101.977 457.936 103.271 457.936 104.622C457.936 106.396 457.993 107.869 458.106 109.041C458.22 110.197 458.497 111.36 458.937 112.532C459.311 113.541 459.848 114.339 460.548 114.925C461.248 115.511 462.135 115.804 463.209 115.804C464.186 115.804 465.024 115.535 465.724 114.998C466.424 114.445 466.977 113.639 467.384 112.581ZM504.811 97.249C504.811 98.486 504.428 99.5765 503.663 100.521C502.898 101.448 501.889 101.912 500.636 101.912C499.448 101.912 498.438 101.611 497.608 101.009C496.795 100.407 496.388 99.5195 496.388 98.3477C496.388 97.778 496.428 97.3385 496.51 97.0293C496.591 96.7038 496.664 96.4027 496.729 96.126C495.981 96.1585 495.191 96.4189 494.361 96.9072C493.531 97.3955 492.799 98.0465 492.164 98.8604V112.264C492.164 112.833 492.254 113.305 492.433 113.68C492.612 114.054 492.913 114.347 493.336 114.559C493.694 114.738 494.272 114.892 495.069 115.022C495.883 115.136 496.469 115.201 496.827 115.218V117H480.494V115.218C480.901 115.185 481.308 115.145 481.715 115.096C482.138 115.031 482.496 114.949 482.789 114.852C483.31 114.673 483.668 114.396 483.863 114.021C484.059 113.647 484.156 113.159 484.156 112.557V98.3477C484.156 97.7617 484.018 97.2409 483.741 96.7852C483.465 96.3132 483.131 95.9388 482.74 95.6621C482.447 95.4668 482.073 95.304 481.617 95.1738C481.178 95.0436 480.689 94.9541 480.152 94.9053V93.123L491.798 92.4883L492.164 92.8545V96.3945H492.262C493.385 95.0924 494.573 94.0752 495.826 93.3428C497.096 92.5941 498.414 92.2197 499.781 92.2197C501.295 92.2197 502.507 92.6917 503.419 93.6357C504.347 94.5635 504.811 95.7679 504.811 97.249ZM534.107 94.5635C533.375 94.6774 532.659 94.9541 531.959 95.3936C531.275 95.833 530.706 96.5166 530.25 97.4443C528.85 100.407 527.41 103.564 525.929 106.917C524.448 110.254 522.804 113.867 520.997 117.757C519.988 119.938 519.011 121.679 518.067 122.981C517.123 124.284 516.236 125.285 515.406 125.984C514.625 126.635 513.852 127.107 513.087 127.4C512.322 127.693 511.549 127.84 510.768 127.84C509.221 127.84 507.968 127.409 507.008 126.546C506.064 125.683 505.592 124.715 505.592 123.641C505.592 123.185 505.641 122.762 505.738 122.371C505.852 121.98 506.08 121.574 506.422 121.15C506.682 120.792 507.081 120.483 507.618 120.223C508.172 119.979 508.79 119.856 509.474 119.856C510.385 119.856 511.256 120.174 512.086 120.809C512.916 121.443 513.779 122.322 514.674 123.445C515.211 122.908 515.87 122.103 516.651 121.028C517.449 119.97 518.035 118.88 518.409 117.757C516.472 113.688 514.755 110.164 513.258 107.186C511.76 104.191 510.084 100.854 508.229 97.1758C507.822 96.3945 507.276 95.7923 506.593 95.3691C505.909 94.9297 505.185 94.6611 504.42 94.5635V92.7812H519.361V94.5635C518.808 94.5798 518.165 94.7018 517.433 94.9297C516.716 95.1576 516.358 95.4505 516.358 95.8086C516.358 95.9388 516.383 96.0853 516.432 96.248C516.48 96.3945 516.57 96.6143 516.7 96.9072C517.254 98.0465 518.035 99.6335 519.044 101.668C520.069 103.686 521.257 106.054 522.608 108.772C523.618 106.461 524.472 104.476 525.172 102.815C525.888 101.139 526.58 99.4951 527.247 97.8838C527.41 97.4769 527.499 97.1595 527.516 96.9316C527.548 96.6875 527.564 96.5247 527.564 96.4434C527.564 96.1504 527.418 95.8981 527.125 95.6865C526.848 95.4587 526.515 95.2633 526.124 95.1006C525.717 94.9378 525.326 94.8158 524.952 94.7344C524.578 94.653 524.269 94.596 524.024 94.5635V92.7812H534.107V94.5635Z" fill="white"/>
</svg>
