<svg width="570" height="128" viewBox="0 0 570 128" fill="none" xmlns="http://www.w3.org/2000/svg">
<path d="M41.5771 5.26074C41.1051 5.30957 40.4215 5.4235 39.5264 5.60254C38.6475 5.7653 37.9069 6.05827 37.3047 6.48145C36.6862 6.88835 36.2467 7.62077 35.9863 8.67871C35.7422 9.73665 35.6201 11.3236 35.6201 13.4395V26.3301C35.6201 30.1224 34.3343 33.1742 31.7627 35.4854C29.1911 37.7965 25.7894 38.9521 21.5576 38.9521C16.626 38.9521 12.8092 37.8372 10.1074 35.6074C7.4056 33.3776 6.05469 30.2689 6.05469 26.2812V8.55664C6.05469 7.98698 5.94076 7.4987 5.71289 7.0918C5.5013 6.6849 5.08626 6.31868 4.46777 5.99316C4.0446 5.78158 3.52376 5.61068 2.90527 5.48047C2.28678 5.35026 1.78223 5.26074 1.3916 5.21191V3.35645H19.5557V5.21191C19.0348 5.24447 18.5059 5.30957 17.9688 5.40723C17.4316 5.48861 16.8864 5.61882 16.333 5.79785C15.7145 5.99316 15.2995 6.31868 15.0879 6.77441C14.8763 7.23014 14.7705 7.74284 14.7705 8.3125V25.793C14.7705 29.2272 15.5273 31.7256 17.041 33.2881C18.5547 34.8506 20.752 35.6318 23.6328 35.6318C26.4648 35.6318 28.6865 34.7692 30.2979 33.0439C31.9092 31.3187 32.7148 28.7796 32.7148 25.4268V13.6836C32.7148 11.6003 32.5684 10.0459 32.2754 9.02051C31.9987 7.97884 31.5674 7.23014 30.9814 6.77441C30.5583 6.41634 29.8177 6.09082 28.7598 5.79785C27.7181 5.50488 26.9857 5.32585 26.5625 5.26074V3.35645H41.5771V5.26074ZM75.3418 38H60.6445V36.2178C60.9538 36.1852 61.3281 36.1445 61.7676 36.0957C62.207 36.0469 62.5407 35.9655 62.7686 35.8516C63.1104 35.6725 63.3545 35.4121 63.501 35.0703C63.6475 34.7285 63.7207 34.224 63.7207 33.5566V22.1309C63.7207 20.4707 63.4115 19.2256 62.793 18.3955C62.1908 17.5492 61.2956 17.126 60.1074 17.126C59.4564 17.126 58.846 17.2236 58.2764 17.4189C57.723 17.6143 57.1777 17.8991 56.6406 18.2734C56.1686 18.599 55.7861 18.9326 55.4932 19.2744C55.2165 19.6162 54.9805 19.9173 54.7852 20.1777V33.2881C54.7852 33.8577 54.8665 34.3379 55.0293 34.7285C55.1921 35.1029 55.4606 35.3877 55.835 35.583C56.0954 35.7295 56.4209 35.8597 56.8115 35.9736C57.2021 36.0876 57.5846 36.1689 57.959 36.2178V38H43.1152V36.2178C43.5221 36.1852 43.929 36.1445 44.3359 36.0957C44.7591 36.0306 45.1172 35.9492 45.4102 35.8516C45.931 35.6725 46.2891 35.3958 46.4844 35.0215C46.6797 34.6471 46.7773 34.1589 46.7773 33.5566V19.3477C46.7773 18.8431 46.6471 18.3467 46.3867 17.8584C46.1263 17.3701 45.7845 16.9714 45.3613 16.6621C45.0684 16.4668 44.694 16.304 44.2383 16.1738C43.7988 16.0436 43.3105 15.9541 42.7734 15.9053V14.123L54.4189 13.4883L54.7852 13.8545V17.3945H54.8828C55.3385 16.9876 55.8919 16.4993 56.543 15.9297C57.194 15.36 57.7962 14.8962 58.3496 14.5381C58.9518 14.1475 59.7412 13.8138 60.7178 13.5371C61.6943 13.2604 62.736 13.1221 63.8428 13.1221C66.4958 13.1221 68.4814 13.8789 69.7998 15.3926C71.1344 16.89 71.8018 18.8838 71.8018 21.374V33.3369C71.8018 33.9391 71.8913 34.4193 72.0703 34.7773C72.2493 35.1354 72.583 35.4202 73.0713 35.6318C73.3317 35.7458 73.6491 35.8597 74.0234 35.9736C74.4141 36.0876 74.8535 36.1689 75.3418 36.2178V38ZM109.204 37.4873L97.168 38.1953L96.8018 37.8535V35.6074L96.6309 35.5586C95.8333 36.4212 94.751 37.1781 93.3838 37.8291C92.0329 38.4639 90.6657 38.7812 89.2822 38.7812C85.9945 38.7812 83.2845 37.5605 81.1523 35.1191C79.0202 32.6777 77.9541 29.5202 77.9541 25.6465C77.9541 22.2122 79.1423 19.2663 81.5186 16.8086C83.9111 14.3509 86.8001 13.1221 90.1855 13.1221C91.5202 13.1221 92.7734 13.2767 93.9453 13.5859C95.1172 13.8789 96.0531 14.2288 96.7529 14.6357V6.65234C96.7529 6.05013 96.6309 5.48861 96.3867 4.96777C96.1426 4.43066 95.8171 4.01562 95.4102 3.72266C94.9056 3.36458 94.2708 3.1123 93.5059 2.96582C92.7572 2.80306 92.0003 2.68913 91.2354 2.62402V0.841797L104.419 0.207031L104.785 0.597656V32.6045C104.785 33.223 104.883 33.7438 105.078 34.167C105.29 34.5902 105.623 34.9238 106.079 35.168C106.421 35.347 106.917 35.4772 107.568 35.5586C108.236 35.64 108.781 35.6888 109.204 35.7051V37.4873ZM96.7529 33.1416V19.3477C96.639 18.9733 96.4762 18.5583 96.2646 18.1025C96.0693 17.6468 95.7926 17.2155 95.4346 16.8086C95.109 16.4668 94.6696 16.1657 94.1162 15.9053C93.5791 15.6449 92.9688 15.5146 92.2852 15.5146C90.6576 15.5146 89.3229 16.4342 88.2812 18.2734C87.2396 20.1126 86.7188 22.7087 86.7188 26.0615C86.7188 27.3799 86.8083 28.568 86.9873 29.626C87.1826 30.6676 87.5163 31.6198 87.9883 32.4824C88.4603 33.3451 89.0625 34.0205 89.7949 34.5088C90.5436 34.9971 91.4388 35.2412 92.4805 35.2412C93.4733 35.2412 94.2952 35.054 94.9463 34.6797C95.5973 34.2891 96.1995 33.7764 96.7529 33.1416ZM137.036 32.165C136.466 33.0928 135.775 33.9717 134.961 34.8018C134.163 35.6156 133.252 36.3154 132.227 36.9014C131.136 37.5199 130.029 37.9837 128.906 38.293C127.799 38.6185 126.522 38.7812 125.073 38.7812C122.664 38.7812 120.581 38.4395 118.823 37.7559C117.082 37.0723 115.641 36.1527 114.502 34.9971C113.363 33.8415 112.508 32.4824 111.938 30.9199C111.385 29.3411 111.108 27.6322 111.108 25.793C111.108 24.1328 111.41 22.5459 112.012 21.0322C112.63 19.5023 113.501 18.1432 114.624 16.9551C115.731 15.7995 117.122 14.8636 118.799 14.1475C120.492 13.4313 122.38 13.0732 124.463 13.0732C126.742 13.0732 128.613 13.3499 130.078 13.9033C131.543 14.4567 132.756 15.2217 133.716 16.1982C134.644 17.126 135.319 18.2246 135.742 19.4941C136.165 20.7474 136.377 22.0658 136.377 23.4492V25.0361H119.873C119.873 28.3727 120.516 30.9118 121.802 32.6533C123.088 34.3949 125.13 35.2656 127.93 35.2656C129.46 35.2656 130.835 34.8506 132.056 34.0205C133.276 33.1742 134.318 32.1081 135.181 30.8223L137.036 32.165ZM127.71 22.8877C127.71 21.9111 127.661 20.9102 127.563 19.8848C127.466 18.8594 127.295 18.0212 127.051 17.3701C126.774 16.6051 126.392 16.0273 125.903 15.6367C125.431 15.2461 124.829 15.0508 124.097 15.0508C122.843 15.0508 121.842 15.6855 121.094 16.9551C120.345 18.2246 119.938 20.2347 119.873 22.9854L127.71 22.8877ZM163.721 18.249C163.721 19.486 163.338 20.5765 162.573 21.5205C161.808 22.4482 160.799 22.9121 159.546 22.9121C158.358 22.9121 157.349 22.611 156.519 22.0088C155.705 21.4066 155.298 20.5195 155.298 19.3477C155.298 18.778 155.339 18.3385 155.42 18.0293C155.501 17.7038 155.575 17.4027 155.64 17.126C154.891 17.1585 154.102 17.4189 153.271 17.9072C152.441 18.3955 151.709 19.0465 151.074 19.8604V33.2637C151.074 33.8333 151.164 34.3053 151.343 34.6797C151.522 35.054 151.823 35.347 152.246 35.5586C152.604 35.7376 153.182 35.8923 153.979 36.0225C154.793 36.1364 155.379 36.2015 155.737 36.2178V38H139.404V36.2178C139.811 36.1852 140.218 36.1445 140.625 36.0957C141.048 36.0306 141.406 35.9492 141.699 35.8516C142.22 35.6725 142.578 35.3958 142.773 35.0215C142.969 34.6471 143.066 34.1589 143.066 33.5566V19.3477C143.066 18.7617 142.928 18.2409 142.651 17.7852C142.375 17.3132 142.041 16.9388 141.65 16.6621C141.357 16.4668 140.983 16.304 140.527 16.1738C140.088 16.0436 139.6 15.9541 139.062 15.9053V14.123L150.708 13.4883L151.074 13.8545V17.3945H151.172C152.295 16.0924 153.483 15.0752 154.736 14.3428C156.006 13.5941 157.324 13.2197 158.691 13.2197C160.205 13.2197 161.418 13.6917 162.329 14.6357C163.257 15.5635 163.721 16.7679 163.721 18.249ZM176.733 38.8301C175.155 38.8301 173.608 38.5941 172.095 38.1221C170.597 37.6663 169.434 37.1781 168.604 36.6572L167.871 38.3174H165.967L165.649 29.2109H167.432C167.676 29.9434 168.083 30.7734 168.652 31.7012C169.222 32.6126 169.873 33.4346 170.605 34.167C171.37 34.8994 172.241 35.5179 173.218 36.0225C174.211 36.527 175.269 36.7793 176.392 36.7793C177.873 36.7793 178.971 36.4945 179.688 35.9248C180.42 35.3389 180.786 34.4437 180.786 33.2393C180.786 32.5882 180.623 32.0511 180.298 31.6279C179.972 31.2048 179.525 30.8385 178.955 30.5293C178.32 30.2038 177.62 29.9271 176.855 29.6992C176.107 29.4714 175.179 29.1947 174.072 28.8691C172.965 28.5436 172.013 28.2181 171.216 27.8926C170.435 27.5508 169.621 27.0218 168.774 26.3057C168.042 25.6709 167.456 24.9059 167.017 24.0107C166.577 23.1156 166.357 22.0495 166.357 20.8125C166.357 18.5176 167.318 16.6621 169.238 15.2461C171.175 13.8301 173.706 13.1221 176.831 13.1221C178.312 13.1221 179.671 13.2767 180.908 13.5859C182.161 13.8789 183.211 14.2044 184.058 14.5625L184.57 13.1221H186.426L186.816 21.4473H185.083C184.513 19.7546 183.537 18.2979 182.153 17.0771C180.77 15.8402 179.281 15.2217 177.686 15.2217C176.432 15.2217 175.448 15.4821 174.731 16.0029C174.015 16.5238 173.657 17.248 173.657 18.1758C173.657 19.4128 174.178 20.3079 175.22 20.8613C176.278 21.4147 177.751 21.9355 179.639 22.4238C182.552 23.1725 184.684 24.1979 186.035 25.5C187.386 26.7858 188.062 28.4297 188.062 30.4316C188.062 33.1009 187.012 35.168 184.912 36.6328C182.829 38.0977 180.103 38.8301 176.733 38.8301ZM209.229 36.877C208.187 37.3327 207.072 37.7396 205.884 38.0977C204.696 38.472 203.247 38.6592 201.538 38.6592C198.999 38.6592 197.111 38.0407 195.874 36.8037C194.653 35.5667 194.043 33.8008 194.043 31.5059V16.5156H189.648V13.8789H194.141V6.48145H202.075V13.8789H208.911V16.5156H202.124V29.8945C202.124 31.7988 202.384 33.1497 202.905 33.9473C203.442 34.7448 204.395 35.1436 205.762 35.1436C206.201 35.1436 206.812 35.111 207.593 35.0459C208.374 34.9808 208.919 34.9076 209.229 34.8262V36.877ZM238.843 37.4873C238.127 37.7965 237.28 38.0814 236.304 38.3418C235.327 38.6022 234.294 38.7324 233.203 38.7324C231.201 38.7324 229.728 38.4395 228.784 37.8535C227.84 37.2513 227.197 36.3968 226.855 35.29H226.709C226.156 35.8434 225.618 36.3154 225.098 36.7061C224.593 37.0967 224.048 37.4303 223.462 37.707C222.697 38.0651 221.956 38.3255 221.24 38.4883C220.54 38.6673 219.556 38.7568 218.286 38.7568C216.398 38.7568 214.787 38.2035 213.452 37.0967C212.118 35.9736 211.45 34.4925 211.45 32.6533C211.45 31.5954 211.597 30.7002 211.89 29.9678C212.183 29.2191 212.598 28.5599 213.135 27.9902C213.623 27.4694 214.185 27.0381 214.819 26.6963C215.47 26.3545 216.178 26.0371 216.943 25.7441C218.408 25.207 220.166 24.6536 222.217 24.084C224.268 23.498 225.765 22.9772 226.709 22.5215V20.1777C226.709 19.7708 226.676 19.2337 226.611 18.5664C226.546 17.8991 226.408 17.3376 226.196 16.8818C225.968 16.361 225.61 15.9215 225.122 15.5635C224.634 15.2054 223.991 15.0264 223.193 15.0264C222.477 15.0264 221.875 15.1322 221.387 15.3438C220.915 15.5391 220.532 15.7425 220.239 15.9541C220.288 16.2796 220.426 16.776 220.654 17.4434C220.882 18.1107 220.996 18.7536 220.996 19.3721C220.996 19.6488 220.923 19.9987 220.776 20.4219C220.63 20.8288 220.418 21.1543 220.142 21.3984C219.767 21.724 219.344 21.9762 218.872 22.1553C218.416 22.3343 217.708 22.4238 216.748 22.4238C215.381 22.4238 214.347 22.0983 213.647 21.4473C212.948 20.7799 212.598 19.9173 212.598 18.8594C212.598 17.9479 212.956 17.1341 213.672 16.418C214.404 15.6855 215.291 15.0833 216.333 14.6113C217.358 14.123 218.538 13.7487 219.873 13.4883C221.208 13.2116 222.445 13.0732 223.584 13.0732C225.163 13.0732 226.611 13.1709 227.93 13.3662C229.248 13.5452 230.436 13.9277 231.494 14.5137C232.503 15.0833 233.301 15.9134 233.887 17.0039C234.489 18.0781 234.79 19.486 234.79 21.2275C234.79 23.0667 234.749 25.2477 234.668 27.7705C234.603 30.2933 234.57 31.9535 234.57 32.751C234.57 33.4834 234.676 34.0612 234.888 34.4844C235.116 34.9076 235.457 35.2249 235.913 35.4365C236.19 35.5667 236.621 35.6481 237.207 35.6807C237.809 35.6969 238.354 35.7051 238.843 35.7051V37.4873ZM226.709 24.7676C225.798 25.0768 224.894 25.4349 223.999 25.8418C223.104 26.2324 222.371 26.6475 221.802 27.0869C221.2 27.5426 220.728 28.1286 220.386 28.8447C220.044 29.5446 219.873 30.3747 219.873 31.335C219.873 32.6045 220.158 33.5241 220.728 34.0938C221.313 34.6634 222.03 34.9482 222.876 34.9482C223.771 34.9482 224.504 34.7692 225.073 34.4111C225.659 34.0368 226.172 33.5811 226.611 33.0439L226.709 24.7676ZM272.949 38H258.252V36.2178C258.561 36.1852 258.936 36.1445 259.375 36.0957C259.814 36.0469 260.148 35.9655 260.376 35.8516C260.718 35.6725 260.962 35.4121 261.108 35.0703C261.255 34.7285 261.328 34.224 261.328 33.5566V22.1309C261.328 20.4707 261.019 19.2256 260.4 18.3955C259.798 17.5492 258.903 17.126 257.715 17.126C257.064 17.126 256.453 17.2236 255.884 17.4189C255.33 17.6143 254.785 17.8991 254.248 18.2734C253.776 18.599 253.394 18.9326 253.101 19.2744C252.824 19.6162 252.588 19.9173 252.393 20.1777V33.2881C252.393 33.8577 252.474 34.3379 252.637 34.7285C252.799 35.1029 253.068 35.3877 253.442 35.583C253.703 35.7295 254.028 35.8597 254.419 35.9736C254.81 36.0876 255.192 36.1689 255.566 36.2178V38H240.723V36.2178C241.13 36.1852 241.536 36.1445 241.943 36.0957C242.367 36.0306 242.725 35.9492 243.018 35.8516C243.538 35.6725 243.896 35.3958 244.092 35.0215C244.287 34.6471 244.385 34.1589 244.385 33.5566V19.3477C244.385 18.8431 244.255 18.3467 243.994 17.8584C243.734 17.3701 243.392 16.9714 242.969 16.6621C242.676 16.4668 242.301 16.304 241.846 16.1738C241.406 16.0436 240.918 15.9541 240.381 15.9053V14.123L252.026 13.4883L252.393 13.8545V17.3945H252.49C252.946 16.9876 253.499 16.4993 254.15 15.9297C254.801 15.36 255.404 14.8962 255.957 14.5381C256.559 14.1475 257.349 13.8138 258.325 13.5371C259.302 13.2604 260.343 13.1221 261.45 13.1221C264.103 13.1221 266.089 13.8789 267.407 15.3926C268.742 16.89 269.409 18.8838 269.409 21.374V33.3369C269.409 33.9391 269.499 34.4193 269.678 34.7773C269.857 35.1354 270.19 35.4202 270.679 35.6318C270.939 35.7458 271.257 35.8597 271.631 35.9736C272.021 36.0876 272.461 36.1689 272.949 36.2178V38ZM306.812 37.4873L294.775 38.1953L294.409 37.8535V35.6074L294.238 35.5586C293.441 36.4212 292.358 37.1781 290.991 37.8291C289.64 38.4639 288.273 38.7812 286.89 38.7812C283.602 38.7812 280.892 37.5605 278.76 35.1191C276.628 32.6777 275.562 29.5202 275.562 25.6465C275.562 22.2122 276.75 19.2663 279.126 16.8086C281.519 14.3509 284.408 13.1221 287.793 13.1221C289.128 13.1221 290.381 13.2767 291.553 13.5859C292.725 13.8789 293.66 14.2288 294.36 14.6357V6.65234C294.36 6.05013 294.238 5.48861 293.994 4.96777C293.75 4.43066 293.424 4.01562 293.018 3.72266C292.513 3.36458 291.878 3.1123 291.113 2.96582C290.365 2.80306 289.608 2.68913 288.843 2.62402V0.841797L302.026 0.207031L302.393 0.597656V32.6045C302.393 33.223 302.49 33.7438 302.686 34.167C302.897 34.5902 303.231 34.9238 303.687 35.168C304.028 35.347 304.525 35.4772 305.176 35.5586C305.843 35.64 306.388 35.6888 306.812 35.7051V37.4873ZM294.36 33.1416V19.3477C294.246 18.9733 294.084 18.5583 293.872 18.1025C293.677 17.6468 293.4 17.2155 293.042 16.8086C292.716 16.4668 292.277 16.1657 291.724 15.9053C291.187 15.6449 290.576 15.5146 289.893 15.5146C288.265 15.5146 286.93 16.4342 285.889 18.2734C284.847 20.1126 284.326 22.7087 284.326 26.0615C284.326 27.3799 284.416 28.568 284.595 29.626C284.79 30.6676 285.124 31.6198 285.596 32.4824C286.068 33.3451 286.67 34.0205 287.402 34.5088C288.151 34.9971 289.046 35.2412 290.088 35.2412C291.081 35.2412 291.903 35.054 292.554 34.6797C293.205 34.2891 293.807 33.7764 294.36 33.1416ZM359.863 38H345.508C345.117 37.5605 344.613 36.9909 343.994 36.291C343.376 35.5749 342.847 34.9401 342.407 34.3867C340.682 35.9818 338.957 37.1292 337.231 37.8291C335.522 38.5127 333.7 38.8545 331.763 38.8545C328.719 38.8545 326.221 38.0326 324.268 36.3887C322.331 34.7448 321.362 32.6045 321.362 29.9678C321.362 28.6494 321.533 27.5182 321.875 26.5742C322.233 25.6302 322.803 24.6862 323.584 23.7422C324.333 22.8307 325.26 22.0169 326.367 21.3008C327.474 20.5684 328.719 19.8848 330.103 19.25C328.638 17.3945 327.612 15.8158 327.026 14.5137C326.457 13.2116 326.172 11.877 326.172 10.5098C326.172 8.16602 327.148 6.2373 329.102 4.72363C331.055 3.19368 333.39 2.42871 336.108 2.42871C338.647 2.42871 340.706 3.03092 342.285 4.23535C343.864 5.43978 344.653 7.03483 344.653 9.02051C344.653 10.7458 344.181 12.292 343.237 13.6592C342.293 15.0101 340.723 16.3366 338.525 17.6387C340.299 19.9173 341.667 21.6344 342.627 22.79C343.604 23.9294 344.897 25.4349 346.509 27.3066C347.534 25.793 348.299 24.4014 348.804 23.1318C349.325 21.8623 349.585 20.7962 349.585 19.9336C349.585 19.4453 349.219 19.0547 348.486 18.7617C347.77 18.4525 346.753 18.1676 345.435 17.9072V16.0518H359.082V17.9072C357.601 18.0374 356.502 18.2165 355.786 18.4443C355.086 18.6722 354.395 19.1361 353.711 19.8359C353.418 20.1289 353.052 20.6497 352.612 21.3984C352.189 22.1309 351.782 22.8389 351.392 23.5225C350.92 24.3525 350.415 25.2233 349.878 26.1348C349.341 27.0462 348.69 27.9984 347.925 28.9912C349.422 30.749 350.651 32.0674 351.611 32.9463C352.588 33.8089 353.385 34.403 354.004 34.7285C354.704 35.1029 355.591 35.404 356.665 35.6318C357.739 35.8434 358.805 35.9818 359.863 36.0469V38ZM340.942 9.38672C340.942 7.95443 340.592 6.83138 339.893 6.01758C339.209 5.1875 338.314 4.77246 337.207 4.77246C336.149 4.77246 335.295 5.11426 334.644 5.79785C333.993 6.46517 333.667 7.34408 333.667 8.43457C333.667 9.37858 333.968 10.4528 334.57 11.6572C335.173 12.8454 336.1 14.2939 337.354 16.0029C338.59 15.1403 339.494 14.1393 340.063 13C340.649 11.8444 340.942 10.64 340.942 9.38672ZM341.113 32.7998C339.746 31.1559 338.151 29.2435 336.328 27.0625C334.521 24.8815 332.837 22.8063 331.274 20.8369C330.412 21.6833 329.785 22.6761 329.395 23.8154C329.02 24.9385 328.833 26.0697 328.833 27.209C328.833 29.3737 329.525 31.1396 330.908 32.5068C332.292 33.874 334.049 34.5576 336.182 34.5576C337.174 34.5576 338.037 34.4355 338.77 34.1914C339.502 33.931 340.283 33.4671 341.113 32.7998ZM413.818 38H400.537C398.242 34.4844 396.33 31.6849 394.8 29.6016C393.286 27.5182 391.398 25.1094 389.136 22.375H387.793V32.8975C387.793 33.4834 387.899 33.9798 388.11 34.3867C388.338 34.7936 388.761 35.1354 389.38 35.4121C389.689 35.5423 390.169 35.6807 390.82 35.8271C391.488 35.9574 392.057 36.0469 392.529 36.0957V38H374.048V36.0957C374.52 36.0469 375.138 35.9818 375.903 35.9004C376.685 35.8027 377.238 35.6888 377.563 35.5586C378.182 35.2982 378.597 34.9727 378.809 34.582C379.02 34.1751 379.126 33.6624 379.126 33.0439V8.60547C379.126 8.01953 379.036 7.53125 378.857 7.14062C378.678 6.75 378.247 6.4082 377.563 6.11523C377.043 5.90365 376.424 5.72461 375.708 5.57812C375.008 5.43164 374.455 5.32585 374.048 5.26074V3.35645H393.481C397.827 3.35645 401.123 4.04004 403.369 5.40723C405.632 6.75814 406.763 8.80892 406.763 11.5596C406.763 13.9847 406.063 15.9378 404.663 17.4189C403.28 18.8838 401.164 20.0312 398.315 20.8613C399.422 22.2936 400.708 23.9538 402.173 25.8418C403.654 27.7298 405.192 29.6585 406.787 31.6279C407.292 32.2627 407.975 33.0439 408.838 33.9717C409.717 34.8831 410.49 35.4447 411.157 35.6562C411.532 35.7702 412.004 35.8678 412.573 35.9492C413.159 36.0306 413.574 36.0794 413.818 36.0957V38ZM397.192 12.2432C397.192 9.93197 396.541 8.2474 395.239 7.18945C393.953 6.11523 392.114 5.57812 389.722 5.57812H387.793V20.0801H389.648C392.041 20.0801 393.896 19.4535 395.215 18.2002C396.533 16.9469 397.192 14.9613 397.192 12.2432ZM439.917 32.165C439.347 33.0928 438.656 33.9717 437.842 34.8018C437.044 35.6156 436.133 36.3154 435.107 36.9014C434.017 37.5199 432.91 37.9837 431.787 38.293C430.68 38.6185 429.403 38.7812 427.954 38.7812C425.545 38.7812 423.462 38.4395 421.704 37.7559C419.963 37.0723 418.522 36.1527 417.383 34.9971C416.243 33.8415 415.389 32.4824 414.819 30.9199C414.266 29.3411 413.989 27.6322 413.989 25.793C413.989 24.1328 414.29 22.5459 414.893 21.0322C415.511 19.5023 416.382 18.1432 417.505 16.9551C418.612 15.7995 420.003 14.8636 421.68 14.1475C423.372 13.4313 425.26 13.0732 427.344 13.0732C429.622 13.0732 431.494 13.3499 432.959 13.9033C434.424 14.4567 435.636 15.2217 436.597 16.1982C437.524 17.126 438.2 18.2246 438.623 19.4941C439.046 20.7474 439.258 22.0658 439.258 23.4492V25.0361H422.754C422.754 28.3727 423.397 30.9118 424.683 32.6533C425.968 34.3949 428.011 35.2656 430.811 35.2656C432.34 35.2656 433.716 34.8506 434.937 34.0205C436.157 33.1742 437.199 32.1081 438.062 30.8223L439.917 32.165ZM430.591 22.8877C430.591 21.9111 430.542 20.9102 430.444 19.8848C430.347 18.8594 430.176 18.0212 429.932 17.3701C429.655 16.6051 429.272 16.0273 428.784 15.6367C428.312 15.2461 427.71 15.0508 426.978 15.0508C425.724 15.0508 424.723 15.6855 423.975 16.9551C423.226 18.2246 422.819 20.2347 422.754 22.9854L430.591 22.8877ZM457.153 38H441.846V36.2178C442.269 36.1852 442.676 36.1445 443.066 36.0957C443.473 36.0469 443.831 35.9655 444.141 35.8516C444.661 35.6562 445.011 35.3796 445.19 35.0215C445.386 34.6471 445.483 34.1589 445.483 33.5566V6.50586C445.483 5.88737 445.353 5.31771 445.093 4.79688C444.849 4.25977 444.515 3.85286 444.092 3.57617C443.766 3.36458 443.27 3.16113 442.603 2.96582C441.951 2.77051 441.374 2.65658 440.869 2.62402V0.841797L453.149 0.207031L453.516 0.597656V33.2393C453.516 33.8415 453.621 34.3298 453.833 34.7041C454.045 35.0785 454.386 35.3714 454.858 35.583C455.184 35.7295 455.526 35.8597 455.884 35.9736C456.242 36.0876 456.665 36.1689 457.153 36.2178V38ZM485.767 32.165C485.197 33.0928 484.505 33.9717 483.691 34.8018C482.894 35.6156 481.982 36.3154 480.957 36.9014C479.867 37.5199 478.76 37.9837 477.637 38.293C476.53 38.6185 475.252 38.7812 473.804 38.7812C471.395 38.7812 469.312 38.4395 467.554 37.7559C465.812 37.0723 464.372 36.1527 463.232 34.9971C462.093 33.8415 461.239 32.4824 460.669 30.9199C460.116 29.3411 459.839 27.6322 459.839 25.793C459.839 24.1328 460.14 22.5459 460.742 21.0322C461.361 19.5023 462.231 18.1432 463.354 16.9551C464.461 15.7995 465.853 14.8636 467.529 14.1475C469.222 13.4313 471.11 13.0732 473.193 13.0732C475.472 13.0732 477.344 13.3499 478.809 13.9033C480.273 14.4567 481.486 15.2217 482.446 16.1982C483.374 17.126 484.049 18.2246 484.473 19.4941C484.896 20.7474 485.107 22.0658 485.107 23.4492V25.0361H468.604C468.604 28.3727 469.246 30.9118 470.532 32.6533C471.818 34.3949 473.861 35.2656 476.66 35.2656C478.19 35.2656 479.565 34.8506 480.786 34.0205C482.007 33.1742 483.049 32.1081 483.911 30.8223L485.767 32.165ZM476.44 22.8877C476.44 21.9111 476.392 20.9102 476.294 19.8848C476.196 18.8594 476.025 18.0212 475.781 17.3701C475.505 16.6051 475.122 16.0273 474.634 15.6367C474.162 15.2461 473.56 15.0508 472.827 15.0508C471.574 15.0508 470.573 15.6855 469.824 16.9551C469.076 18.2246 468.669 20.2347 468.604 22.9854L476.44 22.8877ZM516.04 37.4873C515.324 37.7965 514.478 38.0814 513.501 38.3418C512.524 38.6022 511.491 38.7324 510.4 38.7324C508.398 38.7324 506.925 38.4395 505.981 37.8535C505.037 37.2513 504.395 36.3968 504.053 35.29H503.906C503.353 35.8434 502.816 36.3154 502.295 36.7061C501.79 37.0967 501.245 37.4303 500.659 37.707C499.894 38.0651 499.154 38.3255 498.438 38.4883C497.738 38.6673 496.753 38.7568 495.483 38.7568C493.595 38.7568 491.984 38.2035 490.649 37.0967C489.315 35.9736 488.647 34.4925 488.647 32.6533C488.647 31.5954 488.794 30.7002 489.087 29.9678C489.38 29.2191 489.795 28.5599 490.332 27.9902C490.82 27.4694 491.382 27.0381 492.017 26.6963C492.668 26.3545 493.376 26.0371 494.141 25.7441C495.605 25.207 497.363 24.6536 499.414 24.084C501.465 23.498 502.962 22.9772 503.906 22.5215V20.1777C503.906 19.7708 503.874 19.2337 503.809 18.5664C503.743 17.8991 503.605 17.3376 503.394 16.8818C503.166 16.361 502.808 15.9215 502.319 15.5635C501.831 15.2054 501.188 15.0264 500.391 15.0264C499.674 15.0264 499.072 15.1322 498.584 15.3438C498.112 15.5391 497.729 15.7425 497.437 15.9541C497.485 16.2796 497.624 16.776 497.852 17.4434C498.079 18.1107 498.193 18.7536 498.193 19.3721C498.193 19.6488 498.12 19.9987 497.974 20.4219C497.827 20.8288 497.616 21.1543 497.339 21.3984C496.965 21.724 496.541 21.9762 496.069 22.1553C495.614 22.3343 494.906 22.4238 493.945 22.4238C492.578 22.4238 491.545 22.0983 490.845 21.4473C490.145 20.7799 489.795 19.9173 489.795 18.8594C489.795 17.9479 490.153 17.1341 490.869 16.418C491.602 15.6855 492.489 15.0833 493.53 14.6113C494.556 14.123 495.736 13.7487 497.07 13.4883C498.405 13.2116 499.642 13.0732 500.781 13.0732C502.36 13.0732 503.809 13.1709 505.127 13.3662C506.445 13.5452 507.633 13.9277 508.691 14.5137C509.701 15.0833 510.498 15.9134 511.084 17.0039C511.686 18.0781 511.987 19.486 511.987 21.2275C511.987 23.0667 511.947 25.2477 511.865 27.7705C511.8 30.2933 511.768 31.9535 511.768 32.751C511.768 33.4834 511.873 34.0612 512.085 34.4844C512.313 34.9076 512.655 35.2249 513.11 35.4365C513.387 35.5667 513.818 35.6481 514.404 35.6807C515.007 35.6969 515.552 35.7051 516.04 35.7051V37.4873ZM503.906 24.7676C502.995 25.0768 502.091 25.4349 501.196 25.8418C500.301 26.2324 499.569 26.6475 498.999 27.0869C498.397 27.5426 497.925 28.1286 497.583 28.8447C497.241 29.5446 497.07 30.3747 497.07 31.335C497.07 32.6045 497.355 33.5241 497.925 34.0938C498.511 34.6634 499.227 34.9482 500.073 34.9482C500.968 34.9482 501.701 34.7692 502.271 34.4111C502.856 34.0368 503.369 33.5811 503.809 33.0439L503.906 24.7676ZM529.224 38.8301C527.645 38.8301 526.099 38.5941 524.585 38.1221C523.088 37.6663 521.924 37.1781 521.094 36.6572L520.361 38.3174H518.457L518.14 29.2109H519.922C520.166 29.9434 520.573 30.7734 521.143 31.7012C521.712 32.6126 522.363 33.4346 523.096 34.167C523.861 34.8994 524.731 35.5179 525.708 36.0225C526.701 36.527 527.759 36.7793 528.882 36.7793C530.363 36.7793 531.462 36.4945 532.178 35.9248C532.91 35.3389 533.276 34.4437 533.276 33.2393C533.276 32.5882 533.114 32.0511 532.788 31.6279C532.463 31.2048 532.015 30.8385 531.445 30.5293C530.811 30.2038 530.111 29.9271 529.346 29.6992C528.597 29.4714 527.669 29.1947 526.562 28.8691C525.456 28.5436 524.504 28.2181 523.706 27.8926C522.925 27.5508 522.111 27.0218 521.265 26.3057C520.532 25.6709 519.946 24.9059 519.507 24.0107C519.067 23.1156 518.848 22.0495 518.848 20.8125C518.848 18.5176 519.808 16.6621 521.729 15.2461C523.665 13.8301 526.196 13.1221 529.321 13.1221C530.802 13.1221 532.161 13.2767 533.398 13.5859C534.652 13.8789 535.701 14.2044 536.548 14.5625L537.061 13.1221H538.916L539.307 21.4473H537.573C537.004 19.7546 536.027 18.2979 534.644 17.0771C533.26 15.8402 531.771 15.2217 530.176 15.2217C528.923 15.2217 527.938 15.4821 527.222 16.0029C526.506 16.5238 526.147 17.248 526.147 18.1758C526.147 19.4128 526.668 20.3079 527.71 20.8613C528.768 21.4147 530.241 21.9355 532.129 22.4238C535.042 23.1725 537.174 24.1979 538.525 25.5C539.876 26.7858 540.552 28.4297 540.552 30.4316C540.552 33.1009 539.502 35.168 537.402 36.6328C535.319 38.0977 532.593 38.8301 529.224 38.8301ZM569.8 32.165C569.23 33.0928 568.538 33.9717 567.725 34.8018C566.927 35.6156 566.016 36.3154 564.99 36.9014C563.9 37.5199 562.793 37.9837 561.67 38.293C560.563 38.6185 559.285 38.7812 557.837 38.7812C555.428 38.7812 553.345 38.4395 551.587 37.7559C549.845 37.0723 548.405 36.1527 547.266 34.9971C546.126 33.8415 545.272 32.4824 544.702 30.9199C544.149 29.3411 543.872 27.6322 543.872 25.793C543.872 24.1328 544.173 22.5459 544.775 21.0322C545.394 19.5023 546.265 18.1432 547.388 16.9551C548.494 15.7995 549.886 14.8636 551.562 14.1475C553.255 13.4313 555.143 13.0732 557.227 13.0732C559.505 13.0732 561.377 13.3499 562.842 13.9033C564.307 14.4567 565.519 15.2217 566.479 16.1982C567.407 17.126 568.083 18.2246 568.506 19.4941C568.929 20.7474 569.141 22.0658 569.141 23.4492V25.0361H552.637C552.637 28.3727 553.28 30.9118 554.565 32.6533C555.851 34.3949 557.894 35.2656 560.693 35.2656C562.223 35.2656 563.599 34.8506 564.819 34.0205C566.04 33.1742 567.082 32.1081 567.944 30.8223L569.8 32.165ZM560.474 22.8877C560.474 21.9111 560.425 20.9102 560.327 19.8848C560.229 18.8594 560.059 18.0212 559.814 17.3701C559.538 16.6051 559.155 16.0273 558.667 15.6367C558.195 15.2461 557.593 15.0508 556.86 15.0508C555.607 15.0508 554.606 15.6855 553.857 16.9551C553.109 18.2246 552.702 20.2347 552.637 22.9854L560.474 22.8877ZM19.5801 115.877C18.5384 116.333 17.4235 116.74 16.2354 117.098C15.0472 117.472 13.5986 117.659 11.8896 117.659C9.35059 117.659 7.46257 117.041 6.22559 115.804C5.00488 114.567 4.39453 112.801 4.39453 110.506V95.5156H0V92.8789H4.49219V85.4814H12.4268V92.8789H19.2627V95.5156H12.4756V108.895C12.4756 110.799 12.736 112.15 13.2568 112.947C13.7939 113.745 14.7461 114.144 16.1133 114.144C16.5527 114.144 17.1631 114.111 17.9443 114.046C18.7256 113.981 19.2708 113.908 19.5801 113.826V115.877ZM53.0273 117H38.3301V115.218C38.6556 115.185 39.0381 115.145 39.4775 115.096C39.917 115.047 40.2425 114.965 40.4541 114.852C40.7959 114.673 41.0319 114.412 41.1621 114.07C41.3086 113.729 41.3818 113.224 41.3818 112.557V101.131C41.3818 99.4544 41.0645 98.2012 40.4297 97.3711C39.8112 96.541 38.9242 96.126 37.7686 96.126C37.1175 96.126 36.5072 96.2236 35.9375 96.4189C35.3841 96.6143 34.8389 96.8991 34.3018 97.2734C33.8298 97.599 33.4473 97.9326 33.1543 98.2744C32.8776 98.6162 32.6416 98.9173 32.4463 99.1777V112.288C32.4463 112.89 32.5195 113.37 32.666 113.729C32.8125 114.07 33.0892 114.355 33.4961 114.583C33.7402 114.729 34.0576 114.86 34.4482 114.974C34.8551 115.088 35.2458 115.169 35.6201 115.218V117H20.7764V115.218C21.1995 115.185 21.6064 115.145 21.9971 115.096C22.404 115.047 22.762 114.965 23.0713 114.852C23.5921 114.656 23.9421 114.38 24.1211 114.021C24.3164 113.647 24.4141 113.159 24.4141 112.557V85.335C24.4141 84.8141 24.292 84.2607 24.0479 83.6748C23.8037 83.0889 23.4619 82.6494 23.0225 82.3564C22.6969 82.1449 22.2249 81.9821 21.6064 81.8682C20.988 81.738 20.4346 81.6566 19.9463 81.624V79.8418L32.0801 79.207L32.4463 79.5977V96.3945H32.5439C33.1624 95.8411 33.7158 95.3447 34.2041 94.9053C34.7087 94.4495 35.319 93.9938 36.0352 93.5381C36.6374 93.1475 37.4186 92.8138 38.3789 92.5371C39.3555 92.2604 40.4053 92.1221 41.5283 92.1221C44.165 92.1221 46.1426 92.8789 47.4609 94.3926C48.7956 95.9062 49.4629 97.9001 49.4629 100.374V112.337C49.4629 112.939 49.5524 113.419 49.7314 113.777C49.9105 114.135 50.2441 114.42 50.7324 114.632C51.0254 114.762 51.3509 114.876 51.709 114.974C52.0671 115.071 52.5065 115.153 53.0273 115.218V117ZM81.5186 111.165C80.9489 112.093 80.2572 112.972 79.4434 113.802C78.6458 114.616 77.7344 115.315 76.709 115.901C75.6185 116.52 74.5117 116.984 73.3887 117.293C72.2819 117.618 71.0042 117.781 69.5557 117.781C67.1468 117.781 65.0635 117.439 63.3057 116.756C61.5641 116.072 60.1237 115.153 58.9844 113.997C57.8451 112.841 56.9906 111.482 56.4209 109.92C55.8675 108.341 55.5908 106.632 55.5908 104.793C55.5908 103.133 55.8919 101.546 56.4941 100.032C57.1126 98.5023 57.9834 97.1432 59.1064 95.9551C60.2132 94.7995 61.6048 93.8636 63.2812 93.1475C64.974 92.4313 66.862 92.0732 68.9453 92.0732C71.224 92.0732 73.0957 92.3499 74.5605 92.9033C76.0254 93.4567 77.238 94.2217 78.1982 95.1982C79.126 96.126 79.8014 97.2246 80.2246 98.4941C80.6478 99.7474 80.8594 101.066 80.8594 102.449V104.036H64.3555C64.3555 107.373 64.9984 109.912 66.2842 111.653C67.57 113.395 69.6126 114.266 72.4121 114.266C73.9421 114.266 75.3174 113.851 76.5381 113.021C77.7588 112.174 78.8005 111.108 79.6631 109.822L81.5186 111.165ZM72.1924 101.888C72.1924 100.911 72.1436 99.9102 72.0459 98.8848C71.9482 97.8594 71.7773 97.0212 71.5332 96.3701C71.2565 95.6051 70.874 95.0273 70.3857 94.6367C69.9137 94.2461 69.3115 94.0508 68.5791 94.0508C67.3258 94.0508 66.3249 94.6855 65.5762 95.9551C64.8275 97.2246 64.4206 99.2347 64.3555 101.985L72.1924 101.888ZM107.886 117.83C106.307 117.83 104.761 117.594 103.247 117.122C101.75 116.666 100.586 116.178 99.7559 115.657L99.0234 117.317H97.1191L96.8018 108.211H98.584C98.8281 108.943 99.235 109.773 99.8047 110.701C100.374 111.613 101.025 112.435 101.758 113.167C102.523 113.899 103.394 114.518 104.37 115.022C105.363 115.527 106.421 115.779 107.544 115.779C109.025 115.779 110.124 115.494 110.84 114.925C111.572 114.339 111.938 113.444 111.938 112.239C111.938 111.588 111.776 111.051 111.45 110.628C111.125 110.205 110.677 109.839 110.107 109.529C109.473 109.204 108.773 108.927 108.008 108.699C107.259 108.471 106.331 108.195 105.225 107.869C104.118 107.544 103.166 107.218 102.368 106.893C101.587 106.551 100.773 106.022 99.9268 105.306C99.1943 104.671 98.6084 103.906 98.1689 103.011C97.7295 102.116 97.5098 101.049 97.5098 99.8125C97.5098 97.5176 98.4701 95.6621 100.391 94.2461C102.327 92.8301 104.858 92.1221 107.983 92.1221C109.465 92.1221 110.824 92.2767 112.061 92.5859C113.314 92.8789 114.364 93.2044 115.21 93.5625L115.723 92.1221H117.578L117.969 100.447H116.235C115.666 98.7546 114.689 97.2979 113.306 96.0771C111.922 94.8402 110.433 94.2217 108.838 94.2217C107.585 94.2217 106.6 94.4821 105.884 95.0029C105.168 95.5238 104.81 96.248 104.81 97.1758C104.81 98.4128 105.33 99.3079 106.372 99.8613C107.43 100.415 108.903 100.936 110.791 101.424C113.704 102.173 115.837 103.198 117.188 104.5C118.538 105.786 119.214 107.43 119.214 109.432C119.214 112.101 118.164 114.168 116.064 115.633C113.981 117.098 111.255 117.83 107.886 117.83ZM140.381 115.877C139.339 116.333 138.224 116.74 137.036 117.098C135.848 117.472 134.399 117.659 132.69 117.659C130.151 117.659 128.263 117.041 127.026 115.804C125.806 114.567 125.195 112.801 125.195 110.506V95.5156H120.801V92.8789H125.293V85.4814H133.228V92.8789H140.063V95.5156H133.276V108.895C133.276 110.799 133.537 112.15 134.058 112.947C134.595 113.745 135.547 114.144 136.914 114.144C137.354 114.144 137.964 114.111 138.745 114.046C139.526 113.981 140.072 113.908 140.381 113.826V115.877ZM166.406 97.249C166.406 98.486 166.024 99.5765 165.259 100.521C164.494 101.448 163.485 101.912 162.231 101.912C161.043 101.912 160.034 101.611 159.204 101.009C158.39 100.407 157.983 99.5195 157.983 98.3477C157.983 97.778 158.024 97.3385 158.105 97.0293C158.187 96.7038 158.26 96.4027 158.325 96.126C157.576 96.1585 156.787 96.4189 155.957 96.9072C155.127 97.3955 154.395 98.0465 153.76 98.8604V112.264C153.76 112.833 153.849 113.305 154.028 113.68C154.207 114.054 154.508 114.347 154.932 114.559C155.29 114.738 155.868 114.892 156.665 115.022C157.479 115.136 158.065 115.201 158.423 115.218V117H142.09V115.218C142.497 115.185 142.904 115.145 143.311 115.096C143.734 115.031 144.092 114.949 144.385 114.852C144.906 114.673 145.264 114.396 145.459 114.021C145.654 113.647 145.752 113.159 145.752 112.557V98.3477C145.752 97.7617 145.614 97.2409 145.337 96.7852C145.06 96.3132 144.727 95.9388 144.336 95.6621C144.043 95.4668 143.669 95.304 143.213 95.1738C142.773 95.0436 142.285 94.9541 141.748 94.9053V93.123L153.394 92.4883L153.76 92.8545V96.3945H153.857C154.98 95.0924 156.169 94.0752 157.422 93.3428C158.691 92.5941 160.01 92.2197 161.377 92.2197C162.891 92.2197 164.103 92.6917 165.015 93.6357C165.942 94.5635 166.406 95.7679 166.406 97.249ZM194.36 111.165C193.791 112.093 193.099 112.972 192.285 113.802C191.488 114.616 190.576 115.315 189.551 115.901C188.46 116.52 187.354 116.984 186.23 117.293C185.124 117.618 183.846 117.781 182.397 117.781C179.989 117.781 177.905 117.439 176.147 116.756C174.406 116.072 172.965 115.153 171.826 113.997C170.687 112.841 169.832 111.482 169.263 109.92C168.709 108.341 168.433 106.632 168.433 104.793C168.433 103.133 168.734 101.546 169.336 100.032C169.954 98.5023 170.825 97.1432 171.948 95.9551C173.055 94.7995 174.447 93.8636 176.123 93.1475C177.816 92.4313 179.704 92.0732 181.787 92.0732C184.066 92.0732 185.938 92.3499 187.402 92.9033C188.867 93.4567 190.08 94.2217 191.04 95.1982C191.968 96.126 192.643 97.2246 193.066 98.4941C193.49 99.7474 193.701 101.066 193.701 102.449V104.036H177.197C177.197 107.373 177.84 109.912 179.126 111.653C180.412 113.395 182.454 114.266 185.254 114.266C186.784 114.266 188.159 113.851 189.38 113.021C190.601 112.174 191.642 111.108 192.505 109.822L194.36 111.165ZM185.034 101.888C185.034 100.911 184.985 99.9102 184.888 98.8848C184.79 97.8594 184.619 97.0212 184.375 96.3701C184.098 95.6051 183.716 95.0273 183.228 94.6367C182.756 94.2461 182.153 94.0508 181.421 94.0508C180.168 94.0508 179.167 94.6855 178.418 95.9551C177.669 97.2246 177.262 99.2347 177.197 101.985L185.034 101.888ZM208.032 117.83C206.453 117.83 204.907 117.594 203.394 117.122C201.896 116.666 200.732 116.178 199.902 115.657L199.17 117.317H197.266L196.948 108.211H198.73C198.975 108.943 199.382 109.773 199.951 110.701C200.521 111.613 201.172 112.435 201.904 113.167C202.669 113.899 203.54 114.518 204.517 115.022C205.509 115.527 206.567 115.779 207.69 115.779C209.172 115.779 210.27 115.494 210.986 114.925C211.719 114.339 212.085 113.444 212.085 112.239C212.085 111.588 211.922 111.051 211.597 110.628C211.271 110.205 210.824 109.839 210.254 109.529C209.619 109.204 208.919 108.927 208.154 108.699C207.406 108.471 206.478 108.195 205.371 107.869C204.264 107.544 203.312 107.218 202.515 106.893C201.733 106.551 200.92 106.022 200.073 105.306C199.341 104.671 198.755 103.906 198.315 103.011C197.876 102.116 197.656 101.049 197.656 99.8125C197.656 97.5176 198.617 95.6621 200.537 94.2461C202.474 92.8301 205.005 92.1221 208.13 92.1221C209.611 92.1221 210.97 92.2767 212.207 92.5859C213.46 92.8789 214.51 93.2044 215.356 93.5625L215.869 92.1221H217.725L218.115 100.447H216.382C215.812 98.7546 214.836 97.2979 213.452 96.0771C212.069 94.8402 210.579 94.2217 208.984 94.2217C207.731 94.2217 206.746 94.4821 206.03 95.0029C205.314 95.5238 204.956 96.248 204.956 97.1758C204.956 98.4128 205.477 99.3079 206.519 99.8613C207.576 100.415 209.049 100.936 210.938 101.424C213.851 102.173 215.983 103.198 217.334 104.5C218.685 105.786 219.36 107.43 219.36 109.432C219.36 112.101 218.311 114.168 216.211 115.633C214.128 117.098 211.401 117.83 208.032 117.83ZM233.667 117.83C232.088 117.83 230.542 117.594 229.028 117.122C227.531 116.666 226.367 116.178 225.537 115.657L224.805 117.317H222.9L222.583 108.211H224.365C224.609 108.943 225.016 109.773 225.586 110.701C226.156 111.613 226.807 112.435 227.539 113.167C228.304 113.899 229.175 114.518 230.151 115.022C231.144 115.527 232.202 115.779 233.325 115.779C234.806 115.779 235.905 115.494 236.621 114.925C237.354 114.339 237.72 113.444 237.72 112.239C237.72 111.588 237.557 111.051 237.231 110.628C236.906 110.205 236.458 109.839 235.889 109.529C235.254 109.204 234.554 108.927 233.789 108.699C233.04 108.471 232.113 108.195 231.006 107.869C229.899 107.544 228.947 107.218 228.149 106.893C227.368 106.551 226.554 106.022 225.708 105.306C224.976 104.671 224.39 103.906 223.95 103.011C223.511 102.116 223.291 101.049 223.291 99.8125C223.291 97.5176 224.251 95.6621 226.172 94.2461C228.109 92.8301 230.64 92.1221 233.765 92.1221C235.246 92.1221 236.605 92.2767 237.842 92.5859C239.095 92.8789 240.145 93.2044 240.991 93.5625L241.504 92.1221H243.359L243.75 100.447H242.017C241.447 98.7546 240.47 97.2979 239.087 96.0771C237.703 94.8402 236.214 94.2217 234.619 94.2217C233.366 94.2217 232.381 94.4821 231.665 95.0029C230.949 95.5238 230.591 96.248 230.591 97.1758C230.591 98.4128 231.112 99.3079 232.153 99.8613C233.211 100.415 234.684 100.936 236.572 101.424C239.486 102.173 241.618 103.198 242.969 104.5C244.32 105.786 244.995 107.43 244.995 109.432C244.995 112.101 243.945 114.168 241.846 115.633C239.762 117.098 237.036 117.83 233.667 117.83ZM276.123 117H260.693V115.218C261.117 115.185 261.532 115.145 261.938 115.096C262.345 115.047 262.695 114.965 262.988 114.852C263.509 114.656 263.875 114.38 264.087 114.021C264.299 113.647 264.404 113.159 264.404 112.557V98.3477C264.404 97.778 264.274 97.2816 264.014 96.8584C263.753 96.4189 263.428 96.069 263.037 95.8086C262.744 95.6133 262.297 95.4261 261.694 95.2471C261.108 95.068 260.571 94.9541 260.083 94.9053V93.123L272.046 92.4883L272.412 92.8545V112.239C272.412 112.809 272.534 113.297 272.778 113.704C273.022 114.095 273.372 114.388 273.828 114.583C274.154 114.729 274.512 114.86 274.902 114.974C275.293 115.088 275.7 115.169 276.123 115.218V117ZM272.559 83.6992C272.559 84.9362 272.078 85.9941 271.118 86.873C270.174 87.7357 269.051 88.167 267.749 88.167C266.431 88.167 265.291 87.7357 264.331 86.873C263.387 85.9941 262.915 84.9362 262.915 83.6992C262.915 82.4622 263.387 81.4043 264.331 80.5254C265.291 79.6465 266.431 79.207 267.749 79.207C269.067 79.207 270.199 79.6465 271.143 80.5254C272.087 81.4043 272.559 82.4622 272.559 83.6992ZM310.596 117H295.898V115.218C296.208 115.185 296.582 115.145 297.021 115.096C297.461 115.047 297.795 114.965 298.022 114.852C298.364 114.673 298.608 114.412 298.755 114.07C298.901 113.729 298.975 113.224 298.975 112.557V101.131C298.975 99.4707 298.665 98.2256 298.047 97.3955C297.445 96.5492 296.549 96.126 295.361 96.126C294.71 96.126 294.1 96.2236 293.53 96.4189C292.977 96.6143 292.432 96.8991 291.895 97.2734C291.423 97.599 291.04 97.9326 290.747 98.2744C290.47 98.6162 290.234 98.9173 290.039 99.1777V112.288C290.039 112.858 290.12 113.338 290.283 113.729C290.446 114.103 290.715 114.388 291.089 114.583C291.349 114.729 291.675 114.86 292.065 114.974C292.456 115.088 292.839 115.169 293.213 115.218V117H278.369V115.218C278.776 115.185 279.183 115.145 279.59 115.096C280.013 115.031 280.371 114.949 280.664 114.852C281.185 114.673 281.543 114.396 281.738 114.021C281.934 113.647 282.031 113.159 282.031 112.557V98.3477C282.031 97.8431 281.901 97.3467 281.641 96.8584C281.38 96.3701 281.038 95.9714 280.615 95.6621C280.322 95.4668 279.948 95.304 279.492 95.1738C279.053 95.0436 278.564 94.9541 278.027 94.9053V93.123L289.673 92.4883L290.039 92.8545V96.3945H290.137C290.592 95.9876 291.146 95.4993 291.797 94.9297C292.448 94.36 293.05 93.8962 293.604 93.5381C294.206 93.1475 294.995 92.8138 295.972 92.5371C296.948 92.2604 297.99 92.1221 299.097 92.1221C301.75 92.1221 303.735 92.8789 305.054 94.3926C306.388 95.89 307.056 97.8838 307.056 100.374V112.337C307.056 112.939 307.145 113.419 307.324 113.777C307.503 114.135 307.837 114.42 308.325 114.632C308.586 114.746 308.903 114.86 309.277 114.974C309.668 115.088 310.107 115.169 310.596 115.218V117ZM349.463 108.797C350.439 109.448 351.253 110.319 351.904 111.409C352.555 112.483 352.881 113.81 352.881 115.389C352.881 118.432 351.424 120.963 348.511 122.981C345.597 125 341.846 126.009 337.256 126.009C333.968 126.009 331.177 125.301 328.882 123.885C326.587 122.485 325.439 120.76 325.439 118.709C325.439 117.553 325.806 116.577 326.538 115.779C327.287 114.982 328.28 114.583 329.517 114.583C330.802 114.583 331.852 114.933 332.666 115.633C333.496 116.316 333.911 117.236 333.911 118.392C333.911 119.189 333.765 120.076 333.472 121.053C333.195 122.046 332.975 122.778 332.812 123.25C333.171 123.413 333.634 123.535 334.204 123.616C334.774 123.714 335.441 123.763 336.206 123.763C337.15 123.763 338.07 123.608 338.965 123.299C339.876 122.99 340.666 122.485 341.333 121.785C342.033 121.053 342.57 120.19 342.944 119.197C343.335 118.221 343.53 116.919 343.53 115.291C343.53 114.363 343.441 113.484 343.262 112.654C343.099 111.824 342.79 111.1 342.334 110.481C341.878 109.863 341.252 109.383 340.454 109.041C339.673 108.683 338.672 108.504 337.451 108.504H334.351V105.55H336.548C338.599 105.55 340.08 104.948 340.991 103.743C341.919 102.522 342.383 100.667 342.383 98.1768C342.383 96.1748 341.935 94.6774 341.04 93.6846C340.161 92.6755 338.883 92.1709 337.207 92.1709C336.572 92.1709 336.019 92.2116 335.547 92.293C335.075 92.3581 334.595 92.4883 334.106 92.6836C334.285 93.237 334.505 94.0101 334.766 95.0029C335.026 95.9958 335.156 96.8421 335.156 97.542C335.156 98.6976 334.757 99.6172 333.96 100.301C333.162 100.984 332.121 101.326 330.835 101.326C329.614 101.326 328.638 100.927 327.905 100.13C327.189 99.3324 326.831 98.3639 326.831 97.2246C326.831 95.2064 327.995 93.4893 330.322 92.0732C332.666 90.641 335.604 89.9248 339.136 89.9248C341.577 89.9248 343.595 90.2096 345.19 90.7793C346.802 91.349 348.071 92.0488 348.999 92.8789C349.91 93.6927 350.537 94.5716 350.879 95.5156C351.237 96.4434 351.416 97.2816 351.416 98.0303C351.416 98.7464 351.261 99.5602 350.952 100.472C350.659 101.367 350.22 102.156 349.634 102.84C348.918 103.67 347.982 104.386 346.826 104.988C345.671 105.59 344.32 106.054 342.773 106.38V106.771C343.831 106.836 344.971 107.031 346.191 107.356C347.428 107.682 348.519 108.162 349.463 108.797ZM380.835 117.83C379.256 117.83 377.71 117.594 376.196 117.122C374.699 116.666 373.535 116.178 372.705 115.657L371.973 117.317H370.068L369.751 108.211H371.533C371.777 108.943 372.184 109.773 372.754 110.701C373.324 111.613 373.975 112.435 374.707 113.167C375.472 113.899 376.343 114.518 377.319 115.022C378.312 115.527 379.37 115.779 380.493 115.779C381.974 115.779 383.073 115.494 383.789 114.925C384.521 114.339 384.888 113.444 384.888 112.239C384.888 111.588 384.725 111.051 384.399 110.628C384.074 110.205 383.626 109.839 383.057 109.529C382.422 109.204 381.722 108.927 380.957 108.699C380.208 108.471 379.281 108.195 378.174 107.869C377.067 107.544 376.115 107.218 375.317 106.893C374.536 106.551 373.722 106.022 372.876 105.306C372.144 104.671 371.558 103.906 371.118 103.011C370.679 102.116 370.459 101.049 370.459 99.8125C370.459 97.5176 371.419 95.6621 373.34 94.2461C375.277 92.8301 377.808 92.1221 380.933 92.1221C382.414 92.1221 383.773 92.2767 385.01 92.5859C386.263 92.8789 387.313 93.2044 388.159 93.5625L388.672 92.1221H390.527L390.918 100.447H389.185C388.615 98.7546 387.638 97.2979 386.255 96.0771C384.871 94.8402 383.382 94.2217 381.787 94.2217C380.534 94.2217 379.549 94.4821 378.833 95.0029C378.117 95.5238 377.759 96.248 377.759 97.1758C377.759 98.4128 378.28 99.3079 379.321 99.8613C380.379 100.415 381.852 100.936 383.74 101.424C386.654 102.173 388.786 103.198 390.137 104.5C391.488 105.786 392.163 107.43 392.163 109.432C392.163 112.101 391.113 114.168 389.014 115.633C386.93 117.098 384.204 117.83 380.835 117.83ZM413.33 115.877C412.288 116.333 411.174 116.74 409.985 117.098C408.797 117.472 407.349 117.659 405.64 117.659C403.101 117.659 401.213 117.041 399.976 115.804C398.755 114.567 398.145 112.801 398.145 110.506V95.5156H393.75V92.8789H398.242V85.4814H406.177V92.8789H413.013V95.5156H406.226V108.895C406.226 110.799 406.486 112.15 407.007 112.947C407.544 113.745 408.496 114.144 409.863 114.144C410.303 114.144 410.913 114.111 411.694 114.046C412.476 113.981 413.021 113.908 413.33 113.826V115.877ZM441.284 111.165C440.715 112.093 440.023 112.972 439.209 113.802C438.411 114.616 437.5 115.315 436.475 115.901C435.384 116.52 434.277 116.984 433.154 117.293C432.048 117.618 430.77 117.781 429.321 117.781C426.912 117.781 424.829 117.439 423.071 116.756C421.33 116.072 419.889 115.153 418.75 113.997C417.611 112.841 416.756 111.482 416.187 109.92C415.633 108.341 415.356 106.632 415.356 104.793C415.356 103.133 415.658 101.546 416.26 100.032C416.878 98.5023 417.749 97.1432 418.872 95.9551C419.979 94.7995 421.37 93.8636 423.047 93.1475C424.74 92.4313 426.628 92.0732 428.711 92.0732C430.99 92.0732 432.861 92.3499 434.326 92.9033C435.791 93.4567 437.004 94.2217 437.964 95.1982C438.892 96.126 439.567 97.2246 439.99 98.4941C440.413 99.7474 440.625 101.066 440.625 102.449V104.036H424.121C424.121 107.373 424.764 109.912 426.05 111.653C427.336 113.395 429.378 114.266 432.178 114.266C433.708 114.266 435.083 113.851 436.304 113.021C437.524 112.174 438.566 111.108 439.429 109.822L441.284 111.165ZM431.958 101.888C431.958 100.911 431.909 99.9102 431.812 98.8848C431.714 97.8594 431.543 97.0212 431.299 96.3701C431.022 95.6051 430.64 95.0273 430.151 94.6367C429.679 94.2461 429.077 94.0508 428.345 94.0508C427.091 94.0508 426.09 94.6855 425.342 95.9551C424.593 97.2246 424.186 99.2347 424.121 101.985L431.958 101.888ZM473.389 105.11C473.389 108.545 472.241 111.491 469.946 113.948C467.651 116.406 464.746 117.635 461.23 117.635C459.668 117.635 458.398 117.472 457.422 117.146C456.445 116.837 455.64 116.455 455.005 115.999H454.81V122.859C454.81 123.429 454.932 123.925 455.176 124.349C455.436 124.772 455.794 125.081 456.25 125.276C456.689 125.455 457.308 125.618 458.105 125.765C458.919 125.911 459.595 126.001 460.132 126.033V127.84H442.505V126.033C442.912 126.001 443.424 125.936 444.043 125.838C444.661 125.757 445.125 125.667 445.435 125.569C445.955 125.39 446.305 125.081 446.484 124.642C446.68 124.218 446.777 123.73 446.777 123.177V98.2012C446.729 97.6641 446.598 97.1921 446.387 96.7852C446.191 96.3783 445.874 96.0202 445.435 95.7109C445.109 95.4993 444.678 95.3285 444.141 95.1982C443.604 95.0518 443.075 94.9541 442.554 94.9053V93.123L454.443 92.4883L454.81 92.8057V95.5156L455.005 95.5645C456.079 94.474 457.267 93.6276 458.569 93.0254C459.888 92.4232 461.19 92.1221 462.476 92.1221C465.845 92.1221 468.506 93.3184 470.459 95.7109C472.412 98.0872 473.389 101.22 473.389 105.11ZM464.624 105.208C464.624 103.987 464.535 102.824 464.355 101.717C464.176 100.594 463.859 99.5928 463.403 98.7139C462.964 97.835 462.378 97.1351 461.646 96.6143C460.929 96.0934 460.05 95.833 459.009 95.833C457.951 95.833 457.104 96.0202 456.47 96.3945C455.835 96.7526 455.282 97.2246 454.81 97.8105V111.653C454.907 111.979 455.094 112.402 455.371 112.923C455.648 113.427 455.924 113.834 456.201 114.144C456.608 114.583 457.072 114.909 457.593 115.12C458.114 115.332 458.683 115.438 459.302 115.438C460.913 115.438 462.199 114.575 463.159 112.85C464.136 111.108 464.624 108.561 464.624 105.208ZM487.866 117.83C486.287 117.83 484.741 117.594 483.228 117.122C481.73 116.666 480.566 116.178 479.736 115.657L479.004 117.317H477.1L476.782 108.211H478.564C478.809 108.943 479.215 109.773 479.785 110.701C480.355 111.613 481.006 112.435 481.738 113.167C482.503 113.899 483.374 114.518 484.351 115.022C485.343 115.527 486.401 115.779 487.524 115.779C489.006 115.779 490.104 115.494 490.82 114.925C491.553 114.339 491.919 113.444 491.919 112.239C491.919 111.588 491.756 111.051 491.431 110.628C491.105 110.205 490.658 109.839 490.088 109.529C489.453 109.204 488.753 108.927 487.988 108.699C487.24 108.471 486.312 108.195 485.205 107.869C484.098 107.544 483.146 107.218 482.349 106.893C481.567 106.551 480.754 106.022 479.907 105.306C479.175 104.671 478.589 103.906 478.149 103.011C477.71 102.116 477.49 101.049 477.49 99.8125C477.49 97.5176 478.451 95.6621 480.371 94.2461C482.308 92.8301 484.839 92.1221 487.964 92.1221C489.445 92.1221 490.804 92.2767 492.041 92.5859C493.294 92.8789 494.344 93.2044 495.19 93.5625L495.703 92.1221H497.559L497.949 100.447H496.216C495.646 98.7546 494.67 97.2979 493.286 96.0771C491.903 94.8402 490.413 94.2217 488.818 94.2217C487.565 94.2217 486.58 94.4821 485.864 95.0029C485.148 95.5238 484.79 96.248 484.79 97.1758C484.79 98.4128 485.311 99.3079 486.353 99.8613C487.41 100.415 488.883 100.936 490.771 101.424C493.685 102.173 495.817 103.198 497.168 104.5C498.519 105.786 499.194 107.43 499.194 109.432C499.194 112.101 498.145 114.168 496.045 115.633C493.962 117.098 491.235 117.83 487.866 117.83Z" fill="#5072A7"/>
</svg>
