<svg viewBox="0 0 435 135" fill="none" xmlns="http://www.w3.org/2000/svg"><path d="M40.958 25.338a11.179 11.179 0 013.3 3.523c.847 1.397 1.27 3.047 1.27 4.951 0 2.286-.486 4.222-1.46 5.809-.952 1.565-2.327 2.803-4.126 3.713-1.904.973-4.104 1.661-6.601 2.063-2.476.402-5.396.603-8.76.603H1.19v-2.476a84.687 84.687 0 002.476-.285c.994-.127 1.692-.275 2.094-.445.783-.317 1.312-.73 1.587-1.237.296-.53.444-1.206.444-2.032V7.787c0-.762-.116-1.396-.349-1.904C7.21 5.375 6.65 4.93 5.76 4.55c-.656-.275-1.417-.497-2.285-.667-.867-.19-1.63-.338-2.285-.444V.963h24.47c6.157 0 10.6.847 13.33 2.54 2.73 1.692 4.094 4.189 4.094 7.49 0 1.523-.306 2.867-.92 4.03-.614 1.143-1.492 2.137-2.634 2.984-1.037.783-2.275 1.46-3.714 2.031a32.113 32.113 0 01-4.633 1.428v.603c1.65.17 3.364.54 5.141 1.111 1.778.55 3.322 1.27 4.634 2.158zm-10.22-13.552c0-2.497-.709-4.443-2.126-5.84-1.397-1.396-3.502-2.094-6.316-2.094-.402 0-.931.02-1.587.063-.635.021-1.185.042-1.65.064v16.694h1.65c3.428 0 5.956-.794 7.585-2.38 1.63-1.609 2.444-3.777 2.444-6.507zM32.96 33.4c0-3.132-.931-5.533-2.793-7.205-1.862-1.671-4.539-2.507-8.03-2.507-.402 0-.941.021-1.618.064-.656.02-1.143.042-1.46.063v16.472c.19.783.782 1.45 1.777 2 .994.529 2.2.793 3.618.793 2.518 0 4.56-.846 6.126-2.539 1.587-1.693 2.38-4.073 2.38-7.141zm51.257 5.015a19.399 19.399 0 01-2.698 3.427 16.195 16.195 0 01-3.554 2.73 18.93 18.93 0 01-4.317 1.809c-1.438.423-3.1.635-4.983.635-3.131 0-5.84-.445-8.125-1.333-2.264-.89-4.136-2.084-5.617-3.587a14.552 14.552 0 01-3.333-5.3c-.72-2.053-1.079-4.274-1.079-6.665 0-2.158.392-4.221 1.174-6.19a16.829 16.829 0 013.396-5.3c1.44-1.502 3.248-2.718 5.428-3.65 2.2-.93 4.655-1.396 7.363-1.396 2.962 0 5.396.36 7.3 1.08 1.904.719 3.48 1.713 4.729 2.983a10.804 10.804 0 012.634 4.284c.55 1.63.825 3.343.825 5.142v2.063H61.905c0 4.337.836 7.638 2.508 9.902 1.671 2.264 4.327 3.396 7.966 3.396 1.989 0 3.777-.54 5.364-1.618 1.587-1.1 2.94-2.486 4.062-4.158l2.412 1.746zM72.093 26.354c0-1.27-.063-2.57-.19-3.904-.127-1.333-.35-2.422-.667-3.269-.36-.994-.857-1.745-1.491-2.253-.614-.508-1.397-.762-2.349-.762-1.63 0-2.93.825-3.904 2.476-.973 1.65-1.502 4.263-1.587 7.839l10.188-.127zm67.984 18.98c-.931.401-2.032.772-3.301 1.11-1.27.339-2.613.508-4.031.508-2.602 0-4.517-.38-5.745-1.142-1.227-.783-2.062-1.894-2.507-3.333h-.19c-.72.72-1.418 1.333-2.095 1.84-.656.509-1.365.942-2.126 1.302-.995.466-1.958.804-2.889 1.016-.909.233-2.19.349-3.84.349-2.454 0-4.549-.72-6.284-2.158-1.735-1.46-2.603-3.386-2.603-5.777 0-1.375.191-2.539.572-3.49a7.9 7.9 0 011.618-2.572 8.519 8.519 0 012.19-1.682 25.829 25.829 0 012.761-1.238c1.905-.698 4.19-1.417 6.856-2.158 2.666-.761 4.613-1.439 5.84-2.031V22.83c0-.529-.043-1.227-.127-2.095-.085-.867-.265-1.597-.54-2.19a4.181 4.181 0 00-1.396-1.713c-.635-.466-1.471-.699-2.508-.699-.931 0-1.713.138-2.348.413-.614.254-1.111.518-1.492.793.064.424.243 1.069.54 1.936.296.868.444 1.704.444 2.508 0 .36-.095.814-.286 1.364-.19.53-.465.953-.825 1.27a5.439 5.439 0 01-1.65.984c-.593.233-1.513.349-2.761.349-1.778 0-3.121-.423-4.031-1.27-.91-.867-1.365-1.989-1.365-3.364 0-1.185.466-2.243 1.396-3.174.953-.952 2.106-1.735 3.46-2.348 1.333-.635 2.867-1.122 4.602-1.46 1.735-.36 3.343-.54 4.824-.54 2.053 0 3.936.127 5.65.381 1.714.233 3.258.73 4.633 1.492 1.312.74 2.349 1.82 3.111 3.237.783 1.397 1.174 3.227 1.174 5.49 0 2.392-.053 5.227-.159 8.507-.084 3.28-.127 5.438-.127 6.474 0 .952.138 1.704.413 2.254.296.55.741.962 1.333 1.237.36.17.92.276 1.682.318a80.14 80.14 0 002.127.032v2.316zm-15.774-16.536a38.104 38.104 0 00-3.523 1.396c-1.164.508-2.116 1.048-2.857 1.619a6.112 6.112 0 00-1.84 2.285c-.445.91-.667 1.99-.667 3.237 0 1.65.37 2.846 1.111 3.587.762.74 1.693 1.11 2.793 1.11 1.164 0 2.116-.232 2.856-.697a8.445 8.445 0 002-1.778l.127-10.76zm72.934-11.965a7.142 7.142 0 00-2.697.983c-.826.487-1.524 1.408-2.095 2.762a1254.523 1254.523 0 00-3.555 8.76 786.59 786.59 0 00-3.745 9.616c-.339.868-.751 2.063-1.238 3.587a195.655 195.655 0 00-1.111 3.745h-6.189l-7.998-21.582-7.49 21.582h-6.125c-2.137-5.777-3.82-10.252-5.047-13.426a1905.51 1905.51 0 00-4.919-12.631c-.381-.995-1.037-1.778-1.968-2.35-.91-.57-1.851-.92-2.825-1.047v-2.316h19.488v2.316c-.72.064-1.577.233-2.571.508-.995.275-1.492.646-1.492 1.111 0 .212.021.402.064.572.063.148.158.433.285.856.572 1.65 1.354 3.788 2.349 6.412a5359.37 5359.37 0 003.491 9.108l7.046-20.883h6.284l8.03 21.582a406.783 406.783 0 002.825-7.681 544.036 544.036 0 002.539-7.268c.148-.444.233-.836.254-1.174.042-.36.053-.593.031-.699 0-.38-.19-.719-.571-1.015a4.484 4.484 0 00-1.365-.762 11.545 11.545 0 00-1.555-.444c-.486-.106-.899-.18-1.238-.223v-2.316h13.108v2.316zm37.674 28.5c-.931.403-2.032.773-3.301 1.111-1.27.339-2.613.508-4.031.508-2.602 0-4.517-.38-5.745-1.142-1.227-.783-2.063-1.894-2.507-3.333h-.19c-.72.72-1.418 1.333-2.095 1.84-.656.509-1.365.942-2.126 1.302-.995.466-1.958.804-2.889 1.016-.909.233-2.19.349-3.84.349-2.454 0-4.549-.72-6.284-2.158-1.735-1.46-2.603-3.386-2.603-5.777 0-1.375.191-2.539.572-3.49a7.9 7.9 0 011.618-2.572 8.519 8.519 0 012.19-1.682 25.829 25.829 0 012.761-1.238c1.905-.698 4.19-1.417 6.856-2.158 2.666-.761 4.613-1.439 5.84-2.031V22.83c0-.529-.043-1.227-.127-2.095-.085-.867-.265-1.597-.54-2.19a4.19 4.19 0 00-1.396-1.713c-.635-.466-1.471-.699-2.508-.699-.931 0-1.713.138-2.348.413-.614.254-1.111.518-1.492.793.064.424.243 1.069.54 1.936.296.868.444 1.704.444 2.508 0 .36-.095.814-.286 1.364-.19.53-.465.953-.825 1.27a5.439 5.439 0 01-1.65.984c-.593.233-1.513.349-2.761.349-1.778 0-3.121-.423-4.031-1.27-.91-.867-1.365-1.989-1.365-3.364 0-1.185.465-2.243 1.396-3.174.953-.952 2.106-1.735 3.46-2.348 1.333-.635 2.867-1.122 4.602-1.46 1.735-.36 3.343-.54 4.824-.54 2.053 0 3.936.127 5.65.381 1.714.233 3.258.73 4.633 1.492 1.312.74 2.349 1.82 3.111 3.237.783 1.397 1.174 3.227 1.174 5.49 0 2.392-.053 5.227-.159 8.507-.084 3.28-.127 5.438-.127 6.474 0 .952.138 1.704.413 2.254.296.55.741.962 1.333 1.237.36.17.92.276 1.682.318a80.14 80.14 0 002.127.032v2.316zm-15.774-16.535a38.104 38.104 0 00-3.523 1.396c-1.164.508-2.116 1.048-2.857 1.619a6.112 6.112 0 00-1.84 2.285c-.445.91-.667 1.99-.667 3.237 0 1.65.37 2.846 1.111 3.587.762.74 1.693 1.11 2.793 1.11 1.164 0 2.116-.232 2.856-.697a8.445 8.445 0 002-1.778l.127-10.76zm49.829-8.474c0 1.608-.497 3.025-1.492 4.253-.994 1.206-2.306 1.809-3.935 1.809-1.545 0-2.857-.392-3.936-1.175-1.058-.782-1.587-1.936-1.587-3.459 0-.74.053-1.312.159-1.714.106-.423.201-.814.285-1.174-.973.042-1.999.38-3.078 1.015-1.079.635-2.031 1.481-2.857 2.54v17.424c0 .74.117 1.354.35 1.84.232.487.624.868 1.174 1.143.465.233 1.216.434 2.253.603 1.058.148 1.82.233 2.285.254V46h-21.233v-2.317a40.2 40.2 0 001.587-.159 8.616 8.616 0 001.397-.317c.677-.233 1.142-.592 1.396-1.08.254-.486.381-1.12.381-1.903V21.752c0-.762-.18-1.439-.539-2.031-.36-.614-.794-1.1-1.302-1.46-.38-.254-.867-.466-1.46-.635a9.837 9.837 0 00-1.904-.35V14.96l15.139-.825.476.476v4.602h.127c1.46-1.693 3.005-3.015 4.634-3.967 1.651-.974 3.364-1.46 5.142-1.46 1.968 0 3.544.613 4.729 1.84 1.206 1.207 1.809 2.772 1.809 4.698zm36.34 18.09a19.372 19.372 0 01-2.698 3.428 16.174 16.174 0 01-3.554 2.73 18.942 18.942 0 01-4.317 1.809c-1.438.423-3.099.635-4.983.635-3.131 0-5.839-.445-8.125-1.333-2.264-.89-4.136-2.084-5.617-3.587a14.561 14.561 0 01-3.333-5.3c-.719-2.053-1.079-4.274-1.079-6.665 0-2.158.392-4.221 1.174-6.19a16.825 16.825 0 013.396-5.3c1.439-1.502 3.248-2.718 5.428-3.65 2.2-.93 4.655-1.396 7.363-1.396 2.962 0 5.395.36 7.3 1.08 1.904.719 3.48 1.713 4.729 2.983a10.801 10.801 0 012.634 4.284c.55 1.63.825 3.343.825 5.142v2.063h-21.455c0 4.337.836 7.638 2.507 9.902 1.672 2.264 4.327 3.396 7.967 3.396 1.989 0 3.777-.54 5.364-1.618 1.586-1.1 2.941-2.486 4.062-4.158l2.412 1.746zm-12.124-12.06c0-1.27-.063-2.57-.19-3.904-.127-1.333-.349-2.422-.667-3.269-.36-.994-.857-1.745-1.492-2.253-.613-.508-1.396-.762-2.348-.762-1.629 0-2.931.825-3.904 2.476-.973 1.65-1.502 4.263-1.587 7.839l10.188-.127zm30.469 17.964c0 2.581-1.079 5.215-3.237 7.903-2.159 2.708-4.751 4.75-7.776 6.125l-1.397-2.253a28.185 28.185 0 002.92-1.778 12.417 12.417 0 002.476-2.221c.74-.889 1.322-1.799 1.745-2.73.445-.91.72-2.031.826-3.364h-1.778c-2.158 0-3.787-.487-4.888-1.46-1.1-.973-1.65-2.317-1.65-4.03 0-1.355.529-2.572 1.587-3.65 1.058-1.1 2.359-1.651 3.904-1.651 2.37 0 4.168.815 5.395 2.444 1.249 1.608 1.873 3.83 1.873 6.665zM63.08 120H38.673v-2.476c.72-.063 1.597-.169 2.634-.317 1.058-.148 1.777-.307 2.158-.476.783-.317 1.344-.751 1.682-1.301.339-.55.508-1.249.508-2.095V79.692L30.167 119.27h-3.999c-.19-.698-.666-2.084-1.428-4.158a406.601 406.601 0 00-1.81-4.983L11.538 79.185v27.39c0 2.623.169 4.623.507 5.998.36 1.354.931 2.349 1.714 2.984.53.444 1.47.867 2.825 1.269 1.375.402 2.338.635 2.888.698V120H.111v-2.476c.529-.063 1.386-.201 2.57-.412 1.207-.233 2.19-.624 2.952-1.174.847-.593 1.418-1.587 1.714-2.984.296-1.418.444-3.428.444-6.03V84.612c0-1.354-.169-2.476-.507-3.364-.339-.91-.847-1.63-1.524-2.159-.846-.656-1.714-1.079-2.602-1.27a19.248 19.248 0 00-2.698-.38v-2.476h20.725l11.109 29.739 9.362-24.153c.318-.888.624-1.946.92-3.174.297-1.227.456-2.03.477-2.412h19.963v2.476c-.677.042-1.386.127-2.126.254s-1.45.296-2.127.508c-.825.275-1.375.709-1.65 1.301a4.945 4.945 0 00-.381 1.968v31.897c0 .761.127 1.407.38 1.936.276.508.826.952 1.651 1.333.423.19 1.111.37 2.063.539.974.17 1.725.286 2.254.349V120zm40.561-.667c-.931.403-2.031.773-3.301 1.111a15.56 15.56 0 01-4.03.508c-2.603 0-4.518-.381-5.745-1.142-1.227-.783-2.063-1.894-2.507-3.333h-.19a19.848 19.848 0 01-2.096 1.841 11.44 11.44 0 01-2.126 1.301 14.33 14.33 0 01-2.888 1.016c-.91.233-2.19.349-3.84.349-2.455 0-4.55-.72-6.285-2.158-1.735-1.46-2.602-3.386-2.602-5.777 0-1.375.19-2.539.571-3.491.38-.973.92-1.83 1.619-2.571a8.529 8.529 0 012.19-1.682 25.855 25.855 0 012.76-1.238c1.905-.698 4.19-1.417 6.856-2.158 2.666-.762 4.613-1.439 5.84-2.031V96.83c0-.529-.042-1.227-.127-2.095-.084-.867-.264-1.597-.54-2.19a4.186 4.186 0 00-1.396-1.714c-.635-.465-1.47-.698-2.507-.698-.931 0-1.714.138-2.349.413-.613.254-1.11.518-1.491.793.063.423.243 1.069.54 1.936.295.868.443 1.704.443 2.508 0 .36-.095.814-.285 1.364-.19.53-.466.953-.825 1.27a5.43 5.43 0 01-1.65.984c-.593.233-1.514.349-2.762.349-1.777 0-3.121-.423-4.03-1.27-.91-.867-1.366-1.988-1.366-3.364 0-1.185.466-2.243 1.397-3.174.952-.952 2.105-1.735 3.46-2.348 1.332-.635 2.866-1.122 4.602-1.46 1.735-.36 3.343-.54 4.824-.54 2.052 0 3.935.127 5.65.381 1.713.233 3.258.73 4.633 1.492 1.312.74 2.349 1.82 3.11 3.237.783 1.397 1.175 3.227 1.175 5.49 0 2.392-.053 5.227-.16 8.507-.084 3.279-.126 5.437-.126 6.474 0 .952.137 1.704.412 2.254.297.55.741.962 1.334 1.237.359.17.92.276 1.682.318.783.021 1.491.032 2.126.032v2.316zm-15.774-16.535a38.06 38.06 0 00-3.523 1.396c-1.163.508-2.116 1.048-2.856 1.619a6.113 6.113 0 00-1.841 2.285c-.444.91-.666 1.989-.666 3.237 0 1.651.37 2.846 1.11 3.587.762.74 1.693 1.111 2.793 1.111 1.164 0 2.116-.233 2.857-.699a8.424 8.424 0 002-1.777l.126-10.759zM147.98 120h-19.106v-2.317c.402-.042.889-.095 1.46-.159.571-.063 1.005-.169 1.301-.317.445-.233.762-.571.952-1.016.191-.444.286-1.1.286-1.967V99.37c0-2.158-.402-3.777-1.206-4.856-.783-1.1-1.947-1.65-3.491-1.65-.847 0-1.64.127-2.381.38a8.911 8.911 0 00-2.126 1.112c-.614.423-1.111.856-1.492 1.3-.359.445-.666.837-.92 1.175v17.044c0 .74.106 1.364.317 1.872.212.487.561.857 1.048 1.111.338.19.761.36 1.269.508a9.855 9.855 0 001.492.317V120h-19.297v-2.317a38.74 38.74 0 001.587-.159 8.542 8.542 0 001.396-.317c.677-.233 1.143-.592 1.397-1.079s.381-1.121.381-1.904V95.752c0-.656-.17-1.301-.508-1.936a4.546 4.546 0 00-1.333-1.555c-.381-.254-.868-.466-1.46-.635a9.837 9.837 0 00-1.904-.35V88.96l15.139-.825.476.476v4.602h.127a291.5 291.5 0 012.158-1.904c.846-.741 1.629-1.344 2.349-1.81.783-.507 1.809-.941 3.078-1.3 1.27-.36 2.624-.54 4.063-.54 3.449 0 6.03.984 7.744 2.951 1.735 1.947 2.602 4.539 2.602 7.776v15.552c0 .783.117 1.407.35 1.873.232.465.666.835 1.301 1.11.338.148.751.297 1.238.445a9.48 9.48 0 001.713.317V120zm39.261-.667c-.931.403-2.032.773-3.301 1.111-1.27.339-2.613.508-4.031.508-2.602 0-4.517-.381-5.744-1.142-1.228-.783-2.063-1.894-2.508-3.333h-.19a19.909 19.909 0 01-2.095 1.841c-.656.508-1.365.941-2.126 1.301-.995.466-1.958.804-2.889 1.016-.909.233-2.189.349-3.84.349-2.454 0-4.549-.72-6.284-2.158-1.735-1.46-2.603-3.386-2.603-5.777 0-1.375.191-2.539.572-3.491.381-.973.92-1.83 1.618-2.571a8.536 8.536 0 012.19-1.682 25.877 25.877 0 012.762-1.238c1.904-.698 4.189-1.417 6.855-2.158 2.666-.762 4.613-1.439 5.84-2.031V96.83c0-.529-.042-1.227-.127-2.095-.085-.867-.265-1.597-.54-2.19a4.181 4.181 0 00-1.396-1.714c-.635-.465-1.471-.698-2.507-.698-.931 0-1.714.138-2.349.413-.614.254-1.111.518-1.492.793.064.423.244 1.069.54 1.936.296.868.444 1.704.444 2.508 0 .36-.095.814-.286 1.364-.19.53-.465.953-.825 1.27a5.427 5.427 0 01-1.65.984c-.593.233-1.513.349-2.761.349-1.778 0-3.121-.423-4.031-1.27-.91-.867-1.365-1.988-1.365-3.364 0-1.185.466-2.243 1.397-3.174.952-.952 2.105-1.735 3.459-2.348 1.333-.635 2.867-1.122 4.602-1.46 1.735-.36 3.343-.54 4.824-.54 2.053 0 3.936.127 5.65.381 1.714.233 3.258.73 4.634 1.492 1.311.74 2.348 1.82 3.11 3.237.783 1.397 1.174 3.227 1.174 5.49 0 2.392-.053 5.227-.159 8.507-.084 3.279-.126 5.437-.126 6.474 0 .952.137 1.704.412 2.254.296.55.741.962 1.333 1.237.36.17.921.276 1.682.318a80.14 80.14 0 002.127.032v2.316zm-15.774-16.535a38.072 38.072 0 00-3.523 1.396c-1.164.508-2.116 1.048-2.857 1.619a6.117 6.117 0 00-1.84 2.285c-.445.91-.667 1.989-.667 3.237 0 1.651.37 2.846 1.111 3.587.762.74 1.693 1.111 2.793 1.111 1.164 0 2.116-.233 2.856-.699a8.415 8.415 0 002-1.777l.127-10.759zM225.23 92.07h-6.982c.825.931 1.439 1.915 1.841 2.952a8.49 8.49 0 01.635 3.237c0 1.46-.392 2.836-1.175 4.126a9.609 9.609 0 01-3.078 3.111c-1.291.825-2.804 1.47-4.539 1.936-1.735.465-3.618.698-5.649.698h-5.174c-.254.19-.539.497-.857.92-.296.402-.444.794-.444 1.175 0 .931.37 1.576 1.111 1.936.741.359 2.084.56 4.031.603 1.925.042 3.872.127 5.84.254 1.967.105 3.374.169 4.221.19 1.227.063 2.444.317 3.65.762 1.206.423 2.253.984 3.142 1.682.973.74 1.777 1.693 2.412 2.856.635 1.143.952 2.465.952 3.968a9.24 9.24 0 01-1.174 4.538c-.762 1.418-1.936 2.645-3.523 3.682-1.672 1.079-3.682 1.915-6.031 2.507-2.327.593-5.215.889-8.664.889-5.565 0-9.797-.677-12.695-2.031-2.899-1.355-4.349-3.386-4.349-6.094 0-1.672.783-3.047 2.349-4.126 1.566-1.079 3.999-1.672 7.3-1.778v-.38c-1.947-.656-3.47-1.524-4.57-2.603-1.08-1.1-1.619-2.37-1.619-3.809 0-.888.212-1.639.635-2.253a6.821 6.821 0 011.682-1.619c.592-.402 1.312-.74 2.158-1.015a47.369 47.369 0 012.126-.698v-.35c-2.856-1.058-4.961-2.348-6.315-3.872-1.333-1.523-2-3.385-2-5.586 0-3.11 1.428-5.596 4.285-7.458 2.877-1.862 6.517-2.793 10.918-2.793 1.438 0 2.824.127 4.157.38 1.355.234 2.381.445 3.079.636h12.314v3.427zm-14.885 6.062c0-2.475-.391-4.433-1.174-5.871-.783-1.44-1.989-2.158-3.618-2.158-.825 0-1.545.2-2.158.603-.614.38-1.111.941-1.492 1.682-.36.72-.603 1.566-.73 2.539a22.309 22.309 0 00-.191 2.951c0 2.307.402 4.2 1.206 5.682.805 1.481 1.947 2.221 3.428 2.221 1.524 0 2.687-.666 3.491-1.999.826-1.333 1.238-3.216 1.238-5.65zm5.332 26.66c0-.719-.201-1.438-.603-2.158-.402-.698-1.301-1.269-2.698-1.714-.761-.127-2.02-.211-3.776-.253a307.657 307.657 0 00-7.173-.064 8.798 8.798 0 00-1.873 2.253c-.486.868-.73 1.915-.73 3.143 0 .529.148 1.11.445 1.745.296.635.761 1.227 1.396 1.777a8.504 8.504 0 002.476 1.429c.909.359 2.285.539 4.126.539 2.729 0 4.813-.529 6.252-1.587 1.439-1.058 2.158-2.761 2.158-5.11zm45.64-12.377a19.41 19.41 0 01-2.698 3.427 16.212 16.212 0 01-3.555 2.73 18.911 18.911 0 01-4.316 1.809c-1.439.423-3.1.635-4.983.635-3.131 0-5.84-.445-8.125-1.333-2.264-.889-4.136-2.085-5.618-3.587a14.557 14.557 0 01-3.332-5.3c-.719-2.053-1.079-4.274-1.079-6.665 0-2.158.391-4.221 1.174-6.19a16.825 16.825 0 013.396-5.3c1.439-1.502 3.248-2.718 5.427-3.65 2.201-.93 4.655-1.396 7.364-1.396 2.962 0 5.395.36 7.299 1.08 1.905.719 3.481 1.713 4.729 2.983a10.792 10.792 0 012.635 4.284c.55 1.63.825 3.344.825 5.142v2.063h-21.455c0 4.338.836 7.638 2.507 9.902 1.672 2.264 4.327 3.396 7.967 3.396 1.988 0 3.776-.539 5.363-1.618 1.587-1.101 2.941-2.487 4.063-4.158l2.412 1.746zm-12.124-12.061c0-1.27-.064-2.57-.191-3.904-.127-1.333-.349-2.422-.666-3.269-.36-.994-.857-1.745-1.492-2.253-.613-.508-1.396-.762-2.348-.762-1.63 0-2.931.825-3.904 2.476-.974 1.65-1.502 4.263-1.587 7.839l10.188-.127zm86.423-9.522a7.153 7.153 0 00-2.698.984c-.825.487-1.523 1.407-2.094 2.762a1270.002 1270.002 0 00-3.555 8.759 792.26 792.26 0 00-3.745 9.617c-.339.868-.751 2.063-1.238 3.587a193.12 193.12 0 00-1.111 3.745h-6.189l-7.998-21.582-7.49 21.582h-6.125c-2.137-5.777-3.82-10.252-5.047-13.426a1906.817 1906.817 0 00-4.919-12.632c-.381-.994-1.037-1.777-1.968-2.348-.91-.571-1.851-.92-2.825-1.047v-2.317h19.488v2.316c-.72.064-1.577.233-2.571.508-.995.275-1.492.646-1.492 1.111 0 .212.021.402.064.572.063.148.158.433.285.856.571 1.65 1.354 3.788 2.349 6.412a5359.37 5359.37 0 003.491 9.108l7.046-20.883h6.284l8.03 21.582a407.97 407.97 0 002.825-7.681 543.535 543.535 0 002.539-7.268 4.76 4.76 0 00.254-1.174c.042-.36.052-.593.031-.699 0-.38-.19-.719-.571-1.015a4.484 4.484 0 00-1.365-.762 11.545 11.545 0 00-1.555-.444c-.487-.106-.899-.18-1.238-.223v-2.316h13.108v2.316zm35.515 21.583a19.358 19.358 0 01-2.697 3.427 16.212 16.212 0 01-3.555 2.73 18.937 18.937 0 01-4.317 1.809c-1.438.423-3.099.635-4.982.635-3.132 0-5.84-.445-8.125-1.333-2.264-.889-4.137-2.085-5.618-3.587a14.56 14.56 0 01-3.333-5.3c-.719-2.053-1.079-4.274-1.079-6.665 0-2.158.392-4.221 1.175-6.19a16.825 16.825 0 013.396-5.3c1.438-1.502 3.247-2.718 5.427-3.65 2.2-.93 4.655-1.396 7.363-1.396 2.962 0 5.396.36 7.3 1.08 1.904.719 3.481 1.713 4.729 2.983a10.801 10.801 0 012.634 4.284c.55 1.63.825 3.344.825 5.142v2.063h-21.455c0 4.338.836 7.638 2.508 9.902 1.671 2.264 4.327 3.396 7.966 3.396 1.989 0 3.777-.539 5.364-1.618 1.587-1.101 2.941-2.487 4.062-4.158l2.412 1.746zm-12.124-12.061c0-1.27-.063-2.57-.19-3.904-.127-1.333-.349-2.422-.667-3.269-.359-.994-.857-1.745-1.491-2.253-.614-.508-1.397-.762-2.349-.762-1.629 0-2.93.825-3.904 2.476-.973 1.65-1.502 4.263-1.587 7.839l10.188-.127zM393.539 120h-19.9v-2.317a32.51 32.51 0 001.587-.159 6.156 6.156 0 001.396-.317c.677-.254 1.132-.614 1.365-1.079.254-.487.381-1.121.381-1.904V79.058c0-.804-.17-1.545-.508-2.222-.318-.698-.751-1.227-1.301-1.587-.424-.275-1.069-.54-1.936-.793-.847-.254-1.598-.403-2.254-.445v-2.317l15.964-.825.477.508v42.434c0 .783.137 1.418.412 1.904.275.487.72.868 1.333 1.143.423.19.868.36 1.333.508a8.153 8.153 0 001.651.317V120zm22.407 0h-19.9v-2.317a32.51 32.51 0 001.587-.159 6.156 6.156 0 001.396-.317c.677-.254 1.132-.614 1.365-1.079.254-.487.381-1.121.381-1.904V79.058c0-.804-.169-1.545-.508-2.222-.317-.698-.751-1.227-1.301-1.587-.423-.275-1.069-.54-1.936-.793-.847-.254-1.598-.403-2.254-.445v-2.317l15.965-.825.476.508v42.434c0 .783.137 1.418.412 1.904.275.487.72.868 1.333 1.143.424.19.868.36 1.333.508a8.153 8.153 0 001.651.317V120zm18.186-5.269c0 1.672-.624 3.121-1.873 4.349-1.227 1.227-2.687 1.84-4.38 1.84-1.713 0-3.195-.603-4.443-1.809-1.227-1.227-1.841-2.687-1.841-4.38 0-1.692.614-3.152 1.841-4.379 1.248-1.249 2.73-1.873 4.443-1.873 1.693 0 3.153.624 4.38 1.873 1.249 1.248 1.873 2.708 1.873 4.379z" fill="#5072A7"/></svg>