<svg viewBox="0 0 535 128" fill="none" xmlns="http://www.w3.org/2000/svg"><path d="M33.277 26.892L32.594 38H.684v-1.904c.57-.05 1.238-.122 2.003-.22.764-.114 1.269-.22 1.513-.317.586-.228.993-.546 1.22-.953.229-.407.343-.927.343-1.562V8.605c0-.585-.09-1.066-.269-1.44-.179-.39-.61-.74-1.294-1.05-.504-.228-1.115-.407-1.83-.537-.7-.146-1.262-.252-1.685-.317V3.356h19.018v1.905c-.52.049-1.14.122-1.855.22-.7.08-1.31.203-1.831.366-.635.211-1.058.545-1.27 1-.211.44-.317.945-.317 1.514V31.14c0 1.074.073 1.92.22 2.539.146.618.43 1.074.854 1.367.423.31 1.009.513 1.758.61.765.082 1.814.122 3.15.122 1.301 0 2.563-.073 3.783-.22 1.237-.162 2.124-.504 2.661-1.025.83-.83 1.677-1.994 2.54-3.491.878-1.514 1.578-2.897 2.1-4.15h1.781zm27.661 5.273a14.922 14.922 0 01-2.075 2.637 12.46 12.46 0 01-2.734 2.1 14.562 14.562 0 01-3.32 1.391c-1.107.325-2.385.488-3.833.488-2.41 0-4.493-.341-6.25-1.025-1.742-.684-3.182-1.603-4.322-2.759a11.195 11.195 0 01-2.563-4.077c-.554-1.579-.83-3.288-.83-5.127 0-1.66.3-3.247.903-4.76a12.942 12.942 0 012.612-4.078c1.107-1.155 2.499-2.091 4.175-2.807 1.693-.717 3.58-1.075 5.664-1.075 2.279 0 4.15.277 5.615.83 1.465.554 2.678 1.319 3.638 2.295a8.31 8.31 0 012.026 3.296c.424 1.253.635 2.572.635 3.955v1.587H43.775c0 3.337.643 5.876 1.93 7.617 1.285 1.742 3.328 2.613 6.127 2.613 1.53 0 2.905-.415 4.126-1.245a11.936 11.936 0 003.125-3.199l1.855 1.343zm-9.326-9.277c0-.977-.049-1.978-.146-3.003-.098-1.026-.269-1.864-.513-2.515-.277-.765-.66-1.343-1.147-1.733-.472-.39-1.075-.586-1.807-.586-1.253 0-2.254.634-3.003 1.904-.749 1.27-1.156 3.28-1.22 6.03l7.836-.097zm29.859 13.989a29.797 29.797 0 01-3.345 1.22c-1.188.375-2.637.562-4.346.562-2.539 0-4.427-.618-5.664-1.855-1.22-1.237-1.83-3.003-1.83-5.298v-14.99H61.89v-2.637h4.492V6.48h7.934v7.398h6.836v2.637h-6.787v13.379c0 1.904.26 3.255.781 4.052.538.798 1.49 1.197 2.857 1.197.44 0 1.05-.033 1.831-.098.781-.065 1.327-.138 1.636-.22v2.051zm11.06-32.3c0 .895-.4 2.637-1.197 5.225a81.934 81.934 0 00-2.002 8.105h-1.684a86.736 86.736 0 00-2.027-8.105c-.781-2.588-1.172-4.33-1.172-5.225a3.97 3.97 0 011.05-2.734c.7-.781 1.7-1.172 3.003-1.172 1.27 0 2.254.39 2.954 1.172.716.781 1.074 1.692 1.074 2.734zM107.96 38.83c-1.579 0-3.125-.236-4.639-.708-1.497-.456-2.661-.944-3.49-1.465l-.733 1.66h-1.905l-.317-9.106h1.782c.244.732.651 1.562 1.22 2.49a13.91 13.91 0 001.954 2.466 11.17 11.17 0 002.612 1.855 6.91 6.91 0 003.174.757c1.481 0 2.58-.285 3.296-.854.732-.586 1.099-1.481 1.099-2.686 0-.65-.163-1.188-.489-1.611-.325-.423-.773-.79-1.342-1.099a12.283 12.283 0 00-2.1-.83c-.749-.228-1.676-.504-2.783-.83a30.264 30.264 0 01-2.857-.976c-.781-.342-1.595-.871-2.441-1.587a7.198 7.198 0 01-1.758-2.295c-.44-.895-.659-1.962-.659-3.198 0-2.295.96-4.15 2.881-5.567 1.937-1.416 4.468-2.124 7.593-2.124 1.481 0 2.84.155 4.077.464 1.253.293 2.303.618 3.149.976l.513-1.44h1.855l.391 8.325h-1.733c-.57-1.692-1.547-3.15-2.93-4.37-1.384-1.237-2.873-1.855-4.468-1.855-1.253 0-2.238.26-2.954.78-.716.522-1.074 1.246-1.074 2.174 0 1.237.521 2.132 1.562 2.685 1.058.554 2.531 1.075 4.419 1.563 2.914.748 5.046 1.774 6.397 3.076 1.351 1.286 2.026 2.93 2.026 4.932 0 2.669-1.05 4.736-3.149 6.2-2.084 1.466-4.81 2.198-8.179 2.198zm58.765-.83h-14.698v-1.782c.326-.033.708-.074 1.148-.122.439-.05.765-.13.976-.244.342-.18.578-.44.708-.782.147-.342.22-.846.22-1.513V22.13c0-1.677-.317-2.93-.952-3.76-.619-.83-1.506-1.245-2.661-1.245-.651 0-1.262.098-1.831.293a6.849 6.849 0 00-1.636.854 5.95 5.95 0 00-1.147 1.001 29.91 29.91 0 00-.708.904v13.11c0 .602.073 1.082.219 1.44.147.342.423.627.83.855.245.147.562.277.953.39.406.115.797.196 1.171.245V38h-14.843v-1.782c.423-.033.83-.074 1.22-.122a4.77 4.77 0 001.075-.244c.52-.196.87-.472 1.049-.83.196-.375.293-.863.293-1.465V6.335c0-.52-.122-1.074-.366-1.66-.244-.586-.586-1.026-1.025-1.319-.326-.211-.798-.374-1.416-.488a12.067 12.067 0 00-1.66-.244V.842l12.133-.635.367.39v16.797h.097a633.05 633.05 0 001.66-1.489 13.76 13.76 0 011.831-1.367c.603-.39 1.384-.724 2.344-1a11.516 11.516 0 013.15-.416c2.636 0 4.614.757 5.932 2.27 1.335 1.514 2.002 3.508 2.002 5.982v11.963c0 .602.09 1.082.269 1.44.179.358.512.643 1.001.855.293.13.618.244.976.342.358.097.798.179 1.319.244V38zm28.491-5.835a14.972 14.972 0 01-2.075 2.637 12.46 12.46 0 01-2.735 2.1 14.55 14.55 0 01-3.32 1.391c-1.107.325-2.385.488-3.833.488-2.409 0-4.492-.341-6.25-1.025-1.742-.684-3.182-1.603-4.321-2.759a11.19 11.19 0 01-2.564-4.077c-.553-1.579-.83-3.288-.83-5.127 0-1.66.301-3.247.903-4.76a12.955 12.955 0 012.613-4.078c1.106-1.155 2.498-2.091 4.175-2.807 1.692-.717 3.58-1.075 5.664-1.075 2.278 0 4.15.277 5.615.83 1.465.554 2.677 1.319 3.638 2.295a8.316 8.316 0 012.026 3.296c.423 1.253.635 2.572.635 3.955v1.587h-16.504c0 3.337.643 5.876 1.928 7.617 1.286 1.742 3.329 2.613 6.128 2.613 1.53 0 2.906-.415 4.126-1.245a11.923 11.923 0 003.125-3.199l1.856 1.343zm-9.326-9.277c0-.977-.049-1.978-.147-3.003-.097-1.026-.268-1.864-.513-2.515-.276-.765-.659-1.343-1.147-1.733-.472-.39-1.074-.586-1.807-.586-1.253 0-2.254.634-3.003 1.904-.748 1.27-1.155 3.28-1.22 6.03l7.837-.097zm39.599 14.6a18.42 18.42 0 01-2.539.854c-.976.26-2.01.39-3.1.39-2.002 0-3.475-.292-4.419-.879-.944-.602-1.587-1.456-1.929-2.563h-.147a15.16 15.16 0 01-1.611 1.416c-.504.39-1.05.724-1.636 1.001-.765.358-1.505.618-2.221.781-.7.18-1.685.269-2.954.269-1.888 0-3.5-.553-4.834-1.66-1.335-1.123-2.002-2.605-2.002-4.444 0-1.058.146-1.953.439-2.685a6.087 6.087 0 011.245-1.978 6.56 6.56 0 011.685-1.294 19.973 19.973 0 012.124-.952c1.465-.537 3.222-1.09 5.273-1.66 2.051-.586 3.548-1.107 4.492-1.563v-2.343c0-.407-.032-.944-.097-1.612-.065-.667-.204-1.228-.415-1.684a3.222 3.222 0 00-1.074-1.319c-.489-.358-1.132-.537-1.929-.537-.716 0-1.319.106-1.807.318a5.69 5.69 0 00-1.147.61c.049.326.187.822.415 1.49.228.667.342 1.31.342 1.928 0 .277-.074.627-.22 1.05-.147.407-.358.732-.635.976a4.167 4.167 0 01-1.269.757c-.456.18-1.164.269-2.124.269-1.368 0-2.401-.326-3.101-.977-.7-.667-1.05-1.53-1.05-2.588 0-.911.358-1.725 1.074-2.441.733-.732 1.62-1.335 2.661-1.807 1.026-.488 2.206-.862 3.541-1.123 1.334-.276 2.571-.415 3.71-.415 1.579 0 3.028.098 4.346.293 1.319.18 2.507.562 3.565 1.148 1.009.57 1.806 1.4 2.392 2.49.602 1.074.904 2.482.904 4.223 0 1.84-.041 4.02-.123 6.543-.065 2.523-.097 4.183-.097 4.981 0 .732.106 1.31.317 1.733.228.424.57.74 1.026.953.276.13.708.211 1.294.244a62.05 62.05 0 001.635.024v1.782zm-12.134-12.72a29.2 29.2 0 00-2.709 1.074c-.896.39-1.628.806-2.198 1.245a4.71 4.71 0 00-1.416 1.758c-.342.7-.512 1.53-.512 2.49 0 1.27.284 2.19.854 2.759.586.57 1.302.854 2.148.854.896 0 1.628-.179 2.198-.537a6.494 6.494 0 001.538-1.367l.097-8.276zm38.331-6.519c0 1.237-.383 2.328-1.148 3.271-.765.928-1.774 1.392-3.027 1.392-1.188 0-2.198-.301-3.028-.903-.813-.602-1.22-1.49-1.22-2.661 0-.57.04-1.01.122-1.319.081-.325.154-.626.219-.903-.748.032-1.538.293-2.368.781a7.792 7.792 0 00-2.197 1.953v13.404c0 .57.09 1.041.269 1.416.179.374.48.667.903.879.358.179.936.333 1.733.464.814.113 1.4.178 1.758.195V38h-16.333v-1.782a31.14 31.14 0 001.221-.122 6.65 6.65 0 001.074-.244c.521-.18.879-.456 1.074-.83.196-.375.293-.863.293-1.465v-14.21c0-.585-.138-1.106-.415-1.562a3.533 3.533 0 00-1.001-1.123c-.293-.195-.667-.358-1.123-.488a7.571 7.571 0 00-1.465-.269v-1.782l11.646-.635.366.367v3.54h.098c1.123-1.303 2.311-2.32 3.564-3.052 1.27-.749 2.588-1.123 3.955-1.123 1.514 0 2.726.472 3.638 1.416.928.928 1.392 2.132 1.392 3.613zm42.309 19.238a18.42 18.42 0 01-2.539.855c-.977.26-2.01.39-3.101.39-2.001 0-3.474-.292-4.418-.879-.944-.602-1.587-1.456-1.929-2.563h-.147a15.16 15.16 0 01-1.611 1.416 8.82 8.82 0 01-1.636 1.001c-.765.358-1.505.618-2.221.781-.7.18-1.685.269-2.955.269-1.888 0-3.499-.553-4.834-1.66-1.334-1.123-2.001-2.605-2.001-4.444 0-1.058.146-1.953.439-2.685a6.087 6.087 0 011.245-1.978 6.542 6.542 0 011.685-1.294 19.973 19.973 0 012.124-.952c1.465-.537 3.222-1.09 5.273-1.66 2.051-.586 3.548-1.107 4.492-1.563v-2.343c0-.407-.032-.944-.097-1.612-.065-.667-.204-1.228-.415-1.684a3.217 3.217 0 00-1.075-1.319c-.488-.358-1.131-.537-1.928-.537-.716 0-1.319.106-1.807.318a5.69 5.69 0 00-1.147.61c.048.326.187.822.415 1.49a5.95 5.95 0 01.341 1.928c0 .277-.073.627-.219 1.05-.147.407-.358.732-.635.976a4.172 4.172 0 01-1.27.757c-.455.18-1.163.269-2.124.269-1.367 0-2.4-.326-3.1-.977-.7-.667-1.05-1.53-1.05-2.588 0-.911.358-1.725 1.074-2.441.733-.732 1.62-1.335 2.661-1.807 1.026-.488 2.206-.862 3.54-1.123 1.335-.276 2.572-.415 3.711-.415 1.579 0 3.028.098 4.346.293 1.318.18 2.507.562 3.564 1.148 1.01.57 1.807 1.4 2.393 2.49.602 1.074.903 2.482.903 4.223 0 1.84-.04 4.02-.122 6.543-.065 2.523-.097 4.183-.097 4.981 0 .732.105 1.31.317 1.733.228.424.57.74 1.025.953.277.13.708.211 1.294.244.603.016 1.148.024 1.636.024v1.782zm-12.134-12.72c-.911.31-1.814.668-2.71 1.075-.895.39-1.627.806-2.197 1.245a4.71 4.71 0 00-1.416 1.758c-.342.7-.513 1.53-.513 2.49 0 1.27.285 2.19.855 2.759.586.57 1.302.854 2.148.854.896 0 1.628-.179 2.198-.537a6.494 6.494 0 001.538-1.367l.097-8.276zm43.14 1.294c0 3.663-1.213 6.698-3.638 9.107-2.409 2.409-5.468 3.613-9.179 3.613-1.433 0-2.67-.105-3.711-.317-1.026-.195-1.897-.44-2.613-.733-.748-.309-1.351-.61-1.806-.903-.44-.31-.79-.561-1.05-.757l-3.491 3.174-1.441-.561c.082-1.189.147-2.474.196-3.858.065-1.4.097-3.28.097-5.64V6.335c0-.619-.13-1.188-.39-1.709-.245-.537-.578-.944-1.001-1.22-.31-.196-.765-.367-1.368-.513a9.217 9.217 0 00-1.635-.269V.842l12.06-.635.366.39v15.87h.147c1.188-1.156 2.409-2.002 3.662-2.54 1.253-.536 2.507-.805 3.76-.805 3.418 0 6.111 1.164 8.081 3.491 1.969 2.328 2.954 5.477 2.954 9.448zm-8.765.294c0-1.238-.097-2.426-.293-3.565-.179-1.156-.488-2.173-.927-3.052-.44-.879-1.018-1.578-1.734-2.1-.716-.536-1.603-.805-2.661-.805-.993 0-1.815.163-2.466.488-.651.326-1.237.806-1.758 1.44v14.21c.098.325.277.757.538 1.294.276.52.553.927.83 1.22.39.423.805.749 1.245.977.439.211 1.058.317 1.855.317 1.66 0 2.971-.903 3.931-2.71.96-1.823 1.44-4.394 1.44-7.715zm36.841-9.693a11.193 11.193 0 012.759 4.028c.635 1.563.952 3.256.952 5.079 0 1.806-.317 3.515-.952 5.127a11.09 11.09 0 01-2.734 4.101c-1.286 1.22-2.824 2.157-4.615 2.808-1.774.65-3.808.976-6.103.976-1.986 0-3.817-.285-5.493-.854a12.895 12.895 0 01-4.419-2.564c-1.237-1.09-2.214-2.433-2.93-4.028-.716-1.611-1.074-3.41-1.074-5.396 0-1.953.309-3.686.928-5.2.634-1.53 1.578-2.889 2.832-4.077 1.204-1.14 2.685-2.018 4.443-2.637 1.774-.634 3.752-.952 5.933-.952 2.278 0 4.28.318 6.005.952 1.742.619 3.231 1.498 4.468 2.637zm-6.25 16.92c.358-.912.619-2.02.781-3.321.179-1.302.269-2.816.269-4.541 0-1.14-.081-2.442-.244-3.906-.163-1.465-.407-2.621-.733-3.467-.39-1.026-.935-1.831-1.635-2.417-.684-.586-1.555-.88-2.613-.88-1.155 0-2.083.318-2.783.953-.683.635-1.212 1.457-1.587 2.466-.342.927-.578 2.018-.708 3.271a37.16 37.16 0 00-.195 3.882c0 1.774.057 3.247.171 4.419.114 1.156.39 2.32.83 3.491.374 1.01.911 1.807 1.611 2.393.7.586 1.587.879 2.661.879.977 0 1.815-.269 2.515-.806.7-.553 1.253-1.359 1.66-2.417zm44.971 3.905l-11.646.708-.366-.342v-3.198h-.146l-1.636 1.49a9.32 9.32 0 01-1.88 1.293c-.83.44-1.619.765-2.368.977-.733.212-1.807.317-3.223.317-2.457 0-4.345-.74-5.664-2.221-1.302-1.481-1.953-3.573-1.953-6.275V19.25c0-.635-.122-1.148-.366-1.538a3.806 3.806 0 00-.977-1.074c-.325-.244-.748-.415-1.269-.513a10.442 10.442 0 00-1.416-.22v-1.782l11.841-.635.268.367V30.09c0 1.676.317 2.913.952 3.71.651.798 1.538 1.197 2.661 1.197 1.156 0 2.189-.301 3.101-.903.928-.602 1.603-1.245 2.026-1.929v-13.16c0-.552-.105-1.049-.317-1.488a2.692 2.692 0 00-.928-1.075c-.293-.195-.716-.325-1.269-.39a26.202 26.202 0 00-1.661-.147v-1.782l11.841-.635.367.367v18.847c0 .57.113 1.058.341 1.465.228.39.562.724 1.001 1.001.31.195.708.334 1.197.415a15.66 15.66 0 001.489.122v1.782zm20.141-.61a29.74 29.74 0 01-3.344 1.22c-1.188.375-2.637.562-4.346.562-2.539 0-4.427-.618-5.664-1.855-1.221-1.237-1.831-3.003-1.831-5.298v-14.99h-4.395v-2.637h4.493V6.48h7.934v7.398h6.836v2.637h-6.787v13.379c0 1.904.26 3.255.781 4.052.537.798 1.489 1.197 2.857 1.197.439 0 1.049-.033 1.831-.098.781-.065 1.326-.138 1.635-.22v2.051zM41.383 117h-13.72c-2.068-3.174-3.932-5.827-5.592-7.959a702.618 702.618 0 00-6.372-8.032h-1.27v10.888c0 .586.107 1.083.318 1.49.212.407.635.748 1.27 1.025.293.13.724.261 1.294.391.585.13 1.163.228 1.733.293V117H.636v-1.904c.44-.033 1.058-.082 1.855-.147.814-.065 1.384-.163 1.71-.293.585-.228.992-.545 1.22-.952.228-.407.342-.919.342-1.538v-24.56c0-.57-.098-1.05-.293-1.441-.196-.39-.619-.74-1.27-1.05-.504-.228-1.115-.415-1.83-.561a20.251 20.251 0 00-1.734-.293v-1.905h19.018v1.905c-.504.049-1.115.122-1.83.22a9.52 9.52 0 00-1.807.366c-.635.211-1.058.545-1.27 1a3.55 3.55 0 00-.317 1.514v11.67h1.025c1.27-1.155 2.75-2.547 4.443-4.175 1.693-1.627 3.003-2.962 3.931-4.003 1.302-1.449 2.254-2.596 2.857-3.443.618-.846.927-1.579.927-2.197 0-.277-.293-.488-.879-.635-.586-.146-1.48-.252-2.685-.317v-1.905h15.063v1.905c-1.823.195-3.353.529-4.59 1-1.236.456-2.465 1.23-3.686 2.32-1.742 1.563-3.182 2.922-4.321 4.077-1.123 1.14-2.572 2.604-4.346 4.395a576.937 576.937 0 015.64 7.007 518.048 518.048 0 006.567 8.056c.553.668 1.188 1.31 1.904 1.929a9.62 9.62 0 002.368 1.465 6.39 6.39 0 001.392.415c.52.097.968.154 1.343.171V117zm27.807-.513c-.716.31-1.562.594-2.539.855-.976.26-2.01.39-3.1.39-2.002 0-3.475-.293-4.42-.878-.943-.603-1.586-1.457-1.928-2.564h-.146a15.289 15.289 0 01-1.612 1.416 8.8 8.8 0 01-1.635 1.001c-.765.358-1.506.619-2.222.781-.7.179-1.685.269-2.954.269-1.888 0-3.5-.554-4.834-1.66-1.335-1.123-2.002-2.604-2.002-4.444 0-1.058.146-1.953.44-2.685a6.087 6.087 0 011.244-1.978 6.549 6.549 0 011.685-1.294 19.774 19.774 0 012.124-.952c1.465-.537 3.223-1.09 5.274-1.66 2.05-.586 3.548-1.107 4.492-1.563v-2.343c0-.407-.033-.944-.098-1.612-.065-.667-.204-1.228-.415-1.684a3.219 3.219 0 00-1.074-1.319c-.489-.358-1.131-.537-1.929-.537-.716 0-1.318.106-1.807.318a5.695 5.695 0 00-1.147.61c.049.326.187.822.415 1.49a5.96 5.96 0 01.342 1.928c0 .277-.074.627-.22 1.05-.147.407-.358.732-.635.976a4.165 4.165 0 01-1.27.757c-.455.179-1.163.269-2.123.269-1.367 0-2.401-.326-3.1-.977-.7-.667-1.05-1.53-1.05-2.588 0-.911.357-1.725 1.074-2.441.732-.733 1.619-1.335 2.66-1.807 1.026-.488 2.206-.862 3.54-1.123 1.335-.276 2.572-.415 3.712-.415 1.578 0 3.027.098 4.345.293 1.319.18 2.507.562 3.565 1.148 1.009.57 1.806 1.4 2.392 2.49.603 1.074.904 2.482.904 4.224 0 1.839-.041 4.02-.122 6.543-.066 2.522-.098 4.182-.098 4.98 0 .732.106 1.31.317 1.733.228.424.57.741 1.026.953.276.13.708.211 1.294.244a62.05 62.05 0 001.635.024v1.782zm-12.133-12.719c-.912.309-1.815.667-2.71 1.074-.895.39-1.628.805-2.198 1.245a4.71 4.71 0 00-1.416 1.758c-.341.7-.512 1.53-.512 2.49 0 1.269.285 2.189.854 2.759.586.569 1.302.854 2.149.854.895 0 1.627-.179 2.197-.537a6.484 6.484 0 001.538-1.367l.098-8.276zm41.601-9.204c-.732.113-1.448.39-2.148.83-.684.439-1.254 1.123-1.71 2.05a409.733 409.733 0 00-4.32 9.473 701.543 701.543 0 01-4.932 10.84c-1.01 2.181-1.986 3.922-2.93 5.224-.944 1.303-1.83 2.304-2.661 3.003-.781.651-1.554 1.123-2.32 1.416a6.44 6.44 0 01-2.319.44c-1.546 0-2.8-.431-3.76-1.294-.943-.863-1.415-1.831-1.415-2.905 0-.456.048-.879.146-1.27.114-.391.342-.797.684-1.221.26-.358.659-.667 1.196-.927a4.552 4.552 0 011.855-.367c.912 0 1.783.318 2.613.953.83.634 1.692 1.513 2.588 2.636.537-.537 1.196-1.342 1.977-2.417.798-1.058 1.384-2.148 1.758-3.271a553.283 553.283 0 00-5.151-10.571 3144.517 3144.517 0 00-5.03-10.01c-.407-.782-.952-1.384-1.635-1.807a5.197 5.197 0 00-2.173-.805V92.78h14.941v1.782c-.553.017-1.196.139-1.929.367-.716.228-1.074.52-1.074.879 0 .13.025.276.073.439.05.146.139.366.269.66a717.48 717.48 0 002.344 4.76 910.736 910.736 0 013.564 7.104 514.083 514.083 0 002.564-5.957c.716-1.676 1.407-3.32 2.075-4.931.163-.407.252-.725.268-.952.033-.245.05-.407.05-.489 0-.293-.147-.545-.44-.757a3.958 3.958 0 00-1.001-.585 7.394 7.394 0 00-1.172-.367 11.967 11.967 0 00-.928-.17V92.78h10.083v1.782zM114.063 117H98.756v-1.782a26.2 26.2 0 001.22-.122 4.82 4.82 0 001.075-.244c.521-.196.871-.472 1.05-.831.195-.374.293-.862.293-1.464V85.506a3.78 3.78 0 00-.391-1.71c-.244-.536-.578-.943-1.001-1.22-.326-.211-.822-.415-1.49-.61-.65-.195-1.228-.31-1.733-.342v-1.782l12.281-.635.366.39v32.642c0 .602.106 1.091.317 1.465.212.374.554.667 1.026.879.325.146.667.277 1.025.391.358.114.781.195 1.269.244V117zm30.274-.513c-.716.31-1.563.594-2.539.855-.977.26-2.01.39-3.101.39-2.002 0-3.475-.293-4.419-.878-.944-.603-1.587-1.457-1.928-2.564h-.147a15.237 15.237 0 01-1.611 1.416 8.815 8.815 0 01-1.636 1.001 10.96 10.96 0 01-2.222.781c-.699.179-1.684.269-2.954.269-1.888 0-3.499-.554-4.834-1.66-1.334-1.123-2.002-2.604-2.002-4.444 0-1.058.147-1.953.44-2.685a6.089 6.089 0 011.245-1.978 6.555 6.555 0 011.684-1.294c.652-.342 1.36-.659 2.125-.952 1.464-.537 3.222-1.09 5.273-1.66 2.051-.586 3.548-1.107 4.492-1.563v-2.343c0-.407-.032-.944-.098-1.612-.065-.667-.203-1.228-.415-1.684a3.215 3.215 0 00-1.074-1.319c-.488-.358-1.131-.537-1.928-.537-.717 0-1.319.106-1.807.318a5.717 5.717 0 00-1.148.61c.049.326.188.822.415 1.49.228.667.342 1.31.342 1.928 0 .277-.073.627-.219 1.05-.147.407-.359.732-.635.976a4.175 4.175 0 01-1.27.757c-.456.179-1.164.269-2.124.269-1.367 0-2.401-.326-3.1-.977-.7-.667-1.05-1.53-1.05-2.588 0-.911.358-1.725 1.074-2.441.732-.733 1.619-1.335 2.661-1.807 1.026-.488 2.206-.862 3.54-1.123 1.335-.276 2.572-.415 3.711-.415 1.579 0 3.027.098 4.346.293 1.318.18 2.506.562 3.564 1.148 1.009.57 1.807 1.4 2.393 2.49.602 1.074.903 2.482.903 4.224 0 1.839-.041 4.02-.122 6.543-.065 2.522-.098 4.182-.098 4.98 0 .732.106 1.31.318 1.733a2.16 2.16 0 001.025.953c.277.13.708.211 1.294.244a62.12 62.12 0 001.636.024v1.782zm-12.134-12.719c-.911.309-1.815.667-2.71 1.074-.895.39-1.627.805-2.197 1.245a4.714 4.714 0 00-1.416 1.758c-.342.7-.513 1.53-.513 2.49 0 1.269.285 2.189.855 2.759.586.569 1.302.854 2.148.854.895 0 1.628-.179 2.197-.537a6.471 6.471 0 001.538-1.367l.098-8.276zm23.364-20.19c0 .894-.398 2.636-1.196 5.224a82.183 82.183 0 00-2.002 8.105h-1.684a86.887 86.887 0 00-2.027-8.105c-.781-2.588-1.172-4.33-1.172-5.225a3.97 3.97 0 011.05-2.734c.7-.782 1.701-1.172 3.003-1.172 1.27 0 2.254.39 2.954 1.172.716.781 1.074 1.692 1.074 2.734zm15.43 34.252c-1.579 0-3.125-.236-4.639-.708-1.497-.456-2.661-.944-3.491-1.465l-.732 1.66h-1.905l-.317-9.106h1.782c.244.732.651 1.562 1.221 2.49.57.912 1.221 1.734 1.953 2.466a11.162 11.162 0 002.612 1.855 6.905 6.905 0 003.174.757c1.481 0 2.58-.285 3.296-.854.733-.586 1.099-1.481 1.099-2.686 0-.651-.163-1.188-.488-1.611-.326-.423-.774-.789-1.343-1.099a12.333 12.333 0 00-2.1-.83c-.749-.228-1.676-.504-2.783-.83a30.275 30.275 0 01-2.857-.976c-.781-.342-1.595-.871-2.441-1.587a7.218 7.218 0 01-1.758-2.295c-.439-.895-.659-1.962-.659-3.198 0-2.295.96-4.15 2.881-5.567 1.937-1.416 4.468-2.124 7.593-2.124 1.481 0 2.84.155 4.077.464 1.253.293 2.303.618 3.149.977l.513-1.44h1.855l.391 8.324h-1.733c-.57-1.692-1.547-3.15-2.93-4.37-1.383-1.237-2.873-1.855-4.468-1.855-1.253 0-2.238.26-2.954.78-.716.522-1.074 1.246-1.074 2.174 0 1.237.521 2.132 1.562 2.685 1.058.554 2.531 1.075 4.419 1.563 2.914.749 5.046 1.774 6.397 3.076 1.351 1.286 2.026 2.93 2.026 4.932 0 2.669-1.05 4.736-3.149 6.201-2.084 1.465-4.81 2.197-8.179 2.197zm38.33 0c-1.579 0-3.125-.236-4.639-.708-1.497-.456-2.661-.944-3.491-1.465l-.732 1.66h-1.904l-.318-9.106h1.782c.245.732.651 1.562 1.221 2.49.57.912 1.221 1.734 1.953 2.466a11.147 11.147 0 002.613 1.855c.992.505 2.05.757 3.173.757 1.481 0 2.58-.285 3.296-.854.733-.586 1.099-1.481 1.099-2.686 0-.651-.163-1.188-.488-1.611-.326-.423-.774-.789-1.343-1.099a12.333 12.333 0 00-2.1-.83 320.54 320.54 0 00-2.783-.83 30.148 30.148 0 01-2.856-.976c-.782-.342-1.595-.871-2.442-1.587a7.218 7.218 0 01-1.758-2.295c-.439-.895-.659-1.962-.659-3.198 0-2.295.96-4.15 2.881-5.567 1.937-1.416 4.468-2.124 7.593-2.124 1.481 0 2.84.155 4.077.464 1.253.293 2.303.618 3.149.977l.513-1.44h1.856l.39 8.324h-1.733c-.57-1.692-1.546-3.15-2.93-4.37-1.383-1.237-2.873-1.855-4.468-1.855-1.253 0-2.238.26-2.954.78-.716.522-1.074 1.246-1.074 2.174 0 1.237.521 2.132 1.562 2.685 1.058.554 2.531 1.075 4.419 1.563 2.914.749 5.046 1.774 6.397 3.076 1.351 1.286 2.026 2.93 2.026 4.932 0 2.669-1.05 4.736-3.149 6.201-2.083 1.465-4.81 2.197-8.179 2.197zm46.192-1.343l-11.646.708-.366-.341v-3.199h-.147l-1.635 1.49a9.293 9.293 0 01-1.88 1.293c-.83.44-1.62.765-2.368.977-.733.212-1.807.317-3.223.317-2.458 0-4.346-.74-5.664-2.221-1.302-1.481-1.953-3.573-1.953-6.275V98.25c0-.635-.122-1.147-.366-1.538a3.82 3.82 0 00-.977-1.074c-.326-.244-.749-.415-1.27-.513-.52-.114-.992-.187-1.416-.22v-1.782l11.841-.635.269.367v16.235c0 1.676.317 2.913.952 3.711.651.797 1.538 1.196 2.661 1.196 1.156 0 2.189-.301 3.101-.903.927-.602 1.603-1.245 2.026-1.929v-13.16c0-.552-.106-1.049-.317-1.488a2.692 2.692 0 00-.928-1.075c-.293-.195-.716-.325-1.27-.39a26.17 26.17 0 00-1.66-.147v-1.782l11.841-.635.366.367v18.847c0 .57.114 1.058.342 1.465.228.391.562.724 1.001 1.001.309.195.708.334 1.196.415.505.065 1.001.106 1.49.122v1.782zm15.918 1.294c-2.263 0-4.265-.325-6.006-.976-1.726-.668-3.15-1.571-4.273-2.71-1.123-1.156-1.961-2.523-2.514-4.102-.554-1.579-.831-3.296-.831-5.151 0-1.693.334-3.304 1.001-4.834a13.352 13.352 0 012.759-4.028c1.188-1.189 2.661-2.133 4.419-2.833 1.774-.716 3.727-1.074 5.86-1.074 2.994 0 5.363.57 7.104 1.71 1.742 1.122 2.612 2.644 2.612 4.565 0 1.171-.309 2.116-.927 2.832-.619.716-1.685 1.074-3.199 1.074-1.22 0-2.246-.293-3.076-.879-.814-.586-1.22-1.351-1.22-2.295 0-.797.13-1.587.39-2.368.261-.781.415-1.375.464-1.782a1.765 1.765 0 00-.684-.66c-.276-.162-.708-.244-1.294-.244a3.98 3.98 0 00-2.001.513c-.603.342-1.164.944-1.685 1.807-.505.813-.912 1.904-1.221 3.271-.293 1.367-.439 3.011-.439 4.932 0 2.897.675 5.233 2.026 7.007 1.367 1.774 2.995 2.661 4.883 2.661 1.807 0 3.239-.399 4.297-1.196 1.074-.814 2.026-1.962 2.856-3.443l1.831 1.27a14.202 14.202 0 01-1.806 2.734c-.7.814-1.538 1.538-2.515 2.173a13.148 13.148 0 01-3.125 1.514c-1.058.341-2.287.512-3.686.512zm26.562 0c-2.262 0-4.264-.325-6.006-.976-1.725-.668-3.149-1.571-4.272-2.71a11.046 11.046 0 01-2.515-4.102c-.553-1.579-.83-3.296-.83-5.151 0-1.693.334-3.304 1.001-4.834a13.334 13.334 0 012.759-4.028c1.188-1.189 2.661-2.133 4.419-2.833 1.774-.716 3.727-1.074 5.859-1.074 2.995 0 5.363.57 7.105 1.71 1.741 1.122 2.612 2.644 2.612 4.565 0 1.171-.309 2.116-.928 2.832-.618.716-1.684 1.074-3.198 1.074-1.221 0-2.246-.293-3.076-.879-.814-.586-1.221-1.351-1.221-2.295 0-.797.13-1.587.391-2.368.26-.781.415-1.375.463-1.782a1.763 1.763 0 00-.683-.66c-.277-.162-.708-.244-1.294-.244-.732 0-1.4.171-2.002.513-.602.342-1.164.944-1.685 1.807-.504.813-.911 1.904-1.22 3.271-.293 1.367-.44 3.011-.44 4.932 0 2.897.676 5.233 2.027 7.007 1.367 1.774 2.994 2.661 4.882 2.661 1.807 0 3.239-.399 4.297-1.196 1.075-.814 2.027-1.962 2.857-3.443l1.831 1.27a14.253 14.253 0 01-1.807 2.734c-.7.814-1.538 1.538-2.514 2.173a13.184 13.184 0 01-3.125 1.514c-1.058.341-2.287.512-3.687.512zm38.867-6.616a14.87 14.87 0 01-2.075 2.637 12.47 12.47 0 01-2.734 2.099 14.542 14.542 0 01-3.321 1.392c-1.106.325-2.384.488-3.833.488-2.409 0-4.492-.342-6.25-1.025-1.741-.684-3.182-1.603-4.321-2.759a11.195 11.195 0 01-2.563-4.077c-.554-1.579-.831-3.288-.831-5.127 0-1.66.302-3.247.904-4.761a12.936 12.936 0 012.612-4.077c1.107-1.156 2.498-2.091 4.175-2.808 1.693-.716 3.581-1.074 5.664-1.074 2.279 0 4.15.277 5.615.83 1.465.554 2.678 1.319 3.638 2.295a8.304 8.304 0 012.026 3.296c.423 1.253.635 2.572.635 3.955v1.587h-16.504c0 3.337.643 5.876 1.929 7.617 1.286 1.742 3.328 2.613 6.128 2.613 1.53 0 2.905-.415 4.126-1.245a11.963 11.963 0 003.125-3.199l1.855 1.343zm-9.326-9.277c0-.977-.049-1.978-.146-3.003-.098-1.026-.269-1.864-.513-2.515-.277-.765-.659-1.343-1.148-1.733-.472-.39-1.074-.586-1.806-.586-1.253 0-2.254.635-3.003 1.904-.749 1.27-1.156 3.28-1.221 6.03l7.837-.097zm22.998 15.942c-1.579 0-3.125-.236-4.639-.708-1.497-.456-2.661-.944-3.491-1.465l-.732 1.66h-1.905l-.317-9.106h1.782c.244.732.651 1.562 1.221 2.49.57.912 1.221 1.734 1.953 2.466a11.162 11.162 0 002.612 1.855 6.905 6.905 0 003.174.757c1.481 0 2.58-.285 3.296-.854.733-.586 1.099-1.481 1.099-2.686 0-.651-.163-1.188-.488-1.611-.326-.423-.774-.789-1.343-1.099a12.333 12.333 0 00-2.1-.83c-.749-.228-1.676-.504-2.783-.83a30.148 30.148 0 01-2.856-.976c-.782-.342-1.596-.871-2.442-1.587a7.218 7.218 0 01-1.758-2.295c-.439-.895-.659-1.962-.659-3.198 0-2.295.96-4.15 2.881-5.567 1.937-1.416 4.468-2.124 7.593-2.124 1.481 0 2.84.155 4.077.464 1.253.293 2.303.618 3.149.977l.513-1.44h1.855l.391 8.324h-1.733c-.57-1.692-1.547-3.15-2.93-4.37-1.383-1.237-2.873-1.855-4.468-1.855-1.253 0-2.238.26-2.954.78-.716.522-1.074 1.246-1.074 2.174 0 1.237.521 2.132 1.562 2.685 1.058.554 2.531 1.075 4.419 1.563 2.914.749 5.046 1.774 6.397 3.076 1.351 1.286 2.026 2.93 2.026 4.932 0 2.669-1.05 4.736-3.149 6.201-2.084 1.465-4.81 2.197-8.179 2.197zm25.635 0c-1.579 0-3.125-.236-4.639-.708-1.497-.456-2.661-.944-3.491-1.465l-.732 1.66h-1.905l-.317-9.106h1.782c.244.732.651 1.562 1.221 2.49a13.77 13.77 0 001.953 2.466 11.162 11.162 0 002.612 1.855 6.905 6.905 0 003.174.757c1.481 0 2.58-.285 3.296-.854.732-.586 1.099-1.481 1.099-2.686 0-.651-.163-1.188-.489-1.611-.325-.423-.773-.789-1.342-1.099a12.333 12.333 0 00-2.1-.83c-.749-.228-1.677-.504-2.783-.83a30.275 30.275 0 01-2.857-.976c-.781-.342-1.595-.871-2.441-1.587a7.203 7.203 0 01-1.758-2.295c-.439-.895-.659-1.962-.659-3.198 0-2.295.96-4.15 2.881-5.567 1.937-1.416 4.468-2.124 7.593-2.124 1.481 0 2.84.155 4.077.464 1.253.293 2.303.618 3.149.977l.513-1.44h1.855l.391 8.324h-1.734c-.569-1.692-1.546-3.15-2.929-4.37-1.384-1.237-2.873-1.855-4.468-1.855-1.253 0-2.238.26-2.954.78-.716.522-1.074 1.246-1.074 2.174 0 1.237.521 2.132 1.562 2.685 1.058.554 2.531 1.075 4.419 1.563 2.914.749 5.046 1.774 6.397 3.076 1.351 1.286 2.026 2.93 2.026 4.932 0 2.669-1.05 4.736-3.149 6.201-2.084 1.465-4.81 2.197-8.179 2.197zm38.33 0c-1.579 0-3.125-.236-4.639-.708-1.497-.456-2.661-.944-3.491-1.465l-.732 1.66h-1.905l-.317-9.106h1.782c.244.732.651 1.562 1.221 2.49.57.912 1.221 1.734 1.953 2.466a11.162 11.162 0 002.612 1.855 6.905 6.905 0 003.174.757c1.481 0 2.58-.285 3.296-.854.732-.586 1.099-1.481 1.099-2.686 0-.651-.163-1.188-.489-1.611-.325-.423-.773-.789-1.342-1.099a12.333 12.333 0 00-2.1-.83c-.749-.228-1.676-.504-2.783-.83a30.275 30.275 0 01-2.857-.976c-.781-.342-1.595-.871-2.441-1.587a7.218 7.218 0 01-1.758-2.295c-.439-.895-.659-1.962-.659-3.198 0-2.295.96-4.15 2.881-5.567 1.937-1.416 4.468-2.124 7.593-2.124 1.481 0 2.84.155 4.077.464 1.253.293 2.303.618 3.149.977l.513-1.44h1.855l.391 8.324h-1.733c-.57-1.692-1.547-3.15-2.93-4.37-1.384-1.237-2.873-1.855-4.468-1.855-1.253 0-2.238.26-2.954.78-.716.522-1.074 1.246-1.074 2.174 0 1.237.521 2.132 1.562 2.685 1.058.554 2.531 1.075 4.419 1.563 2.914.749 5.046 1.774 6.397 3.076 1.351 1.286 2.026 2.93 2.026 4.932 0 2.669-1.05 4.736-3.149 6.201-2.084 1.465-4.81 2.197-8.179 2.197zm32.495-1.953a29.752 29.752 0 01-3.345 1.221c-1.188.374-2.636.561-4.345.561-2.539 0-4.427-.618-5.664-1.855-1.221-1.237-1.832-3.003-1.832-5.298v-14.99h-4.394v-2.637h4.492V85.48h7.935v7.398h6.836v2.637h-6.787v13.379c0 1.904.26 3.255.781 4.052.537.798 1.489 1.197 2.856 1.197.44 0 1.05-.033 1.831-.098.782-.065 1.327-.138 1.636-.22v2.051zm26.636-20.215a11.206 11.206 0 012.759 4.028c.634 1.563.952 3.256.952 5.079 0 1.806-.318 3.515-.952 5.127a11.075 11.075 0 01-2.735 4.101c-1.286 1.221-2.824 2.157-4.614 2.808-1.774.651-3.809.976-6.104.976-1.985 0-3.816-.285-5.493-.854a12.909 12.909 0 01-4.419-2.564c-1.237-1.09-2.213-2.433-2.929-4.028-.717-1.611-1.075-3.41-1.075-5.396 0-1.953.31-3.686.928-5.2.635-1.53 1.579-2.889 2.832-4.077 1.205-1.14 2.686-2.018 4.444-2.637 1.774-.634 3.751-.952 5.932-.952 2.279 0 4.281.318 6.006.952 1.742.619 3.231 1.498 4.468 2.637zm-6.25 16.919c.358-.911.618-2.018.781-3.32.179-1.302.269-2.816.269-4.541 0-1.14-.082-2.442-.245-3.907-.162-1.464-.406-2.62-.732-3.466-.391-1.026-.936-1.831-1.636-2.417-.683-.586-1.554-.88-2.612-.88-1.156 0-2.083.318-2.783.953-.684.635-1.213 1.457-1.587 2.466-.342.928-.578 2.018-.708 3.271a37.16 37.16 0 00-.195 3.882c0 1.774.057 3.247.17 4.419a13.75 13.75 0 00.831 3.491c.374 1.009.911 1.807 1.611 2.393.7.586 1.587.879 2.661.879.977 0 1.815-.269 2.515-.806.7-.553 1.253-1.359 1.66-2.417zm37.427-15.332c0 1.237-.383 2.328-1.148 3.272-.765.927-1.774 1.391-3.027 1.391-1.188 0-2.198-.301-3.028-.903-.813-.602-1.22-1.49-1.22-2.661 0-.57.04-1.01.122-1.319.081-.325.154-.626.219-.903-.748.032-1.538.293-2.368.781a7.792 7.792 0 00-2.197 1.953v13.404c0 .569.09 1.041.269 1.416.179.374.48.667.903.879.358.179.936.333 1.733.463.814.114 1.4.179 1.758.196V117h-16.333v-1.782c.407-.033.814-.073 1.221-.122a6.705 6.705 0 001.074-.244c.521-.179.879-.456 1.074-.831.196-.374.293-.862.293-1.464v-14.21c0-.585-.138-1.106-.415-1.562a3.533 3.533 0 00-1.001-1.123c-.293-.195-.667-.358-1.123-.488a7.571 7.571 0 00-1.465-.269v-1.782l11.646-.635.366.367v3.54h.098c1.123-1.303 2.311-2.32 3.564-3.052 1.27-.749 2.588-1.123 3.955-1.123 1.514 0 2.726.472 3.638 1.416.928.928 1.392 2.132 1.392 3.613zm29.296-2.685c-.732.113-1.448.39-2.148.83-.684.439-1.253 1.123-1.709 2.05-1.4 2.963-2.84 6.12-4.321 9.473a697.049 697.049 0 01-4.932 10.84c-1.009 2.181-1.986 3.922-2.93 5.224-.944 1.303-1.831 2.304-2.661 3.003-.781.651-1.554 1.123-2.319 1.416a6.439 6.439 0 01-2.319.44c-1.547 0-2.8-.431-3.76-1.294-.944-.863-1.416-1.831-1.416-2.905 0-.456.049-.879.146-1.27.114-.391.342-.797.684-1.221.26-.358.659-.667 1.196-.927a4.555 4.555 0 011.856-.367c.911 0 1.782.318 2.612.953.83.634 1.693 1.513 2.588 2.636.537-.537 1.196-1.342 1.977-2.417.798-1.058 1.384-2.148 1.758-3.271a556.525 556.525 0 00-5.151-10.571 3390.948 3390.948 0 00-5.029-10.01c-.407-.782-.953-1.384-1.636-1.807a5.2 5.2 0 00-2.173-.805V92.78h14.941v1.782c-.553.017-1.196.139-1.928.367-.717.228-1.075.52-1.075.879 0 .13.025.276.074.439.048.146.138.366.268.66a771.504 771.504 0 002.344 4.76 930.519 930.519 0 013.564 7.104 501.45 501.45 0 002.564-5.957c.716-1.676 1.408-3.32 2.075-4.931.163-.407.252-.725.269-.952.032-.245.048-.407.048-.489 0-.293-.146-.545-.439-.757a3.956 3.956 0 00-1.001-.585 7.41 7.41 0 00-1.172-.367 11.868 11.868 0 00-.928-.17V92.78h10.083v1.782z" fill="#fff"/></svg>