<svg viewBox="0 0 570 128" fill="none" xmlns="http://www.w3.org/2000/svg"><path d="M41.577 5.26c-.472.05-1.155.163-2.05.343-.88.162-1.62.455-2.222.878-.619.407-1.058 1.14-1.319 2.198-.244 1.058-.366 2.645-.366 4.76V26.33c0 3.792-1.286 6.844-3.857 9.155-2.572 2.312-5.974 3.467-10.205 3.467-4.932 0-8.749-1.115-11.45-3.345-2.702-2.23-4.053-5.338-4.053-9.326V8.557c0-.57-.114-1.058-.342-1.465-.212-.407-.627-.773-1.245-1.099-.423-.211-.944-.382-1.563-.513a19.28 19.28 0 00-1.513-.268V3.356h18.164v1.856c-.521.032-1.05.098-1.587.195a10.35 10.35 0 00-1.636.39c-.618.196-1.033.522-1.245.977a3.61 3.61 0 00-.317 1.538v17.481c0 3.434.756 5.933 2.27 7.495 1.514 1.563 3.711 2.344 6.592 2.344 2.832 0 5.053-.863 6.665-2.588 1.611-1.725 2.417-4.264 2.417-7.617V13.684c0-2.084-.147-3.638-.44-4.663-.276-1.042-.708-1.79-1.294-2.247-.423-.358-1.163-.683-2.221-.976-1.042-.293-1.774-.472-2.198-.537V3.356h15.015v1.905zM75.342 38H60.645v-1.782l1.123-.122c.439-.05.773-.13 1-.244.342-.18.587-.44.733-.782.147-.342.22-.846.22-1.513V22.13c0-1.66-.31-2.905-.928-3.736-.602-.846-1.497-1.269-2.686-1.269-.65 0-1.261.098-1.83.293a6.86 6.86 0 00-1.636.854 5.95 5.95 0 00-1.148 1.001c-.276.342-.513.643-.708.904v13.11c0 .57.082 1.05.244 1.44.163.375.432.66.806.855.26.147.586.277.977.39.39.115.773.196 1.147.245V38H43.115v-1.782c.407-.033.814-.074 1.22-.122a6.65 6.65 0 001.075-.244c.521-.18.88-.456 1.074-.83.196-.375.293-.863.293-1.465v-14.21c0-.504-.13-1-.39-1.489a3.49 3.49 0 00-1.026-1.196c-.293-.195-.667-.358-1.123-.488-.44-.13-.928-.22-1.465-.269v-1.782l11.646-.635.366.367v3.54h.098a214.32 214.32 0 011.66-1.465 15.986 15.986 0 011.807-1.392c.602-.39 1.391-.724 2.368-1a11.415 11.415 0 013.125-.416c2.653 0 4.638.757 5.957 2.27 1.334 1.498 2.002 3.492 2.002 5.982v11.963c0 .602.09 1.082.268 1.44.18.358.513.643 1.001.855.26.114.578.228.952.342.391.114.83.195 1.319.244V38zm33.862-.513l-12.036.708-.366-.342v-2.246l-.171-.048c-.798.862-1.88 1.62-3.247 2.27-1.351.635-2.718.952-4.102.952-3.287 0-5.998-1.22-8.13-3.662-2.132-2.441-3.198-5.599-3.198-9.473 0-3.434 1.188-6.38 3.565-8.837 2.392-2.458 5.281-3.687 8.666-3.687a14.7 14.7 0 013.76.464c1.172.293 2.108.643 2.808 1.05V6.652a3.92 3.92 0 00-.366-1.684c-.244-.537-.57-.952-.977-1.245-.504-.358-1.14-.61-1.904-.757a17.774 17.774 0 00-2.27-.342V.842l13.183-.635.366.39v32.008c0 .618.098 1.139.293 1.562.212.423.545.757 1.001 1.001.342.179.838.31 1.489.39.668.082 1.213.13 1.636.147v1.782zm-12.451-4.345V19.348a9.711 9.711 0 00-.488-1.245 4.852 4.852 0 00-.83-1.294c-.326-.342-.765-.643-1.319-.904-.537-.26-1.147-.39-1.83-.39-1.628 0-2.963.92-4.005 2.758-1.041 1.84-1.562 4.436-1.562 7.788 0 1.319.09 2.507.268 3.565a9.59 9.59 0 001.001 2.856c.472.863 1.075 1.538 1.807 2.027.749.488 1.644.732 2.686.732.992 0 1.814-.187 2.465-.561a7.571 7.571 0 001.807-1.538zm40.283-.977a14.925 14.925 0 01-2.075 2.637 12.478 12.478 0 01-2.734 2.1 14.576 14.576 0 01-3.321 1.391c-1.107.325-2.384.488-3.833.488-2.409 0-4.492-.341-6.25-1.025-1.741-.684-3.182-1.603-4.321-2.759a11.204 11.204 0 01-2.564-4.077c-.553-1.579-.83-3.288-.83-5.127 0-1.66.302-3.247.904-4.76a12.934 12.934 0 012.612-4.078c1.107-1.155 2.498-2.091 4.175-2.807 1.693-.717 3.581-1.075 5.664-1.075 2.279 0 4.15.277 5.615.83 1.465.554 2.678 1.319 3.638 2.295a8.304 8.304 0 012.026 3.296c.423 1.253.635 2.572.635 3.955v1.587h-16.504c0 3.337.643 5.876 1.929 7.617 1.286 1.742 3.328 2.613 6.128 2.613 1.53 0 2.905-.415 4.126-1.245a11.953 11.953 0 003.125-3.199l1.855 1.343zm-9.326-9.277c0-.977-.049-1.978-.147-3.003-.097-1.026-.268-1.864-.512-2.515-.277-.765-.659-1.343-1.148-1.733-.472-.39-1.074-.586-1.806-.586-1.254 0-2.255.634-3.003 1.904-.749 1.27-1.156 3.28-1.221 6.03l7.837-.097zm36.011-4.639c0 1.237-.383 2.328-1.148 3.271-.765.928-1.774 1.392-3.027 1.392-1.188 0-2.197-.301-3.027-.903-.814-.602-1.221-1.49-1.221-2.661 0-.57.041-1.01.122-1.319.081-.325.155-.626.22-.903-.749.032-1.538.293-2.369.781a7.792 7.792 0 00-2.197 1.953v13.404c0 .57.09 1.041.269 1.416.179.374.48.667.903.879.358.179.936.333 1.733.464.814.113 1.4.178 1.758.195V38h-16.333v-1.782a31.14 31.14 0 001.221-.122 6.65 6.65 0 001.074-.244c.521-.18.879-.456 1.074-.83.196-.375.293-.863.293-1.465v-14.21c0-.585-.138-1.106-.415-1.562a3.533 3.533 0 00-1.001-1.123c-.293-.195-.667-.358-1.123-.488a7.557 7.557 0 00-1.465-.269v-1.782l11.646-.635.366.367v3.54h.098c1.123-1.303 2.311-2.32 3.564-3.052 1.27-.749 2.588-1.123 3.955-1.123 1.514 0 2.727.472 3.638 1.416.928.928 1.392 2.132 1.392 3.613zm13.012 20.581c-1.578 0-3.125-.236-4.638-.708-1.498-.456-2.661-.944-3.491-1.465l-.733 1.66h-1.904l-.318-9.106h1.783c.244.732.651 1.562 1.22 2.49.57.912 1.221 1.734 1.953 2.466.765.732 1.636 1.35 2.613 1.855a6.91 6.91 0 003.174.757c1.481 0 2.579-.285 3.296-.854.732-.586 1.098-1.481 1.098-2.686 0-.65-.163-1.188-.488-1.611-.326-.423-.773-.79-1.343-1.099a12.283 12.283 0 00-2.1-.83 320.54 320.54 0 00-2.783-.83 30.137 30.137 0 01-2.856-.976c-.781-.342-1.595-.871-2.442-1.587a7.196 7.196 0 01-1.757-2.295c-.44-.895-.66-1.962-.66-3.198 0-2.295.961-4.15 2.881-5.567 1.937-1.416 4.468-2.124 7.593-2.124 1.481 0 2.84.155 4.077.464 1.253.293 2.303.618 3.15.976l.512-1.44h1.856l.39 8.325h-1.733c-.57-1.692-1.546-3.15-2.93-4.37-1.383-1.237-2.872-1.855-4.467-1.855-1.254 0-2.238.26-2.955.78-.716.522-1.074 1.246-1.074 2.174 0 1.237.521 2.132 1.563 2.685 1.058.554 2.531 1.075 4.419 1.563 2.913.748 5.045 1.774 6.396 3.076 1.351 1.286 2.027 2.93 2.027 4.932 0 2.669-1.05 4.736-3.15 6.2-2.083 1.466-4.809 2.198-8.179 2.198zm32.496-1.953a29.83 29.83 0 01-3.345 1.22c-1.188.375-2.637.562-4.346.562-2.539 0-4.427-.618-5.664-1.855-1.221-1.237-1.831-3.003-1.831-5.298v-14.99h-4.395v-2.637h4.493V6.48h7.934v7.398h6.836v2.637h-6.787v13.379c0 1.904.26 3.255.781 4.052.537.798 1.49 1.197 2.857 1.197.439 0 1.05-.033 1.831-.098.781-.065 1.326-.138 1.636-.22v2.051zm29.614.61c-.716.31-1.563.594-2.539.855-.977.26-2.01.39-3.101.39-2.002 0-3.475-.292-4.419-.879-.944-.602-1.587-1.456-1.929-2.563h-.146a15.259 15.259 0 01-1.611 1.416 8.82 8.82 0 01-1.636 1.001c-.765.358-1.506.618-2.222.781-.7.18-1.684.269-2.954.269-1.888 0-3.499-.553-4.834-1.66-1.334-1.123-2.002-2.605-2.002-4.444 0-1.058.147-1.953.44-2.685a6.087 6.087 0 011.245-1.978 6.554 6.554 0 011.684-1.294 19.973 19.973 0 012.124-.952c1.465-.537 3.223-1.09 5.274-1.66 2.051-.586 3.548-1.107 4.492-1.563v-2.343c0-.407-.033-.944-.098-1.612-.065-.667-.203-1.228-.415-1.684a3.222 3.222 0 00-1.074-1.319c-.488-.358-1.131-.537-1.929-.537-.716 0-1.318.106-1.806.318a5.717 5.717 0 00-1.148.61c.049.326.187.822.415 1.49.228.667.342 1.31.342 1.928 0 .277-.073.627-.22 1.05a2.319 2.319 0 01-.634.976 4.184 4.184 0 01-1.27.757c-.456.18-1.164.269-2.124.269-1.367 0-2.401-.326-3.101-.977-.699-.667-1.049-1.53-1.049-2.588 0-.911.358-1.725 1.074-2.441.732-.732 1.619-1.335 2.661-1.807 1.025-.488 2.205-.862 3.54-1.123 1.335-.276 2.572-.415 3.711-.415 1.579 0 3.027.098 4.346.293 1.318.18 2.506.562 3.564 1.148 1.009.57 1.807 1.4 2.393 2.49.602 1.074.903 2.482.903 4.223 0 1.84-.041 4.02-.122 6.543-.065 2.523-.098 4.183-.098 4.981 0 .732.106 1.31.318 1.733.228.424.569.74 1.025.953.277.13.708.211 1.294.244a62.06 62.06 0 001.636.024v1.782zm-12.134-12.72a29.51 29.51 0 00-2.71 1.075c-.895.39-1.628.806-2.197 1.245a4.71 4.71 0 00-1.416 1.758c-.342.7-.513 1.53-.513 2.49 0 1.27.285 2.19.855 2.759.585.57 1.302.854 2.148.854.895 0 1.628-.179 2.197-.537a6.474 6.474 0 001.538-1.367l.098-8.276zM272.949 38h-14.697v-1.782l1.123-.122c.439-.05.773-.13 1.001-.244.342-.18.586-.44.732-.782.147-.342.22-.846.22-1.513V22.13c0-1.66-.309-2.905-.928-3.736-.602-.846-1.497-1.269-2.685-1.269-.651 0-1.262.098-1.831.293a6.849 6.849 0 00-1.636.854 5.95 5.95 0 00-1.147 1.001 29.91 29.91 0 00-.708.904v13.11c0 .57.081 1.05.244 1.44.162.375.431.66.805.855.261.147.586.277.977.39.391.115.773.196 1.147.245V38h-14.843v-1.782a31.09 31.09 0 001.22-.122 6.64 6.64 0 001.075-.244c.52-.18.878-.456 1.074-.83.195-.375.293-.863.293-1.465v-14.21c0-.504-.13-1-.391-1.489a3.488 3.488 0 00-1.025-1.196c-.293-.195-.668-.358-1.123-.488-.44-.13-.928-.22-1.465-.269v-1.782l11.645-.635.367.367v3.54h.097a230.82 230.82 0 011.66-1.465 16.023 16.023 0 011.807-1.392c.602-.39 1.392-.724 2.368-1a11.417 11.417 0 013.125-.416c2.653 0 4.639.757 5.957 2.27 1.335 1.498 2.002 3.492 2.002 5.982v11.963c0 .602.09 1.082.269 1.44.179.358.512.643 1.001.855.26.114.578.228.952.342.39.114.83.195 1.318.244V38zm33.863-.513l-12.037.708-.366-.342v-2.246l-.171-.048c-.797.862-1.88 1.62-3.247 2.27-1.351.635-2.718.952-4.101.952-3.288 0-5.998-1.22-8.13-3.662-2.132-2.441-3.198-5.599-3.198-9.473 0-3.434 1.188-6.38 3.564-8.837 2.393-2.458 5.282-3.687 8.667-3.687a14.7 14.7 0 013.76.464c1.172.293 2.107.643 2.807 1.05V6.652a3.92 3.92 0 00-.366-1.684c-.244-.537-.57-.952-.976-1.245-.505-.358-1.14-.61-1.905-.757a17.745 17.745 0 00-2.27-.342V.842l13.183-.635.367.39v32.008c0 .618.097 1.139.293 1.562.211.423.545.757 1.001 1.001.341.179.838.31 1.489.39.667.082 1.212.13 1.636.147v1.782zm-12.452-4.345V19.348a9.662 9.662 0 00-.488-1.245 4.844 4.844 0 00-.83-1.294c-.326-.342-.765-.643-1.318-.904-.537-.26-1.148-.39-1.831-.39-1.628 0-2.963.92-4.004 2.758-1.042 1.84-1.563 4.436-1.563 7.788 0 1.319.09 2.507.269 3.565a9.581 9.581 0 001.001 2.856c.472.863 1.074 1.538 1.806 2.027.749.488 1.644.732 2.686.732.993 0 1.815-.187 2.466-.561a7.561 7.561 0 001.806-1.538zM359.863 38h-14.355l-1.514-1.709a62.55 62.55 0 01-1.587-1.904c-1.725 1.595-3.45 2.742-5.176 3.442-1.709.684-3.531 1.026-5.468 1.026-3.044 0-5.542-.822-7.495-2.466-1.937-1.644-2.906-3.785-2.906-6.421 0-1.319.171-2.45.513-3.394.358-.944.928-1.888 1.709-2.832.749-.911 1.676-1.725 2.783-2.441a27.673 27.673 0 013.736-2.051c-1.465-1.855-2.491-3.434-3.077-4.736a9.906 9.906 0 01-.854-4.004c0-2.344.976-4.273 2.93-5.786 1.953-1.53 4.288-2.295 7.006-2.295 2.539 0 4.598.602 6.177 1.806 1.579 1.205 2.368 2.8 2.368 4.786 0 1.725-.472 3.271-1.416 4.638-.944 1.351-2.514 2.678-4.712 3.98 1.774 2.278 3.142 3.995 4.102 5.151.977 1.14 2.27 2.645 3.882 4.517 1.025-1.514 1.79-2.906 2.295-4.175.521-1.27.781-2.336.781-3.198 0-.489-.366-.88-1.099-1.172-.716-.31-1.733-.594-3.051-.855v-1.855h13.647v1.855c-1.481.13-2.58.31-3.296.537-.7.228-1.391.692-2.075 1.392-.293.293-.659.814-1.099 1.562-.423.733-.83 1.44-1.22 2.125-.472.83-.977 1.7-1.514 2.612a28.03 28.03 0 01-1.953 2.856c1.497 1.758 2.726 3.076 3.686 3.955.977.863 1.774 1.457 2.393 1.782.7.375 1.587.676 2.661.904 1.074.211 2.14.35 3.198.415V38zM340.942 9.387c0-1.433-.35-2.556-1.049-3.37-.684-.83-1.579-1.245-2.686-1.245-1.058 0-1.912.342-2.563 1.026-.651.667-.977 1.546-.977 2.637 0 .944.301 2.018.903 3.222.603 1.188 1.53 2.637 2.784 4.346 1.236-.863 2.14-1.864 2.709-3.003a7.89 7.89 0 00.879-3.613zm.171 23.413a2994.32 2994.32 0 00-4.785-5.737 381.933 381.933 0 01-5.054-6.226 7.546 7.546 0 00-1.879 2.978 10.654 10.654 0 00-.562 3.394c0 2.165.692 3.93 2.075 5.298 1.384 1.367 3.141 2.05 5.274 2.05.992 0 1.855-.122 2.588-.366.732-.26 1.513-.724 2.343-1.391zm72.705 5.2h-13.281c-2.295-3.516-4.207-6.315-5.737-8.398-1.514-2.084-3.402-4.493-5.664-7.227h-1.343v10.523c0 .585.106 1.082.317 1.489.228.407.651.748 1.27 1.025.309.13.789.269 1.44.415.668.13 1.237.22 1.709.269V38h-18.481v-1.904c.472-.05 1.09-.114 1.855-.196.782-.097 1.335-.211 1.66-.341.619-.26 1.034-.586 1.246-.977.211-.407.317-.92.317-1.538V8.605c0-.585-.09-1.074-.269-1.464-.179-.391-.61-.733-1.294-1.026-.52-.211-1.139-.39-1.855-.537a38 38 0 00-1.66-.317V3.356h19.433c4.346 0 7.642.684 9.888 2.051 2.263 1.351 3.394 3.402 3.394 6.153 0 2.425-.7 4.378-2.1 5.859-1.383 1.465-3.499 2.612-6.348 3.442a2649.07 2649.07 0 003.858 4.98 475.577 475.577 0 004.614 5.787 41.791 41.791 0 002.051 2.344c.879.911 1.652 1.473 2.319 1.684a9.71 9.71 0 001.416.293c.586.082 1.001.13 1.245.147V38zm-16.626-25.757c0-2.311-.651-3.996-1.953-5.054-1.286-1.074-3.125-1.61-5.517-1.61h-1.929V20.08h1.855c2.393 0 4.248-.627 5.567-1.88 1.318-1.253 1.977-3.239 1.977-5.957zm42.725 19.922a14.925 14.925 0 01-2.075 2.637 12.46 12.46 0 01-2.735 2.1 14.55 14.55 0 01-3.32 1.391c-1.107.325-2.384.488-3.833.488-2.409 0-4.492-.341-6.25-1.025-1.741-.684-3.182-1.603-4.321-2.759a11.19 11.19 0 01-2.564-4.077c-.553-1.579-.83-3.288-.83-5.127 0-1.66.301-3.247.904-4.76a12.934 12.934 0 012.612-4.078c1.107-1.155 2.498-2.091 4.175-2.807 1.692-.717 3.58-1.075 5.664-1.075 2.278 0 4.15.277 5.615.83 1.465.554 2.677 1.319 3.638 2.295a8.316 8.316 0 012.026 3.296c.423 1.253.635 2.572.635 3.955v1.587h-16.504c0 3.337.643 5.876 1.929 7.617 1.285 1.742 3.328 2.613 6.128 2.613 1.529 0 2.905-.415 4.126-1.245a11.953 11.953 0 003.125-3.199l1.855 1.343zm-9.326-9.277c0-.977-.049-1.978-.147-3.003-.097-1.026-.268-1.864-.512-2.515-.277-.765-.66-1.343-1.148-1.733-.472-.39-1.074-.586-1.806-.586-1.254 0-2.255.634-3.003 1.904-.749 1.27-1.156 3.28-1.221 6.03l7.837-.097zM457.153 38h-15.307v-1.782c.423-.033.83-.074 1.22-.122a4.77 4.77 0 001.075-.244c.52-.196.87-.472 1.049-.83.196-.375.293-.863.293-1.465V6.506c0-.619-.13-1.188-.39-1.71-.244-.536-.578-.943-1.001-1.22-.326-.211-.822-.415-1.489-.61-.652-.195-1.229-.31-1.734-.342V.842l12.28-.635.367.39V33.24c0 .603.105 1.09.317 1.465.212.374.553.667 1.025.879.326.147.668.277 1.026.39.358.115.781.196 1.269.245V38zm28.614-5.835a14.932 14.932 0 01-2.076 2.637 12.455 12.455 0 01-2.734 2.1 14.55 14.55 0 01-3.32 1.391c-1.107.325-2.385.488-3.833.488-2.409 0-4.492-.341-6.25-1.025-1.742-.684-3.182-1.603-4.322-2.759a11.202 11.202 0 01-2.563-4.077c-.553-1.579-.83-3.288-.83-5.127 0-1.66.301-3.247.903-4.76a12.952 12.952 0 012.612-4.078c1.107-1.155 2.499-2.091 4.175-2.807 1.693-.717 3.581-1.075 5.664-1.075 2.279 0 4.151.277 5.616.83 1.464.554 2.677 1.319 3.637 2.295a8.318 8.318 0 012.027 3.296c.423 1.253.634 2.572.634 3.955v1.587h-16.503c0 3.337.642 5.876 1.928 7.617 1.286 1.742 3.329 2.613 6.128 2.613 1.53 0 2.905-.415 4.126-1.245a11.923 11.923 0 003.125-3.199l1.856 1.343zm-9.327-9.277c0-.977-.048-1.978-.146-3.003-.098-1.026-.269-1.864-.513-2.515-.276-.765-.659-1.343-1.147-1.733-.472-.39-1.074-.586-1.807-.586-1.253 0-2.254.634-3.003 1.904-.748 1.27-1.155 3.28-1.22 6.03l7.836-.097zm39.6 14.6a18.42 18.42 0 01-2.539.854c-.977.26-2.01.39-3.101.39-2.002 0-3.475-.292-4.419-.879-.944-.602-1.586-1.456-1.928-2.563h-.147a15.16 15.16 0 01-1.611 1.416 8.82 8.82 0 01-1.636 1.001c-.765.358-1.505.618-2.221.781-.7.18-1.685.269-2.955.269-1.888 0-3.499-.553-4.834-1.66-1.334-1.123-2.002-2.605-2.002-4.444 0-1.058.147-1.953.44-2.685a6.087 6.087 0 011.245-1.978 6.542 6.542 0 011.685-1.294 19.973 19.973 0 012.124-.952c1.464-.537 3.222-1.09 5.273-1.66 2.051-.586 3.548-1.107 4.492-1.563v-2.343c0-.407-.032-.944-.097-1.612-.066-.667-.204-1.228-.415-1.684a3.217 3.217 0 00-1.075-1.319c-.488-.358-1.131-.537-1.928-.537-.717 0-1.319.106-1.807.318a5.678 5.678 0 00-1.147.61c.048.326.187.822.415 1.49a5.98 5.98 0 01.341 1.928c0 .277-.073.627-.219 1.05-.147.407-.358.732-.635.976a4.172 4.172 0 01-1.27.757c-.455.18-1.163.269-2.124.269-1.367 0-2.4-.326-3.1-.977-.7-.667-1.05-1.53-1.05-2.588 0-.911.358-1.725 1.074-2.441.733-.732 1.62-1.335 2.661-1.807 1.026-.488 2.206-.862 3.54-1.123 1.335-.276 2.572-.415 3.711-.415 1.579 0 3.028.098 4.346.293 1.318.18 2.506.562 3.564 1.148 1.01.57 1.807 1.4 2.393 2.49.602 1.074.903 2.482.903 4.223 0 1.84-.04 4.02-.122 6.543-.065 2.523-.097 4.183-.097 4.981 0 .732.105 1.31.317 1.733.228.424.57.74 1.025.953.277.13.708.211 1.294.244.603.016 1.148.024 1.636.024v1.782zm-12.134-12.72c-.911.309-1.815.667-2.71 1.074-.895.39-1.627.806-2.197 1.245a4.71 4.71 0 00-1.416 1.758c-.342.7-.513 1.53-.513 2.49 0 1.27.285 2.19.855 2.759.586.57 1.302.854 2.148.854.895 0 1.628-.179 2.198-.537a6.513 6.513 0 001.538-1.367l.097-8.276zm25.318 14.062c-1.579 0-3.125-.236-4.639-.708-1.497-.456-2.661-.944-3.491-1.465l-.733 1.66h-1.904l-.317-9.106h1.782c.244.732.651 1.562 1.221 2.49a13.77 13.77 0 001.953 2.466 11.15 11.15 0 002.612 1.855 6.91 6.91 0 003.174.757c1.481 0 2.58-.285 3.296-.854.732-.586 1.098-1.481 1.098-2.686 0-.65-.162-1.188-.488-1.611-.325-.423-.773-.79-1.343-1.099a12.24 12.24 0 00-2.099-.83c-.749-.228-1.677-.504-2.784-.83a30.335 30.335 0 01-2.856-.976c-.781-.342-1.595-.871-2.441-1.587a7.185 7.185 0 01-1.758-2.295c-.44-.895-.659-1.962-.659-3.198 0-2.295.96-4.15 2.881-5.567 1.936-1.416 4.467-2.124 7.592-2.124 1.481 0 2.84.155 4.077.464 1.254.293 2.303.618 3.15.976l.513-1.44h1.855l.391 8.325h-1.734c-.569-1.692-1.546-3.15-2.929-4.37-1.384-1.237-2.873-1.855-4.468-1.855-1.253 0-2.238.26-2.954.78-.716.522-1.075 1.246-1.075 2.174 0 1.237.521 2.132 1.563 2.685 1.058.554 2.531 1.075 4.419 1.563 2.913.748 5.045 1.774 6.396 3.076 1.351 1.286 2.027 2.93 2.027 4.932 0 2.669-1.05 4.736-3.15 6.2-2.083 1.466-4.809 2.198-8.178 2.198zm40.576-6.665a14.972 14.972 0 01-2.075 2.637 12.46 12.46 0 01-2.735 2.1 14.55 14.55 0 01-3.32 1.391c-1.107.325-2.385.488-3.833.488-2.409 0-4.492-.341-6.25-1.025-1.742-.684-3.182-1.603-4.321-2.759a11.19 11.19 0 01-2.564-4.077c-.553-1.579-.83-3.288-.83-5.127 0-1.66.301-3.247.903-4.76a12.955 12.955 0 012.613-4.078c1.106-1.155 2.498-2.091 4.174-2.807 1.693-.717 3.581-1.075 5.665-1.075 2.278 0 4.15.277 5.615.83 1.465.554 2.677 1.319 3.637 2.295a8.306 8.306 0 012.027 3.296c.423 1.253.635 2.572.635 3.955v1.587h-16.504c0 3.337.643 5.876 1.928 7.617 1.286 1.742 3.329 2.613 6.128 2.613 1.53 0 2.906-.415 4.126-1.245a11.923 11.923 0 003.125-3.199l1.856 1.343zm-9.326-9.277c0-.977-.049-1.978-.147-3.003-.098-1.026-.268-1.864-.513-2.515-.276-.765-.659-1.343-1.147-1.733-.472-.39-1.074-.586-1.807-.586-1.253 0-2.254.634-3.003 1.904-.748 1.27-1.155 3.28-1.22 6.03l7.837-.097zM19.58 115.877a29.718 29.718 0 01-3.345 1.221c-1.188.374-2.636.561-4.345.561-2.54 0-4.427-.618-5.664-1.855-1.221-1.237-1.831-3.003-1.831-5.298v-14.99H0v-2.637h4.492V85.48h7.935v7.398h6.836v2.637h-6.787v13.379c0 1.904.26 3.255.78 4.052.538.798 1.49 1.197 2.857 1.197.44 0 1.05-.033 1.831-.098.782-.065 1.327-.138 1.636-.22v2.051zM53.027 117H38.33v-1.782c.326-.033.708-.073 1.148-.122.439-.049.764-.131.976-.244.342-.179.578-.44.708-.782.147-.341.22-.846.22-1.513v-11.426c0-1.677-.317-2.93-.952-3.76-.619-.83-1.506-1.245-2.661-1.245-.651 0-1.262.098-1.831.293a6.86 6.86 0 00-1.636.854c-.472.326-.855.66-1.148 1.001-.276.342-.512.643-.708.904v13.11c0 .602.074 1.082.22 1.441.147.341.423.626.83.854.244.146.562.277.952.391.407.114.798.195 1.172.244V117H20.776v-1.782a26.2 26.2 0 001.221-.122 4.815 4.815 0 001.074-.244c.521-.196.871-.472 1.05-.831.195-.374.293-.862.293-1.464V85.335c0-.52-.122-1.074-.366-1.66-.244-.586-.586-1.026-1.025-1.319-.326-.211-.798-.374-1.417-.488a12.055 12.055 0 00-1.66-.244v-1.782l12.134-.635.366.39v16.797h.098l1.66-1.489a13.723 13.723 0 011.831-1.367c.602-.39 1.384-.724 2.344-1a11.51 11.51 0 013.15-.416c2.636 0 4.614.757 5.932 2.27 1.335 1.514 2.002 3.508 2.002 5.982v11.963c0 .602.09 1.082.268 1.44.18.358.513.643 1.001.855.293.13.619.244.977.342.358.097.797.179 1.318.244V117zm28.492-5.835a14.912 14.912 0 01-2.076 2.637 12.453 12.453 0 01-2.734 2.099 14.528 14.528 0 01-3.32 1.392c-1.107.325-2.385.488-3.833.488-2.41 0-4.492-.342-6.25-1.025-1.742-.684-3.182-1.603-4.322-2.759a11.202 11.202 0 01-2.563-4.077c-.553-1.579-.83-3.288-.83-5.127 0-1.66.3-3.247.903-4.761a12.945 12.945 0 012.612-4.077c1.107-1.156 2.499-2.091 4.175-2.808 1.693-.716 3.581-1.074 5.664-1.074 2.279 0 4.15.277 5.616.83 1.464.554 2.677 1.319 3.637 2.295a8.31 8.31 0 012.027 3.296 12.28 12.28 0 01.634 3.955v1.587H64.356c0 3.337.642 5.876 1.928 7.617 1.286 1.742 3.329 2.613 6.128 2.613 1.53 0 2.905-.415 4.126-1.245a11.947 11.947 0 003.125-3.199l1.856 1.343zm-9.327-9.277c0-.977-.048-1.978-.146-3.003-.098-1.026-.269-1.864-.513-2.515-.276-.765-.659-1.343-1.147-1.733-.472-.39-1.075-.586-1.807-.586-1.253 0-2.254.635-3.003 1.904-.748 1.27-1.155 3.28-1.22 6.03l7.836-.097zm35.694 15.942c-1.579 0-3.125-.236-4.639-.708-1.497-.456-2.661-.944-3.491-1.465l-.733 1.66H97.12l-.317-9.106h1.782c.244.732.651 1.562 1.22 2.49.57.912 1.221 1.734 1.954 2.466a11.162 11.162 0 002.612 1.855 6.905 6.905 0 003.174.757c1.481 0 2.58-.285 3.296-.854.732-.586 1.098-1.481 1.098-2.686 0-.651-.162-1.188-.488-1.611-.325-.423-.773-.789-1.343-1.099a12.289 12.289 0 00-2.099-.83c-.749-.228-1.677-.504-2.783-.83a30.275 30.275 0 01-2.857-.976c-.781-.342-1.595-.871-2.441-1.587a7.203 7.203 0 01-1.758-2.295c-.44-.895-.66-1.962-.66-3.198 0-2.295.961-4.15 2.882-5.567 1.936-1.416 4.467-2.124 7.592-2.124 1.482 0 2.841.155 4.078.464 1.253.293 2.303.618 3.149.977l.513-1.44h1.855l.391 8.324h-1.734c-.569-1.692-1.546-3.15-2.929-4.37-1.384-1.237-2.873-1.855-4.468-1.855-1.253 0-2.238.26-2.954.78-.716.522-1.074 1.246-1.074 2.174 0 1.237.52 2.132 1.562 2.685 1.058.554 2.531 1.075 4.419 1.563 2.913.749 5.046 1.774 6.397 3.076 1.35 1.286 2.026 2.93 2.026 4.932 0 2.669-1.05 4.736-3.15 6.201-2.083 1.465-4.809 2.197-8.178 2.197zm32.495-1.953a29.752 29.752 0 01-3.345 1.221c-1.188.374-2.637.561-4.346.561-2.539 0-4.427-.618-5.664-1.855-1.22-1.237-1.831-3.003-1.831-5.298v-14.99h-4.394v-2.637h4.492V85.48h7.935v7.398h6.835v2.637h-6.787v13.379c0 1.904.261 3.255.782 4.052.537.798 1.489 1.197 2.856 1.197.44 0 1.05-.033 1.831-.098.781-.065 1.327-.138 1.636-.22v2.051zm26.025-18.628c0 1.237-.382 2.328-1.147 3.272-.765.927-1.774 1.391-3.028 1.391-1.188 0-2.197-.301-3.027-.903-.814-.602-1.221-1.49-1.221-2.661 0-.57.041-1.01.122-1.319.082-.325.155-.626.22-.903-.749.032-1.538.293-2.368.781a7.792 7.792 0 00-2.197 1.953v13.404c0 .569.089 1.041.268 1.416.179.374.48.667.904.879.358.179.936.333 1.733.463.814.114 1.4.179 1.758.196V117H142.09v-1.782c.407-.033.814-.073 1.221-.122a6.705 6.705 0 001.074-.244c.521-.179.879-.456 1.074-.831.195-.374.293-.862.293-1.464v-14.21c0-.585-.138-1.106-.415-1.562a3.544 3.544 0 00-1.001-1.123c-.293-.195-.667-.358-1.123-.488-.44-.13-.928-.22-1.465-.269v-1.782l11.646-.635.366.367v3.54h.097c1.123-1.303 2.312-2.32 3.565-3.052 1.269-.749 2.588-1.123 3.955-1.123 1.514 0 2.726.472 3.638 1.416.927.928 1.391 2.132 1.391 3.613zm27.954 13.916a14.87 14.87 0 01-2.075 2.637 12.446 12.446 0 01-2.734 2.099 14.523 14.523 0 01-3.321 1.392c-1.106.325-2.384.488-3.833.488-2.408 0-4.492-.342-6.25-1.025-1.741-.684-3.182-1.603-4.321-2.759a11.195 11.195 0 01-2.563-4.077c-.554-1.579-.83-3.288-.83-5.127 0-1.66.301-3.247.903-4.761a12.936 12.936 0 012.612-4.077c1.107-1.156 2.499-2.091 4.175-2.808 1.693-.716 3.581-1.074 5.664-1.074 2.279 0 4.151.277 5.615.83 1.465.554 2.678 1.319 3.638 2.295a8.304 8.304 0 012.026 3.296c.424 1.253.635 2.572.635 3.955v1.587h-16.504c0 3.337.643 5.876 1.929 7.617 1.286 1.742 3.328 2.613 6.128 2.613 1.53 0 2.905-.415 4.126-1.245a11.948 11.948 0 003.125-3.199l1.855 1.343zm-9.326-9.277c0-.977-.049-1.978-.146-3.003-.098-1.026-.269-1.864-.513-2.515-.277-.765-.659-1.343-1.147-1.733-.472-.39-1.075-.586-1.807-.586-1.253 0-2.254.635-3.003 1.904-.749 1.27-1.156 3.28-1.221 6.03l7.837-.097zm22.998 15.942c-1.579 0-3.125-.236-4.638-.708-1.498-.456-2.662-.944-3.492-1.465l-.732 1.66h-1.904l-.318-9.106h1.782c.245.732.652 1.562 1.221 2.49.57.912 1.221 1.734 1.953 2.466a11.147 11.147 0 002.613 1.855c.992.505 2.05.757 3.173.757 1.482 0 2.58-.285 3.296-.854.733-.586 1.099-1.481 1.099-2.686 0-.651-.163-1.188-.488-1.611-.326-.423-.773-.789-1.343-1.099a12.333 12.333 0 00-2.1-.83 320.54 320.54 0 00-2.783-.83 30.148 30.148 0 01-2.856-.976c-.782-.342-1.595-.871-2.442-1.587a7.218 7.218 0 01-1.758-2.295c-.439-.895-.659-1.962-.659-3.198 0-2.295.961-4.15 2.881-5.567 1.937-1.416 4.468-2.124 7.593-2.124 1.481 0 2.84.155 4.077.464 1.253.293 2.303.618 3.149.977l.513-1.44h1.856l.39 8.324h-1.733c-.57-1.692-1.546-3.15-2.93-4.37-1.383-1.237-2.873-1.855-4.468-1.855-1.253 0-2.238.26-2.954.78-.716.522-1.074 1.246-1.074 2.174 0 1.237.521 2.132 1.563 2.685 1.057.554 2.53 1.075 4.419 1.563 2.913.749 5.045 1.774 6.396 3.076 1.351 1.286 2.026 2.93 2.026 4.932 0 2.669-1.049 4.736-3.149 6.201-2.083 1.465-4.81 2.197-8.179 2.197zm25.635 0c-1.579 0-3.125-.236-4.639-.708-1.497-.456-2.661-.944-3.491-1.465l-.732 1.66H222.9l-.317-9.106h1.782c.244.732.651 1.562 1.221 2.49.57.912 1.221 1.734 1.953 2.466a11.162 11.162 0 002.612 1.855 6.905 6.905 0 003.174.757c1.481 0 2.58-.285 3.296-.854.733-.586 1.099-1.481 1.099-2.686 0-.651-.163-1.188-.489-1.611-.325-.423-.773-.789-1.342-1.099a12.333 12.333 0 00-2.1-.83c-.749-.228-1.676-.504-2.783-.83a30.275 30.275 0 01-2.857-.976c-.781-.342-1.595-.871-2.441-1.587a7.218 7.218 0 01-1.758-2.295c-.439-.895-.659-1.962-.659-3.198 0-2.295.96-4.15 2.881-5.567 1.937-1.416 4.468-2.124 7.593-2.124 1.481 0 2.84.155 4.077.464 1.253.293 2.303.618 3.149.977l.513-1.44h1.855l.391 8.324h-1.733c-.57-1.692-1.547-3.15-2.93-4.37-1.384-1.237-2.873-1.855-4.468-1.855-1.253 0-2.238.26-2.954.78-.716.522-1.074 1.246-1.074 2.174 0 1.237.521 2.132 1.562 2.685 1.058.554 2.531 1.075 4.419 1.563 2.914.749 5.046 1.774 6.397 3.076 1.351 1.286 2.026 2.93 2.026 4.932 0 2.669-1.05 4.736-3.149 6.201-2.084 1.465-4.81 2.197-8.179 2.197zm42.456-.83h-15.43v-1.782c.424-.033.839-.073 1.245-.122a4.391 4.391 0 001.05-.244c.521-.196.887-.472 1.099-.831.212-.374.317-.862.317-1.464v-14.21c0-.569-.13-1.065-.39-1.489a3.196 3.196 0 00-.977-1.05c-.293-.195-.74-.382-1.343-.56a8.433 8.433 0 00-1.611-.343v-1.782l11.963-.635.366.367v19.384c0 .57.122 1.058.366 1.465.244.391.594.684 1.05.879.326.146.684.277 1.074.391.391.114.798.195 1.221.244V117zm-3.564-33.3c0 1.236-.481 2.294-1.441 3.173-.944.863-2.067 1.294-3.369 1.294-1.318 0-2.458-.431-3.418-1.294-.944-.879-1.416-1.937-1.416-3.174 0-1.237.472-2.295 1.416-3.174.96-.879 2.1-1.318 3.418-1.318s2.45.44 3.394 1.318c.944.88 1.416 1.937 1.416 3.174zm38.037 33.3h-14.698v-1.782c.31-.033.684-.073 1.123-.122.44-.049.774-.131 1.001-.244.342-.179.586-.44.733-.782.146-.341.22-.846.22-1.513v-11.426c0-1.66-.31-2.905-.928-3.736-.602-.846-1.498-1.269-2.686-1.269a5.61 5.61 0 00-1.831.293 6.861 6.861 0 00-1.635.854c-.472.326-.855.66-1.148 1.001a29.91 29.91 0 00-.708.904v13.11c0 .57.081 1.05.244 1.441.163.374.432.659.806.854.26.146.586.277.976.391.391.114.774.195 1.148.244V117h-14.844v-1.782c.407-.033.814-.073 1.221-.122a6.705 6.705 0 001.074-.244c.521-.179.879-.456 1.074-.831.196-.374.293-.862.293-1.464v-14.21c0-.504-.13-1-.39-1.489a3.501 3.501 0 00-1.026-1.196c-.293-.195-.667-.358-1.123-.488a7.571 7.571 0 00-1.465-.269v-1.782l11.646-.635.366.367v3.54h.098c.455-.407 1.009-.896 1.66-1.465a15.934 15.934 0 011.807-1.392c.602-.39 1.391-.724 2.368-1a11.412 11.412 0 013.125-.416c2.653 0 4.638.757 5.957 2.27 1.334 1.498 2.002 3.492 2.002 5.982v11.963c0 .602.089 1.082.268 1.44.179.358.513.643 1.001.855.261.114.578.228.952.342.391.114.83.195 1.319.244V117zm38.867-8.203c.976.651 1.79 1.522 2.441 2.612.651 1.074.977 2.401.977 3.98 0 3.043-1.457 5.574-4.37 7.592-2.914 2.019-6.665 3.028-11.255 3.028-3.288 0-6.079-.708-8.374-2.124-2.295-1.4-3.443-3.125-3.443-5.176 0-1.156.367-2.132 1.099-2.93.749-.797 1.742-1.196 2.979-1.196 1.285 0 2.335.35 3.149 1.05.83.683 1.245 1.603 1.245 2.759 0 .797-.146 1.684-.439 2.661a41.788 41.788 0 01-.66 2.197c.359.163.822.285 1.392.366.57.098 1.237.147 2.002.147.944 0 1.864-.155 2.759-.464a5.8 5.8 0 002.368-1.514 7.547 7.547 0 001.611-2.588c.391-.976.586-2.278.586-3.906 0-.928-.089-1.807-.268-2.637-.163-.83-.472-1.554-.928-2.173-.456-.618-1.082-1.098-1.88-1.44-.781-.358-1.782-.537-3.003-.537h-3.1v-2.954h2.197c2.051 0 3.532-.602 4.443-1.807.928-1.221 1.392-3.076 1.392-5.566 0-2.002-.448-3.5-1.343-4.492-.879-1.01-2.157-1.514-3.833-1.514-.635 0-1.188.04-1.66.122a6.148 6.148 0 00-1.441.39c.179.554.399 1.327.66 2.32.26.993.39 1.84.39 2.539 0 1.156-.399 2.075-1.196 2.759-.798.683-1.839 1.025-3.125 1.025-1.221 0-2.197-.399-2.93-1.196-.716-.798-1.074-1.766-1.074-2.905 0-2.019 1.164-3.736 3.491-5.152 2.344-1.432 5.282-2.148 8.814-2.148 2.441 0 4.459.285 6.054.854 1.612.57 2.881 1.27 3.809 2.1.911.814 1.538 1.693 1.88 2.637.358.927.537 1.766.537 2.514 0 .716-.155 1.53-.464 2.442a6.893 6.893 0 01-1.318 2.368c-.716.83-1.652 1.546-2.808 2.148-1.155.602-2.506 1.066-4.053 1.392v.391c1.058.065 2.198.26 3.418.585 1.237.326 2.328.806 3.272 1.441zm31.372 9.033c-1.579 0-3.125-.236-4.639-.708-1.497-.456-2.661-.944-3.491-1.465l-.732 1.66h-1.905l-.317-9.106h1.782c.244.732.651 1.562 1.221 2.49.57.912 1.221 1.734 1.953 2.466a11.162 11.162 0 002.612 1.855 6.905 6.905 0 003.174.757c1.481 0 2.58-.285 3.296-.854.732-.586 1.099-1.481 1.099-2.686 0-.651-.163-1.188-.489-1.611-.325-.423-.773-.789-1.342-1.099a12.333 12.333 0 00-2.1-.83c-.749-.228-1.676-.504-2.783-.83a30.275 30.275 0 01-2.857-.976c-.781-.342-1.595-.871-2.441-1.587a7.218 7.218 0 01-1.758-2.295c-.439-.895-.659-1.962-.659-3.198 0-2.295.96-4.15 2.881-5.567 1.937-1.416 4.468-2.124 7.593-2.124 1.481 0 2.84.155 4.077.464 1.253.293 2.303.618 3.149.977l.513-1.44h1.855l.391 8.324h-1.733c-.57-1.692-1.547-3.15-2.93-4.37-1.384-1.237-2.873-1.855-4.468-1.855-1.253 0-2.238.26-2.954.78-.716.522-1.074 1.246-1.074 2.174 0 1.237.521 2.132 1.562 2.685 1.058.554 2.531 1.075 4.419 1.563 2.914.749 5.046 1.774 6.397 3.076 1.351 1.286 2.026 2.93 2.026 4.932 0 2.669-1.05 4.736-3.149 6.201-2.084 1.465-4.81 2.197-8.179 2.197zm32.495-1.953a29.68 29.68 0 01-3.345 1.221c-1.188.374-2.636.561-4.345.561-2.539 0-4.427-.618-5.664-1.855-1.221-1.237-1.831-3.003-1.831-5.298v-14.99h-4.395v-2.637h4.492V85.48h7.935v7.398h6.836v2.637h-6.787v13.379c0 1.904.26 3.255.781 4.052.537.798 1.489 1.197 2.856 1.197.44 0 1.05-.033 1.831-.098.782-.065 1.327-.138 1.636-.22v2.051zm27.954-4.712a14.87 14.87 0 01-2.075 2.637 12.47 12.47 0 01-2.734 2.099 14.542 14.542 0 01-3.321 1.392c-1.106.325-2.384.488-3.833.488-2.409 0-4.492-.342-6.25-1.025-1.741-.684-3.182-1.603-4.321-2.759a11.195 11.195 0 01-2.563-4.077c-.554-1.579-.831-3.288-.831-5.127 0-1.66.302-3.247.904-4.761a12.936 12.936 0 012.612-4.077c1.107-1.156 2.498-2.091 4.175-2.808 1.693-.716 3.581-1.074 5.664-1.074 2.279 0 4.15.277 5.615.83 1.465.554 2.678 1.319 3.638 2.295a8.304 8.304 0 012.026 3.296c.423 1.253.635 2.572.635 3.955v1.587h-16.504c0 3.337.643 5.876 1.929 7.617 1.286 1.742 3.328 2.613 6.128 2.613 1.53 0 2.905-.415 4.126-1.245a11.963 11.963 0 003.125-3.199l1.855 1.343zm-9.326-9.277c0-.977-.049-1.978-.146-3.003-.098-1.026-.269-1.864-.513-2.515-.277-.765-.659-1.343-1.148-1.733-.472-.39-1.074-.586-1.806-.586-1.254 0-2.255.635-3.003 1.904-.749 1.27-1.156 3.28-1.221 6.03l7.837-.097zm41.431 3.222c0 3.435-1.148 6.381-3.443 8.838-2.295 2.458-5.2 3.687-8.716 3.687-1.562 0-2.832-.163-3.808-.489-.977-.309-1.782-.691-2.417-1.147h-.195v6.86c0 .57.122 1.066.366 1.49.26.423.618.732 1.074.927.439.179 1.058.342 1.855.489.814.146 1.49.236 2.027.268v1.807h-17.627v-1.807a20.42 20.42 0 001.538-.195c.618-.081 1.082-.171 1.392-.269.52-.179.87-.488 1.049-.927.196-.424.293-.912.293-1.465V98.201a3.78 3.78 0 00-.39-1.416c-.196-.407-.513-.765-.952-1.074-.326-.212-.757-.382-1.294-.513a9.342 9.342 0 00-1.587-.293v-1.782l11.889-.635.367.318v2.71l.195.048c1.074-1.09 2.262-1.936 3.564-2.539 1.319-.602 2.621-.903 3.907-.903 3.369 0 6.03 1.196 7.983 3.589 1.953 2.376 2.93 5.509 2.93 9.399zm-8.765.098c0-1.221-.089-2.384-.269-3.491-.179-1.123-.496-2.124-.952-3.003-.439-.879-1.025-1.579-1.757-2.1-.717-.52-1.596-.781-2.637-.781-1.058 0-1.905.187-2.539.561a5.738 5.738 0 00-1.66 1.416v13.843c.097.326.284.749.561 1.27.277.504.553.911.83 1.221.407.439.871.765 1.392.976a4.49 4.49 0 001.709.318c1.611 0 2.897-.863 3.857-2.588.977-1.742 1.465-4.289 1.465-7.642zm23.242 12.622c-1.579 0-3.125-.236-4.638-.708-1.498-.456-2.662-.944-3.492-1.465l-.732 1.66H477.1l-.318-9.106h1.782c.245.732.651 1.562 1.221 2.49.57.912 1.221 1.734 1.953 2.466a11.147 11.147 0 002.613 1.855c.992.505 2.05.757 3.173.757 1.482 0 2.58-.285 3.296-.854.733-.586 1.099-1.481 1.099-2.686 0-.651-.163-1.188-.488-1.611-.326-.423-.773-.789-1.343-1.099a12.333 12.333 0 00-2.1-.83 320.54 320.54 0 00-2.783-.83 30.148 30.148 0 01-2.856-.976c-.782-.342-1.595-.871-2.442-1.587a7.218 7.218 0 01-1.758-2.295c-.439-.895-.659-1.962-.659-3.198 0-2.295.961-4.15 2.881-5.567 1.937-1.416 4.468-2.124 7.593-2.124 1.481 0 2.84.155 4.077.464 1.253.293 2.303.618 3.149.977l.513-1.44h1.856l.39 8.324h-1.733c-.57-1.692-1.546-3.15-2.93-4.37-1.383-1.237-2.873-1.855-4.468-1.855-1.253 0-2.238.26-2.954.78-.716.522-1.074 1.246-1.074 2.174 0 1.237.521 2.132 1.563 2.685 1.057.554 2.53 1.075 4.418 1.563 2.914.749 5.046 1.774 6.397 3.076 1.351 1.286 2.026 2.93 2.026 4.932 0 2.669-1.049 4.736-3.149 6.201-2.083 1.465-4.81 2.197-8.179 2.197z" fill="#5072A7"/></svg>